<ttFont>
    <TTGlyph name=".ttfautohint" xMin="0" yMin="0" xMax="0" yMax="0">
      <contour>
        <pt x="0" y="0" on="1"/>
      </contour>
    </TTGlyph>
    <TTGlyph name="A" xMin="-53" yMin="0" xMax="513" yMax="654">
      <contour>
        <pt x="9" y="58" on="1"/>
        <pt x="281" y="654" on="1"/>
        <pt x="338" y="654" on="1"/>
        <pt x="452" y="56" on="1"/>
        <pt x="513" y="43" on="1"/>
        <pt x="509" y="0" on="1"/>
        <pt x="280" y="0" on="1"/>
        <pt x="284" y="43" on="1"/>
        <pt x="352" y="57" on="1"/>
        <pt x="352" y="76" on="1"/>
        <pt x="333" y="184" on="1"/>
        <pt x="129" y="184" on="1"/>
        <pt x="78" y="71" on="1"/>
        <pt x="78" y="57" on="1"/>
        <pt x="149" y="43" on="1"/>
        <pt x="144" y="0" on="1"/>
        <pt x="-53" y="0" on="1"/>
        <pt x="-47" y="43" on="1"/>
      </contour>
      <contour>
        <pt x="279" y="485" on="1"/>
        <pt x="276" y="511" on="1"/>
        <pt x="274" y="509" on="1"/>
        <pt x="263" y="483" on="1"/>
        <pt x="156" y="243" on="1"/>
        <pt x="322" y="243" on="1"/>
      </contour>
    </TTGlyph>
    <TTGlyph name="AE" xMin="-95" yMin="0" xMax="735" yMax="648">
      <contour>
        <pt x="-33" y="58" on="1"/>
        <pt x="357" y="648" on="1"/>
        <pt x="735" y="648" on="1"/>
        <pt x="711" y="484" on="1"/>
        <pt x="657" y="484" on="1"/>
        <pt x="657" y="595" on="1"/>
        <pt x="554" y="595" on="1"/>
        <pt x="481" y="590" on="1"/>
        <pt x="443" y="328" on="1"/>
        <pt x="569" y="328" on="1"/>
        <pt x="591" y="389" on="1"/>
        <pt x="634" y="389" on="1"/>
        <pt x="611" y="217" on="1"/>
        <pt x="569" y="217" on="1"/>
        <pt x="565" y="278" on="1"/>
        <pt x="436" y="278" on="1"/>
        <pt x="405" y="58" on="1"/>
        <pt x="456" y="53" on="0"/>
        <pt x="494" y="52" on="1"/>
        <pt x="594" y="52" on="1"/>
        <pt x="632" y="160" on="1"/>
        <pt x="680" y="160" on="1"/>
        <pt x="660" y="0" on="1"/>
        <pt x="233" y="0" on="1"/>
        <pt x="239" y="43" on="1"/>
        <pt x="310" y="57" on="1"/>
        <pt x="341" y="278" on="1"/>
        <pt x="180" y="278" on="1"/>
        <pt x="42" y="71" on="1"/>
        <pt x="42" y="57" on="1"/>
        <pt x="112" y="43" on="1"/>
        <pt x="107" y="0" on="1"/>
        <pt x="-95" y="0" on="1"/>
        <pt x="-89" y="43" on="1"/>
      </contour>
      <contour>
        <pt x="386" y="591" on="1"/>
        <pt x="381" y="591" on="1"/>
        <pt x="211" y="328" on="1"/>
        <pt x="348" y="328" on="1"/>
      </contour>
    </TTGlyph>
    <TTGlyph name="AEacute" xMin="-95" yMin="0" xMax="735" yMax="837">
      <component glyphName=".ttfautohint" x="0" y="0" flags="0x0"/>
      <component glyphName="AE" x="0" y="0" flags="0x0"/>
      <component glyphName="acutecomb.case" x="530" y="0" flags="0x0"/>
    </TTGlyph>
    <TTGlyph name="Aacute" xMin="-53" yMin="0" xMax="513" yMax="836">
      <component glyphName=".ttfautohint" x="0" y="0" flags="0x0"/>
      <component glyphName="A" x="0" y="0" flags="0x0"/>
      <component glyphName="acutecomb.case" x="344" y="-1" flags="0x4"/>
    </TTGlyph>
    <TTGlyph name="Abreve" xMin="-53" yMin="0" xMax="513" yMax="832">
      <contour>
        <pt x="455" y="777" on="0"/>
        <pt x="363" y="690" on="0"/>
        <pt x="291" y="690" on="1"/>
        <pt x="256" y="690" on="0"/>
        <pt x="200" y="719" on="0"/>
        <pt x="168" y="762" on="0"/>
        <pt x="168" y="783" on="1"/>
        <pt x="168" y="796" on="0"/>
        <pt x="198" y="820" on="0"/>
        <pt x="221" y="829" on="1"/>
        <pt x="234" y="804" on="0"/>
        <pt x="271" y="763" on="0"/>
        <pt x="306" y="763" on="1"/>
        <pt x="381" y="763" on="0"/>
        <pt x="450" y="832" on="1"/>
        <pt x="474" y="811" on="1"/>
      </contour>
      <contour>
        <pt x="9" y="58" on="1"/>
        <pt x="281" y="654" on="1"/>
        <pt x="338" y="654" on="1"/>
        <pt x="452" y="56" on="1"/>
        <pt x="513" y="43" on="1"/>
        <pt x="509" y="0" on="1"/>
        <pt x="280" y="0" on="1"/>
        <pt x="284" y="43" on="1"/>
        <pt x="352" y="57" on="1"/>
        <pt x="352" y="76" on="1"/>
        <pt x="333" y="184" on="1"/>
        <pt x="129" y="184" on="1"/>
        <pt x="78" y="71" on="1"/>
        <pt x="78" y="57" on="1"/>
        <pt x="149" y="43" on="1"/>
        <pt x="144" y="0" on="1"/>
        <pt x="-53" y="0" on="1"/>
        <pt x="-47" y="43" on="1"/>
      </contour>
      <contour>
        <pt x="279" y="485" on="1"/>
        <pt x="276" y="511" on="1"/>
        <pt x="274" y="509" on="1"/>
        <pt x="263" y="483" on="1"/>
        <pt x="156" y="243" on="1"/>
        <pt x="322" y="243" on="1"/>
      </contour>
    </TTGlyph>
    <TTGlyph name="Acircumflex" xMin="-53" yMin="0" xMax="513" yMax="835">
      <contour>
        <pt x="247" y="783" on="1"/>
        <pt x="266" y="798" on="1"/>
        <pt x="288" y="815" on="0"/>
        <pt x="316" y="835" on="0"/>
        <pt x="322" y="835" on="1"/>
        <pt x="331" y="835" on="0"/>
        <pt x="380" y="793" on="0"/>
        <pt x="383" y="790" on="1"/>
        <pt x="451" y="728" on="1"/>
        <pt x="417" y="685" on="1"/>
        <pt x="309" y="750" on="1"/>
        <pt x="196" y="689" on="1"/>
        <pt x="170" y="724" on="1"/>
      </contour>
      <contour>
        <pt x="9" y="58" on="1"/>
        <pt x="281" y="654" on="1"/>
        <pt x="338" y="654" on="1"/>
        <pt x="452" y="56" on="1"/>
        <pt x="513" y="43" on="1"/>
        <pt x="509" y="0" on="1"/>
        <pt x="280" y="0" on="1"/>
        <pt x="284" y="43" on="1"/>
        <pt x="352" y="57" on="1"/>
        <pt x="352" y="76" on="1"/>
        <pt x="333" y="184" on="1"/>
        <pt x="129" y="184" on="1"/>
        <pt x="78" y="71" on="1"/>
        <pt x="78" y="57" on="1"/>
        <pt x="149" y="43" on="1"/>
        <pt x="144" y="0" on="1"/>
        <pt x="-53" y="0" on="1"/>
        <pt x="-47" y="43" on="1"/>
      </contour>
      <contour>
        <pt x="279" y="485" on="1"/>
        <pt x="276" y="511" on="1"/>
        <pt x="274" y="509" on="1"/>
        <pt x="263" y="483" on="1"/>
        <pt x="156" y="243" on="1"/>
        <pt x="322" y="243" on="1"/>
      </contour>
    </TTGlyph>
    <TTGlyph name="Adieresis" xMin="-53" yMin="0" xMax="513" yMax="823">
      <contour>
        <pt x="179" y="698" on="0"/>
        <pt x="149" y="731" on="0"/>
        <pt x="149" y="757" on="1"/>
        <pt x="149" y="783" on="0"/>
        <pt x="182" y="823" on="0"/>
        <pt x="209" y="823" on="1"/>
        <pt x="234" y="823" on="0"/>
        <pt x="264" y="791" on="0"/>
        <pt x="264" y="765" on="1"/>
        <pt x="264" y="738" on="0"/>
        <pt x="231" y="698" on="0"/>
        <pt x="203" y="698" on="1"/>
      </contour>
      <contour>
        <pt x="393" y="698" on="0"/>
        <pt x="363" y="731" on="0"/>
        <pt x="363" y="757" on="1"/>
        <pt x="363" y="783" on="0"/>
        <pt x="397" y="823" on="0"/>
        <pt x="424" y="823" on="1"/>
        <pt x="448" y="823" on="0"/>
        <pt x="479" y="791" on="0"/>
        <pt x="479" y="765" on="1"/>
        <pt x="479" y="738" on="0"/>
        <pt x="446" y="698" on="0"/>
        <pt x="418" y="698" on="1"/>
      </contour>
      <contour>
        <pt x="9" y="58" on="1"/>
        <pt x="281" y="654" on="1"/>
        <pt x="338" y="654" on="1"/>
        <pt x="452" y="56" on="1"/>
        <pt x="513" y="43" on="1"/>
        <pt x="509" y="0" on="1"/>
        <pt x="280" y="0" on="1"/>
        <pt x="284" y="43" on="1"/>
        <pt x="352" y="57" on="1"/>
        <pt x="352" y="76" on="1"/>
        <pt x="333" y="184" on="1"/>
        <pt x="129" y="184" on="1"/>
        <pt x="78" y="71" on="1"/>
        <pt x="78" y="57" on="1"/>
        <pt x="149" y="43" on="1"/>
        <pt x="144" y="0" on="1"/>
        <pt x="-53" y="0" on="1"/>
        <pt x="-47" y="43" on="1"/>
      </contour>
      <contour>
        <pt x="279" y="485" on="1"/>
        <pt x="276" y="511" on="1"/>
        <pt x="274" y="509" on="1"/>
        <pt x="263" y="483" on="1"/>
        <pt x="156" y="243" on="1"/>
        <pt x="322" y="243" on="1"/>
      </contour>
    </TTGlyph>
    <TTGlyph name="Agrave" xMin="-53" yMin="0" xMax="513" yMax="837">
      <contour>
        <pt x="218" y="743" on="0"/>
        <pt x="195" y="766" on="0"/>
        <pt x="195" y="782" on="1"/>
        <pt x="195" y="800" on="0"/>
        <pt x="214" y="829" on="0"/>
        <pt x="230" y="837" on="1"/>
        <pt x="404" y="718" on="1"/>
        <pt x="382" y="679" on="1"/>
        <pt x="244" y="733" on="1"/>
      </contour>
      <contour>
        <pt x="9" y="58" on="1"/>
        <pt x="281" y="654" on="1"/>
        <pt x="338" y="654" on="1"/>
        <pt x="452" y="56" on="1"/>
        <pt x="513" y="43" on="1"/>
        <pt x="509" y="0" on="1"/>
        <pt x="280" y="0" on="1"/>
        <pt x="284" y="43" on="1"/>
        <pt x="352" y="57" on="1"/>
        <pt x="352" y="76" on="1"/>
        <pt x="333" y="184" on="1"/>
        <pt x="129" y="184" on="1"/>
        <pt x="78" y="71" on="1"/>
        <pt x="78" y="57" on="1"/>
        <pt x="149" y="43" on="1"/>
        <pt x="144" y="0" on="1"/>
        <pt x="-53" y="0" on="1"/>
        <pt x="-47" y="43" on="1"/>
      </contour>
      <contour>
        <pt x="279" y="485" on="1"/>
        <pt x="276" y="511" on="1"/>
        <pt x="274" y="509" on="1"/>
        <pt x="263" y="483" on="1"/>
        <pt x="156" y="243" on="1"/>
        <pt x="322" y="243" on="1"/>
      </contour>
    </TTGlyph>
    <TTGlyph name="Amacron" xMin="-53" yMin="0" xMax="513" yMax="787">
      <contour>
        <pt x="465" y="787" on="1"/>
        <pt x="457" y="718" on="1"/>
        <pt x="155" y="718" on="1"/>
        <pt x="163" y="787" on="1"/>
      </contour>
      <contour>
        <pt x="9" y="58" on="1"/>
        <pt x="281" y="654" on="1"/>
        <pt x="338" y="654" on="1"/>
        <pt x="452" y="56" on="1"/>
        <pt x="513" y="43" on="1"/>
        <pt x="509" y="0" on="1"/>
        <pt x="280" y="0" on="1"/>
        <pt x="284" y="43" on="1"/>
        <pt x="352" y="57" on="1"/>
        <pt x="352" y="76" on="1"/>
        <pt x="333" y="184" on="1"/>
        <pt x="129" y="184" on="1"/>
        <pt x="78" y="71" on="1"/>
        <pt x="78" y="57" on="1"/>
        <pt x="149" y="43" on="1"/>
        <pt x="144" y="0" on="1"/>
        <pt x="-53" y="0" on="1"/>
        <pt x="-47" y="43" on="1"/>
      </contour>
      <contour>
        <pt x="279" y="485" on="1"/>
        <pt x="276" y="511" on="1"/>
        <pt x="274" y="509" on="1"/>
        <pt x="263" y="483" on="1"/>
        <pt x="156" y="243" on="1"/>
        <pt x="322" y="243" on="1"/>
      </contour>
    </TTGlyph>
    <TTGlyph name="Aogonek" xMin="-53" yMin="-180" xMax="513" yMax="654">
      <contour>
        <pt x="360" y="-39" on="0"/>
        <pt x="360" y="-85" on="1"/>
        <pt x="360" y="-124" on="0"/>
        <pt x="399" y="-124" on="1"/>
        <pt x="421" y="-124" on="0"/>
        <pt x="454" y="-104" on="1"/>
        <pt x="473" y="-131" on="1"/>
        <pt x="473" y="-132" on="0"/>
        <pt x="442" y="-158" on="0"/>
        <pt x="394" y="-180" on="0"/>
        <pt x="366" y="-180" on="1"/>
        <pt x="285" y="-180" on="0"/>
        <pt x="285" y="-115" on="1"/>
        <pt x="285" y="-80" on="0"/>
        <pt x="327" y="-21" on="0"/>
        <pt x="362" y="0" on="1"/>
        <pt x="280" y="0" on="1"/>
        <pt x="284" y="43" on="1"/>
        <pt x="352" y="57" on="1"/>
        <pt x="352" y="76" on="1"/>
        <pt x="333" y="184" on="1"/>
        <pt x="129" y="184" on="1"/>
        <pt x="78" y="71" on="1"/>
        <pt x="78" y="57" on="1"/>
        <pt x="149" y="43" on="1"/>
        <pt x="144" y="0" on="1"/>
        <pt x="-53" y="0" on="1"/>
        <pt x="-47" y="43" on="1"/>
        <pt x="9" y="58" on="1"/>
        <pt x="281" y="654" on="1"/>
        <pt x="338" y="654" on="1"/>
        <pt x="452" y="56" on="1"/>
        <pt x="513" y="43" on="1"/>
        <pt x="509" y="0" on="1"/>
        <pt x="411" y="0" on="1"/>
      </contour>
      <contour>
        <pt x="322" y="243" on="1"/>
        <pt x="279" y="485" on="1"/>
        <pt x="276" y="511" on="1"/>
        <pt x="274" y="509" on="1"/>
        <pt x="263" y="483" on="1"/>
        <pt x="156" y="243" on="1"/>
      </contour>
    </TTGlyph>
    <TTGlyph name="Aring" xMin="-53" yMin="0" xMax="513" yMax="833">
      <contour>
        <pt x="265" y="662" on="0"/>
        <pt x="222" y="699" on="0"/>
        <pt x="222" y="733" on="1"/>
        <pt x="222" y="773" on="0"/>
        <pt x="278" y="833" on="0"/>
        <pt x="325" y="833" on="1"/>
        <pt x="367" y="833" on="0"/>
        <pt x="411" y="797" on="0"/>
        <pt x="411" y="763" on="1"/>
        <pt x="411" y="722" on="0"/>
        <pt x="356" y="662" on="0"/>
        <pt x="308" y="662" on="1"/>
      </contour>
      <contour>
        <pt x="335" y="707" on="0"/>
        <pt x="352" y="731" on="0"/>
        <pt x="352" y="758" on="1"/>
        <pt x="352" y="775" on="0"/>
        <pt x="334" y="788" on="0"/>
        <pt x="316" y="788" on="1"/>
        <pt x="296" y="788" on="0"/>
        <pt x="280" y="765" on="0"/>
        <pt x="280" y="739" on="1"/>
        <pt x="280" y="722" on="0"/>
        <pt x="297" y="707" on="0"/>
        <pt x="316" y="707" on="1"/>
      </contour>
      <contour>
        <pt x="9" y="58" on="1"/>
        <pt x="281" y="654" on="1"/>
        <pt x="338" y="654" on="1"/>
        <pt x="452" y="56" on="1"/>
        <pt x="513" y="43" on="1"/>
        <pt x="509" y="0" on="1"/>
        <pt x="280" y="0" on="1"/>
        <pt x="284" y="43" on="1"/>
        <pt x="352" y="57" on="1"/>
        <pt x="352" y="76" on="1"/>
        <pt x="333" y="184" on="1"/>
        <pt x="129" y="184" on="1"/>
        <pt x="78" y="71" on="1"/>
        <pt x="78" y="57" on="1"/>
        <pt x="149" y="43" on="1"/>
        <pt x="144" y="0" on="1"/>
        <pt x="-53" y="0" on="1"/>
        <pt x="-47" y="43" on="1"/>
      </contour>
      <contour>
        <pt x="279" y="485" on="1"/>
        <pt x="276" y="511" on="1"/>
        <pt x="274" y="509" on="1"/>
        <pt x="263" y="483" on="1"/>
        <pt x="156" y="243" on="1"/>
        <pt x="322" y="243" on="1"/>
      </contour>
    </TTGlyph>
    <TTGlyph name="Aringacute" xMin="-53" yMin="0" xMax="513" yMax="1022">
      <component glyphName=".ttfautohint" x="0" y="0" flags="0x0"/>
      <component glyphName="A" x="0" y="0" flags="0x0"/>
      <component glyphName="uni030A.case" x="354" y="0" flags="0x0"/>
      <component glyphName="acutecomb.case" x="422" y="185" flags="0x4"/>
    </TTGlyph>
    <TTGlyph name="Atilde" xMin="-53" yMin="0" xMax="513" yMax="820">
      <contour>
        <pt x="170" y="783" on="1"/>
        <pt x="199" y="820" on="0"/>
        <pt x="228" y="820" on="1"/>
        <pt x="252" y="820" on="0"/>
        <pt x="302" y="802" on="1"/>
        <pt x="379" y="775" on="1"/>
        <pt x="460" y="813" on="1"/>
        <pt x="485" y="785" on="1"/>
        <pt x="444" y="734" on="1"/>
        <pt x="414" y="697" on="0"/>
        <pt x="385" y="697" on="1"/>
        <pt x="363" y="697" on="0"/>
        <pt x="312" y="716" on="1"/>
        <pt x="234" y="743" on="1"/>
        <pt x="154" y="705" on="1"/>
        <pt x="129" y="733" on="1"/>
      </contour>
      <contour>
        <pt x="9" y="58" on="1"/>
        <pt x="281" y="654" on="1"/>
        <pt x="338" y="654" on="1"/>
        <pt x="452" y="56" on="1"/>
        <pt x="513" y="43" on="1"/>
        <pt x="509" y="0" on="1"/>
        <pt x="280" y="0" on="1"/>
        <pt x="284" y="43" on="1"/>
        <pt x="352" y="57" on="1"/>
        <pt x="352" y="76" on="1"/>
        <pt x="333" y="184" on="1"/>
        <pt x="129" y="184" on="1"/>
        <pt x="78" y="71" on="1"/>
        <pt x="78" y="57" on="1"/>
        <pt x="149" y="43" on="1"/>
        <pt x="144" y="0" on="1"/>
        <pt x="-53" y="0" on="1"/>
        <pt x="-47" y="43" on="1"/>
      </contour>
      <contour>
        <pt x="279" y="485" on="1"/>
        <pt x="276" y="511" on="1"/>
        <pt x="274" y="509" on="1"/>
        <pt x="263" y="483" on="1"/>
        <pt x="156" y="243" on="1"/>
        <pt x="322" y="243" on="1"/>
      </contour>
    </TTGlyph>
    <TTGlyph name="B" xMin="7" yMin="0" xMax="497" yMax="648">
      <contour>
        <pt x="84" y="57" on="1"/>
        <pt x="159" y="591" on="1"/>
        <pt x="90" y="605" on="1"/>
        <pt x="96" y="648" on="1"/>
        <pt x="301" y="648" on="1"/>
        <pt x="398" y="648" on="0"/>
        <pt x="497" y="581" on="0"/>
        <pt x="497" y="515" on="1"/>
        <pt x="497" y="457" on="0"/>
        <pt x="416" y="363" on="0"/>
        <pt x="344" y="338" on="1"/>
        <pt x="403" y="325" on="0"/>
        <pt x="477" y="262" on="0"/>
        <pt x="477" y="206" on="1"/>
        <pt x="477" y="149" on="0"/>
        <pt x="418" y="56" on="0"/>
        <pt x="305" y="0" on="0"/>
        <pt x="226" y="0" on="1"/>
        <pt x="7" y="0" on="1"/>
        <pt x="13" y="43" on="1"/>
      </contour>
      <contour>
        <pt x="398" y="373" on="0"/>
        <pt x="398" y="503" on="1"/>
        <pt x="398" y="553" on="0"/>
        <pt x="345" y="594" on="0"/>
        <pt x="293" y="594" on="1"/>
        <pt x="279" y="594" on="0"/>
        <pt x="257" y="591" on="0"/>
        <pt x="254" y="590" on="1"/>
        <pt x="220" y="354" on="1"/>
      </contour>
      <contour>
        <pt x="203" y="50" on="0"/>
        <pt x="234" y="50" on="1"/>
        <pt x="302" y="50" on="0"/>
        <pt x="371" y="124" on="0"/>
        <pt x="371" y="190" on="1"/>
        <pt x="371" y="249" on="0"/>
        <pt x="297" y="307" on="0"/>
        <pt x="214" y="309" on="1"/>
        <pt x="179" y="56" on="1"/>
      </contour>
    </TTGlyph>
    <TTGlyph name="C" xMin="40" yMin="-11" xMax="535" yMax="660">
      <contour>
        <pt x="483" y="179" on="1"/>
        <pt x="469" y="30" on="1"/>
        <pt x="379" y="-11" on="0"/>
        <pt x="275" y="-11" on="1"/>
        <pt x="40" y="-11" on="0"/>
        <pt x="40" y="244" on="1"/>
        <pt x="40" y="362" on="0"/>
        <pt x="123" y="551" on="0"/>
        <pt x="273" y="660" on="0"/>
        <pt x="369" y="660" on="1"/>
        <pt x="455" y="660" on="0"/>
        <pt x="535" y="640" on="1"/>
        <pt x="512" y="484" on="1"/>
        <pt x="462" y="484" on="1"/>
        <pt x="455" y="581" on="1"/>
        <pt x="438" y="591" on="0"/>
        <pt x="381" y="605" on="0"/>
        <pt x="351" y="605" on="1"/>
        <pt x="254" y="605" on="0"/>
        <pt x="148" y="428" on="0"/>
        <pt x="148" y="263" on="1"/>
        <pt x="148" y="146" on="0"/>
        <pt x="216" y="45" on="0"/>
        <pt x="296" y="45" on="1"/>
        <pt x="335" y="45" on="0"/>
        <pt x="390" y="65" on="0"/>
        <pt x="402" y="74" on="1"/>
        <pt x="433" y="179" on="1"/>
      </contour>
    </TTGlyph>
    <TTGlyph name="Cacute" xMin="40" yMin="-11" xMax="535" yMax="837">
      <contour>
        <pt x="271" y="718" on="1"/>
        <pt x="445" y="837" on="1"/>
        <pt x="461" y="829" on="0"/>
        <pt x="480" y="799" on="0"/>
        <pt x="480" y="783" on="1"/>
        <pt x="480" y="767" on="0"/>
        <pt x="457" y="744" on="0"/>
        <pt x="431" y="733" on="1"/>
        <pt x="293" y="679" on="1"/>
      </contour>
      <contour>
        <pt x="483" y="179" on="1"/>
        <pt x="469" y="30" on="1"/>
        <pt x="427" y="10" on="0"/>
        <pt x="325" y="-11" on="0"/>
        <pt x="275" y="-11" on="1"/>
        <pt x="158" y="-11" on="0"/>
        <pt x="40" y="117" on="0"/>
        <pt x="40" y="244" on="1"/>
        <pt x="40" y="363" on="0"/>
        <pt x="125" y="553" on="0"/>
        <pt x="275" y="660" on="0"/>
        <pt x="369" y="660" on="1"/>
        <pt x="461" y="660" on="0"/>
        <pt x="535" y="640" on="1"/>
        <pt x="512" y="484" on="1"/>
        <pt x="462" y="484" on="1"/>
        <pt x="455" y="581" on="1"/>
        <pt x="436" y="592" on="0"/>
        <pt x="380" y="605" on="0"/>
        <pt x="351" y="605" on="1"/>
        <pt x="253" y="605" on="0"/>
        <pt x="148" y="428" on="0"/>
        <pt x="148" y="263" on="1"/>
        <pt x="148" y="145" on="0"/>
        <pt x="216" y="45" on="0"/>
        <pt x="296" y="45" on="1"/>
        <pt x="327" y="45" on="0"/>
        <pt x="386" y="61" on="0"/>
        <pt x="402" y="74" on="1"/>
        <pt x="433" y="179" on="1"/>
      </contour>
    </TTGlyph>
    <TTGlyph name="Cacute.loclPLK" xMin="40" yMin="-11" xMax="535" yMax="856">
      <contour>
        <pt x="471" y="856" on="1"/>
        <pt x="494" y="853" on="0"/>
        <pt x="525" y="821" on="0"/>
        <pt x="525" y="802" on="1"/>
        <pt x="525" y="780" on="0"/>
        <pt x="493" y="754" on="1"/>
        <pt x="392" y="667" on="1"/>
        <pt x="356" y="700" on="1"/>
      </contour>
      <contour>
        <pt x="483" y="179" on="1"/>
        <pt x="469" y="30" on="1"/>
        <pt x="379" y="-11" on="0"/>
        <pt x="275" y="-11" on="1"/>
        <pt x="40" y="-11" on="0"/>
        <pt x="40" y="244" on="1"/>
        <pt x="40" y="362" on="0"/>
        <pt x="123" y="551" on="0"/>
        <pt x="273" y="660" on="0"/>
        <pt x="369" y="660" on="1"/>
        <pt x="455" y="660" on="0"/>
        <pt x="535" y="640" on="1"/>
        <pt x="512" y="484" on="1"/>
        <pt x="462" y="484" on="1"/>
        <pt x="455" y="581" on="1"/>
        <pt x="438" y="591" on="0"/>
        <pt x="381" y="605" on="0"/>
        <pt x="351" y="605" on="1"/>
        <pt x="254" y="605" on="0"/>
        <pt x="148" y="428" on="0"/>
        <pt x="148" y="263" on="1"/>
        <pt x="148" y="146" on="0"/>
        <pt x="216" y="45" on="0"/>
        <pt x="296" y="45" on="1"/>
        <pt x="335" y="45" on="0"/>
        <pt x="390" y="65" on="0"/>
        <pt x="402" y="74" on="1"/>
        <pt x="433" y="179" on="1"/>
      </contour>
    </TTGlyph>
    <TTGlyph name="Ccaron" xMin="40" yMin="-11" xMax="535" yMax="838">
      <contour>
        <pt x="274" y="836" on="1"/>
        <pt x="377" y="770" on="1"/>
        <pt x="485" y="838" on="1"/>
        <pt x="511" y="803" on="1"/>
        <pt x="438" y="738" on="1"/>
        <pt x="380" y="685" on="0"/>
        <pt x="363" y="685" on="1"/>
        <pt x="350" y="685" on="0"/>
        <pt x="305" y="730" on="1"/>
        <pt x="238" y="795" on="1"/>
      </contour>
      <contour>
        <pt x="483" y="179" on="1"/>
        <pt x="469" y="30" on="1"/>
        <pt x="379" y="-11" on="0"/>
        <pt x="275" y="-11" on="1"/>
        <pt x="40" y="-11" on="0"/>
        <pt x="40" y="244" on="1"/>
        <pt x="40" y="362" on="0"/>
        <pt x="123" y="551" on="0"/>
        <pt x="273" y="660" on="0"/>
        <pt x="369" y="660" on="1"/>
        <pt x="455" y="660" on="0"/>
        <pt x="535" y="640" on="1"/>
        <pt x="512" y="484" on="1"/>
        <pt x="462" y="484" on="1"/>
        <pt x="455" y="581" on="1"/>
        <pt x="438" y="591" on="0"/>
        <pt x="381" y="605" on="0"/>
        <pt x="351" y="605" on="1"/>
        <pt x="254" y="605" on="0"/>
        <pt x="148" y="428" on="0"/>
        <pt x="148" y="263" on="1"/>
        <pt x="148" y="146" on="0"/>
        <pt x="216" y="45" on="0"/>
        <pt x="296" y="45" on="1"/>
        <pt x="335" y="45" on="0"/>
        <pt x="390" y="65" on="0"/>
        <pt x="402" y="74" on="1"/>
        <pt x="433" y="179" on="1"/>
      </contour>
    </TTGlyph>
    <TTGlyph name="Ccedilla" xMin="40" yMin="-189" xMax="535" yMax="660">
      <contour>
        <pt x="205" y="-134" on="0"/>
        <pt x="233" y="-142" on="0"/>
        <pt x="256" y="-142" on="1"/>
        <pt x="293" y="-142" on="0"/>
        <pt x="293" y="-122" on="1"/>
        <pt x="293" y="-109" on="0"/>
        <pt x="270" y="-97" on="1"/>
        <pt x="219" y="-71" on="1"/>
        <pt x="219" y="-50" on="1"/>
        <pt x="247" y="-10" on="1"/>
        <pt x="40" y="5" on="0"/>
        <pt x="40" y="244" on="1"/>
        <pt x="40" y="362" on="0"/>
        <pt x="123" y="551" on="0"/>
        <pt x="273" y="660" on="0"/>
        <pt x="369" y="660" on="1"/>
        <pt x="455" y="660" on="0"/>
        <pt x="535" y="640" on="1"/>
        <pt x="512" y="484" on="1"/>
        <pt x="462" y="484" on="1"/>
        <pt x="455" y="581" on="1"/>
        <pt x="438" y="591" on="0"/>
        <pt x="381" y="605" on="0"/>
        <pt x="351" y="605" on="1"/>
        <pt x="254" y="605" on="0"/>
        <pt x="148" y="428" on="0"/>
        <pt x="148" y="263" on="1"/>
        <pt x="148" y="146" on="0"/>
        <pt x="216" y="45" on="0"/>
        <pt x="296" y="45" on="1"/>
        <pt x="335" y="45" on="0"/>
        <pt x="390" y="65" on="0"/>
        <pt x="402" y="74" on="1"/>
        <pt x="433" y="179" on="1"/>
        <pt x="483" y="179" on="1"/>
        <pt x="469" y="30" on="1"/>
        <pt x="391" y="-6" on="0"/>
        <pt x="297" y="-11" on="1"/>
        <pt x="297" y="-29" on="1"/>
        <pt x="331" y="-49" on="1"/>
        <pt x="369" y="-71" on="0"/>
        <pt x="369" y="-102" on="1"/>
        <pt x="369" y="-150" on="0"/>
        <pt x="308" y="-189" on="0"/>
        <pt x="264" y="-189" on="1"/>
        <pt x="210" y="-189" on="0"/>
        <pt x="170" y="-161" on="1"/>
        <pt x="192" y="-126" on="1"/>
      </contour>
    </TTGlyph>
    <TTGlyph name="Ccircumflex" xMin="40" yMin="-11" xMax="535" yMax="835">
      <component glyphName=".ttfautohint" x="40" y="0" flags="0x0"/>
      <component glyphName="C" x="0" y="0" flags="0x0"/>
      <component glyphName="uni0302.case" x="468" y="0" flags="0x0"/>
    </TTGlyph>
    <TTGlyph name="Cdotaccent" xMin="40" yMin="-11" xMax="535" yMax="821">
      <component glyphName=".ttfautohint" x="40" y="0" flags="0x0"/>
      <component glyphName="C" x="0" y="0" flags="0x0"/>
      <component glyphName="uni0307.case" x="383" y="0" flags="0x0"/>
    </TTGlyph>
    <TTGlyph name="D" xMin="7" yMin="0" xMax="602" yMax="648">
      <contour>
        <pt x="83" y="57" on="1"/>
        <pt x="158" y="591" on="1"/>
        <pt x="90" y="605" on="1"/>
        <pt x="95" y="648" on="1"/>
        <pt x="338" y="648" on="1"/>
        <pt x="465" y="648" on="0"/>
        <pt x="602" y="523" on="0"/>
        <pt x="602" y="407" on="1"/>
        <pt x="602" y="288" on="0"/>
        <pt x="510" y="103" on="0"/>
        <pt x="345" y="0" on="0"/>
        <pt x="239" y="0" on="1"/>
        <pt x="7" y="0" on="1"/>
        <pt x="12" y="43" on="1"/>
      </contour>
      <contour>
        <pt x="219" y="52" on="0"/>
        <pt x="249" y="52" on="1"/>
        <pt x="364" y="52" on="0"/>
        <pt x="493" y="223" on="0"/>
        <pt x="495" y="377" on="1"/>
        <pt x="495" y="493" on="0"/>
        <pt x="406" y="594" on="0"/>
        <pt x="303" y="594" on="1"/>
        <pt x="268" y="594" on="0"/>
        <pt x="254" y="592" on="1"/>
        <pt x="179" y="56" on="1"/>
      </contour>
    </TTGlyph>
    <TTGlyph name="Dcaron" xMin="3" yMin="0" xMax="598" yMax="838">
      <contour>
        <pt x="355" y="770" on="1"/>
        <pt x="463" y="838" on="1"/>
        <pt x="489" y="803" on="1"/>
        <pt x="416" y="738" on="1"/>
        <pt x="358" y="685" on="0"/>
        <pt x="341" y="685" on="1"/>
        <pt x="328" y="685" on="0"/>
        <pt x="283" y="730" on="1"/>
        <pt x="216" y="795" on="1"/>
        <pt x="252" y="836" on="1"/>
      </contour>
      <contour>
        <pt x="80" y="57" on="1"/>
        <pt x="155" y="591" on="1"/>
        <pt x="86" y="605" on="1"/>
        <pt x="91" y="648" on="1"/>
        <pt x="334" y="648" on="1"/>
        <pt x="461" y="648" on="0"/>
        <pt x="598" y="523" on="0"/>
        <pt x="598" y="407" on="1"/>
        <pt x="598" y="288" on="0"/>
        <pt x="506" y="103" on="0"/>
        <pt x="342" y="0" on="0"/>
        <pt x="236" y="0" on="1"/>
        <pt x="3" y="0" on="1"/>
        <pt x="9" y="43" on="1"/>
      </contour>
      <contour>
        <pt x="215" y="52" on="0"/>
        <pt x="246" y="52" on="1"/>
        <pt x="361" y="52" on="0"/>
        <pt x="491" y="223" on="0"/>
        <pt x="492" y="377" on="1"/>
        <pt x="492" y="492" on="0"/>
        <pt x="402" y="594" on="0"/>
        <pt x="300" y="594" on="1"/>
        <pt x="265" y="594" on="0"/>
        <pt x="251" y="592" on="1"/>
        <pt x="175" y="56" on="1"/>
      </contour>
    </TTGlyph>
    <TTGlyph name="Dcroat" xMin="3" yMin="0" xMax="598" yMax="648">
      <contour>
        <pt x="80" y="57" on="1"/>
        <pt x="114" y="307" on="1"/>
        <pt x="32" y="307" on="1"/>
        <pt x="41" y="364" on="1"/>
        <pt x="123" y="364" on="1"/>
        <pt x="155" y="591" on="1"/>
        <pt x="86" y="605" on="1"/>
        <pt x="91" y="648" on="1"/>
        <pt x="334" y="648" on="1"/>
        <pt x="462" y="648" on="0"/>
        <pt x="598" y="524" on="0"/>
        <pt x="598" y="407" on="1"/>
        <pt x="598" y="288" on="0"/>
        <pt x="506" y="103" on="0"/>
        <pt x="342" y="0" on="0"/>
        <pt x="236" y="0" on="1"/>
        <pt x="3" y="0" on="1"/>
        <pt x="9" y="43" on="1"/>
      </contour>
      <contour>
        <pt x="215" y="52" on="0"/>
        <pt x="246" y="52" on="1"/>
        <pt x="360" y="52" on="0"/>
        <pt x="491" y="222" on="0"/>
        <pt x="492" y="377" on="1"/>
        <pt x="492" y="495" on="0"/>
        <pt x="400" y="594" on="0"/>
        <pt x="300" y="594" on="1"/>
        <pt x="265" y="594" on="0"/>
        <pt x="251" y="592" on="1"/>
        <pt x="218" y="364" on="1"/>
        <pt x="357" y="364" on="1"/>
        <pt x="349" y="307" on="1"/>
        <pt x="210" y="307" on="1"/>
        <pt x="175" y="56" on="1"/>
      </contour>
    </TTGlyph>
    <TTGlyph name="E" xMin="7" yMin="0" xMax="508" yMax="648">
      <contour>
        <pt x="84" y="57" on="1"/>
        <pt x="159" y="591" on="1"/>
        <pt x="90" y="605" on="1"/>
        <pt x="96" y="648" on="1"/>
        <pt x="508" y="648" on="1"/>
        <pt x="485" y="484" on="1"/>
        <pt x="431" y="484" on="1"/>
        <pt x="431" y="595" on="1"/>
        <pt x="328" y="595" on="1"/>
        <pt x="255" y="590" on="1"/>
        <pt x="222" y="360" on="1"/>
        <pt x="348" y="360" on="1"/>
        <pt x="369" y="421" on="1"/>
        <pt x="412" y="421" on="1"/>
        <pt x="390" y="249" on="1"/>
        <pt x="347" y="249" on="1"/>
        <pt x="344" y="310" on="1"/>
        <pt x="215" y="310" on="1"/>
        <pt x="180" y="58" on="1"/>
        <pt x="208" y="54" on="0"/>
        <pt x="268" y="52" on="1"/>
        <pt x="368" y="52" on="1"/>
        <pt x="406" y="160" on="1"/>
        <pt x="454" y="160" on="1"/>
        <pt x="434" y="0" on="1"/>
        <pt x="7" y="0" on="1"/>
        <pt x="13" y="43" on="1"/>
      </contour>
    </TTGlyph>
    <TTGlyph name="Eacute" xMin="7" yMin="0" xMax="508" yMax="837">
      <contour>
        <pt x="226" y="718" on="1"/>
        <pt x="400" y="837" on="1"/>
        <pt x="416" y="829" on="0"/>
        <pt x="436" y="800" on="0"/>
        <pt x="436" y="783" on="1"/>
        <pt x="436" y="766" on="0"/>
        <pt x="413" y="743" on="0"/>
        <pt x="387" y="733" on="1"/>
        <pt x="249" y="679" on="1"/>
      </contour>
      <contour>
        <pt x="84" y="57" on="1"/>
        <pt x="159" y="591" on="1"/>
        <pt x="90" y="605" on="1"/>
        <pt x="96" y="648" on="1"/>
        <pt x="508" y="648" on="1"/>
        <pt x="485" y="484" on="1"/>
        <pt x="431" y="484" on="1"/>
        <pt x="431" y="595" on="1"/>
        <pt x="328" y="595" on="1"/>
        <pt x="255" y="590" on="1"/>
        <pt x="222" y="360" on="1"/>
        <pt x="348" y="360" on="1"/>
        <pt x="369" y="421" on="1"/>
        <pt x="412" y="421" on="1"/>
        <pt x="390" y="249" on="1"/>
        <pt x="347" y="249" on="1"/>
        <pt x="344" y="310" on="1"/>
        <pt x="215" y="310" on="1"/>
        <pt x="180" y="58" on="1"/>
        <pt x="208" y="54" on="0"/>
        <pt x="268" y="52" on="1"/>
        <pt x="368" y="52" on="1"/>
        <pt x="406" y="160" on="1"/>
        <pt x="454" y="160" on="1"/>
        <pt x="434" y="0" on="1"/>
        <pt x="7" y="0" on="1"/>
        <pt x="13" y="43" on="1"/>
      </contour>
    </TTGlyph>
    <TTGlyph name="Ebreve" xMin="7" yMin="0" xMax="508" yMax="832">
      <component glyphName=".ttfautohint" x="7" y="0" flags="0x0"/>
      <component glyphName="E" x="0" y="0" flags="0x0"/>
      <component glyphName="uni0306.case" x="406" y="0" flags="0x0"/>
    </TTGlyph>
    <TTGlyph name="Ecaron" xMin="7" yMin="0" xMax="508" yMax="839">
      <contour>
        <pt x="234" y="838" on="1"/>
        <pt x="336" y="771" on="1"/>
        <pt x="445" y="839" on="1"/>
        <pt x="470" y="804" on="1"/>
        <pt x="397" y="739" on="1"/>
        <pt x="339" y="686" on="0"/>
        <pt x="323" y="686" on="1"/>
        <pt x="310" y="686" on="0"/>
        <pt x="264" y="732" on="1"/>
        <pt x="197" y="797" on="1"/>
      </contour>
      <contour>
        <pt x="84" y="57" on="1"/>
        <pt x="159" y="591" on="1"/>
        <pt x="90" y="605" on="1"/>
        <pt x="96" y="648" on="1"/>
        <pt x="508" y="648" on="1"/>
        <pt x="485" y="484" on="1"/>
        <pt x="431" y="484" on="1"/>
        <pt x="431" y="595" on="1"/>
        <pt x="328" y="595" on="1"/>
        <pt x="255" y="590" on="1"/>
        <pt x="222" y="360" on="1"/>
        <pt x="348" y="360" on="1"/>
        <pt x="369" y="421" on="1"/>
        <pt x="412" y="421" on="1"/>
        <pt x="390" y="249" on="1"/>
        <pt x="347" y="249" on="1"/>
        <pt x="344" y="310" on="1"/>
        <pt x="215" y="310" on="1"/>
        <pt x="180" y="58" on="1"/>
        <pt x="208" y="54" on="0"/>
        <pt x="268" y="52" on="1"/>
        <pt x="368" y="52" on="1"/>
        <pt x="406" y="160" on="1"/>
        <pt x="454" y="160" on="1"/>
        <pt x="434" y="0" on="1"/>
        <pt x="7" y="0" on="1"/>
        <pt x="13" y="43" on="1"/>
      </contour>
    </TTGlyph>
    <TTGlyph name="Ecircumflex" xMin="7" yMin="0" xMax="508" yMax="835">
      <contour>
        <pt x="266" y="783" on="1"/>
        <pt x="285" y="798" on="1"/>
        <pt x="307" y="815" on="0"/>
        <pt x="335" y="835" on="0"/>
        <pt x="341" y="835" on="1"/>
        <pt x="350" y="835" on="0"/>
        <pt x="399" y="793" on="0"/>
        <pt x="402" y="790" on="1"/>
        <pt x="470" y="728" on="1"/>
        <pt x="435" y="685" on="1"/>
        <pt x="327" y="750" on="1"/>
        <pt x="215" y="689" on="1"/>
        <pt x="189" y="724" on="1"/>
      </contour>
      <contour>
        <pt x="84" y="57" on="1"/>
        <pt x="159" y="591" on="1"/>
        <pt x="90" y="605" on="1"/>
        <pt x="96" y="648" on="1"/>
        <pt x="508" y="648" on="1"/>
        <pt x="485" y="484" on="1"/>
        <pt x="431" y="484" on="1"/>
        <pt x="431" y="595" on="1"/>
        <pt x="328" y="595" on="1"/>
        <pt x="255" y="590" on="1"/>
        <pt x="222" y="360" on="1"/>
        <pt x="348" y="360" on="1"/>
        <pt x="369" y="421" on="1"/>
        <pt x="412" y="421" on="1"/>
        <pt x="390" y="249" on="1"/>
        <pt x="347" y="249" on="1"/>
        <pt x="344" y="310" on="1"/>
        <pt x="215" y="310" on="1"/>
        <pt x="180" y="58" on="1"/>
        <pt x="208" y="54" on="0"/>
        <pt x="268" y="52" on="1"/>
        <pt x="368" y="52" on="1"/>
        <pt x="406" y="160" on="1"/>
        <pt x="454" y="160" on="1"/>
        <pt x="434" y="0" on="1"/>
        <pt x="7" y="0" on="1"/>
        <pt x="13" y="43" on="1"/>
      </contour>
    </TTGlyph>
    <TTGlyph name="Edieresis" xMin="7" yMin="0" xMax="508" yMax="816">
      <contour>
        <pt x="195" y="691" on="0"/>
        <pt x="165" y="724" on="0"/>
        <pt x="165" y="750" on="1"/>
        <pt x="165" y="776" on="0"/>
        <pt x="198" y="816" on="0"/>
        <pt x="225" y="816" on="1"/>
        <pt x="250" y="816" on="0"/>
        <pt x="280" y="784" on="0"/>
        <pt x="280" y="758" on="1"/>
        <pt x="280" y="730" on="0"/>
        <pt x="248" y="691" on="0"/>
        <pt x="219" y="691" on="1"/>
      </contour>
      <contour>
        <pt x="409" y="691" on="0"/>
        <pt x="379" y="724" on="0"/>
        <pt x="379" y="750" on="1"/>
        <pt x="379" y="776" on="0"/>
        <pt x="413" y="816" on="0"/>
        <pt x="440" y="816" on="1"/>
        <pt x="465" y="816" on="0"/>
        <pt x="495" y="784" on="0"/>
        <pt x="495" y="758" on="1"/>
        <pt x="495" y="730" on="0"/>
        <pt x="462" y="691" on="0"/>
        <pt x="434" y="691" on="1"/>
      </contour>
      <contour>
        <pt x="84" y="57" on="1"/>
        <pt x="159" y="591" on="1"/>
        <pt x="90" y="605" on="1"/>
        <pt x="96" y="648" on="1"/>
        <pt x="508" y="648" on="1"/>
        <pt x="485" y="484" on="1"/>
        <pt x="431" y="484" on="1"/>
        <pt x="431" y="595" on="1"/>
        <pt x="328" y="595" on="1"/>
        <pt x="255" y="590" on="1"/>
        <pt x="222" y="360" on="1"/>
        <pt x="348" y="360" on="1"/>
        <pt x="369" y="421" on="1"/>
        <pt x="412" y="421" on="1"/>
        <pt x="390" y="249" on="1"/>
        <pt x="347" y="249" on="1"/>
        <pt x="344" y="310" on="1"/>
        <pt x="215" y="310" on="1"/>
        <pt x="180" y="58" on="1"/>
        <pt x="208" y="54" on="0"/>
        <pt x="268" y="52" on="1"/>
        <pt x="368" y="52" on="1"/>
        <pt x="406" y="160" on="1"/>
        <pt x="454" y="160" on="1"/>
        <pt x="434" y="0" on="1"/>
        <pt x="7" y="0" on="1"/>
        <pt x="13" y="43" on="1"/>
      </contour>
    </TTGlyph>
    <TTGlyph name="Edotaccent" xMin="7" yMin="0" xMax="508" yMax="821">
      <contour>
        <pt x="301" y="694" on="0"/>
        <pt x="270" y="726" on="0"/>
        <pt x="270" y="750" on="1"/>
        <pt x="270" y="778" on="0"/>
        <pt x="304" y="821" on="0"/>
        <pt x="335" y="821" on="1"/>
        <pt x="360" y="821" on="0"/>
        <pt x="392" y="790" on="0"/>
        <pt x="392" y="763" on="1"/>
        <pt x="392" y="735" on="0"/>
        <pt x="357" y="694" on="0"/>
        <pt x="326" y="694" on="1"/>
      </contour>
      <contour>
        <pt x="84" y="57" on="1"/>
        <pt x="159" y="591" on="1"/>
        <pt x="90" y="605" on="1"/>
        <pt x="96" y="648" on="1"/>
        <pt x="508" y="648" on="1"/>
        <pt x="485" y="484" on="1"/>
        <pt x="431" y="484" on="1"/>
        <pt x="431" y="595" on="1"/>
        <pt x="328" y="595" on="1"/>
        <pt x="255" y="590" on="1"/>
        <pt x="222" y="360" on="1"/>
        <pt x="348" y="360" on="1"/>
        <pt x="369" y="421" on="1"/>
        <pt x="412" y="421" on="1"/>
        <pt x="390" y="249" on="1"/>
        <pt x="347" y="249" on="1"/>
        <pt x="344" y="310" on="1"/>
        <pt x="215" y="310" on="1"/>
        <pt x="180" y="58" on="1"/>
        <pt x="208" y="54" on="0"/>
        <pt x="268" y="52" on="1"/>
        <pt x="368" y="52" on="1"/>
        <pt x="406" y="160" on="1"/>
        <pt x="454" y="160" on="1"/>
        <pt x="434" y="0" on="1"/>
        <pt x="7" y="0" on="1"/>
        <pt x="13" y="43" on="1"/>
      </contour>
    </TTGlyph>
    <TTGlyph name="Egrave" xMin="7" yMin="0" xMax="508" yMax="837">
      <contour>
        <pt x="222" y="743" on="0"/>
        <pt x="200" y="766" on="0"/>
        <pt x="200" y="782" on="1"/>
        <pt x="200" y="800" on="0"/>
        <pt x="219" y="829" on="0"/>
        <pt x="235" y="837" on="1"/>
        <pt x="409" y="718" on="1"/>
        <pt x="386" y="679" on="1"/>
        <pt x="248" y="733" on="1"/>
      </contour>
      <contour>
        <pt x="84" y="57" on="1"/>
        <pt x="159" y="591" on="1"/>
        <pt x="90" y="605" on="1"/>
        <pt x="96" y="648" on="1"/>
        <pt x="508" y="648" on="1"/>
        <pt x="485" y="484" on="1"/>
        <pt x="431" y="484" on="1"/>
        <pt x="431" y="595" on="1"/>
        <pt x="328" y="595" on="1"/>
        <pt x="255" y="590" on="1"/>
        <pt x="222" y="360" on="1"/>
        <pt x="348" y="360" on="1"/>
        <pt x="369" y="421" on="1"/>
        <pt x="412" y="421" on="1"/>
        <pt x="390" y="249" on="1"/>
        <pt x="347" y="249" on="1"/>
        <pt x="344" y="310" on="1"/>
        <pt x="215" y="310" on="1"/>
        <pt x="180" y="58" on="1"/>
        <pt x="208" y="54" on="0"/>
        <pt x="268" y="52" on="1"/>
        <pt x="368" y="52" on="1"/>
        <pt x="406" y="160" on="1"/>
        <pt x="454" y="160" on="1"/>
        <pt x="434" y="0" on="1"/>
        <pt x="7" y="0" on="1"/>
        <pt x="13" y="43" on="1"/>
      </contour>
    </TTGlyph>
    <TTGlyph name="Emacron" xMin="7" yMin="0" xMax="508" yMax="787">
      <contour>
        <pt x="487" y="787" on="1"/>
        <pt x="478" y="718" on="1"/>
        <pt x="176" y="718" on="1"/>
        <pt x="184" y="787" on="1"/>
      </contour>
      <contour>
        <pt x="84" y="57" on="1"/>
        <pt x="159" y="591" on="1"/>
        <pt x="90" y="605" on="1"/>
        <pt x="96" y="648" on="1"/>
        <pt x="508" y="648" on="1"/>
        <pt x="485" y="484" on="1"/>
        <pt x="431" y="484" on="1"/>
        <pt x="431" y="595" on="1"/>
        <pt x="328" y="595" on="1"/>
        <pt x="255" y="590" on="1"/>
        <pt x="222" y="360" on="1"/>
        <pt x="348" y="360" on="1"/>
        <pt x="369" y="421" on="1"/>
        <pt x="412" y="421" on="1"/>
        <pt x="390" y="249" on="1"/>
        <pt x="347" y="249" on="1"/>
        <pt x="344" y="310" on="1"/>
        <pt x="215" y="310" on="1"/>
        <pt x="180" y="58" on="1"/>
        <pt x="208" y="54" on="0"/>
        <pt x="268" y="52" on="1"/>
        <pt x="368" y="52" on="1"/>
        <pt x="406" y="160" on="1"/>
        <pt x="454" y="160" on="1"/>
        <pt x="434" y="0" on="1"/>
        <pt x="7" y="0" on="1"/>
        <pt x="13" y="43" on="1"/>
      </contour>
    </TTGlyph>
    <TTGlyph name="Eng" xMin="6" yMin="-168" xMax="662" yMax="648">
      <contour>
        <pt x="662" y="648" on="1"/>
        <pt x="657" y="605" on="1"/>
        <pt x="586" y="591" on="1"/>
        <pt x="509" y="39" on="1"/>
        <pt x="500" y="-26" on="0"/>
        <pt x="437" y="-119" on="0"/>
        <pt x="344" y="-168" on="0"/>
        <pt x="289" y="-168" on="1"/>
        <pt x="263" y="-168" on="0"/>
        <pt x="240" y="-150" on="0"/>
        <pt x="240" y="-127" on="1"/>
        <pt x="240" y="-104" on="0"/>
        <pt x="254" y="-86" on="0"/>
        <pt x="254" y="-85" on="1"/>
        <pt x="327" y="-85" on="1"/>
        <pt x="347" y="-85" on="0"/>
        <pt x="378" y="-78" on="0"/>
        <pt x="382" y="-74" on="1"/>
        <pt x="406" y="-47" on="0"/>
        <pt x="415" y="7" on="1"/>
        <pt x="218" y="486" on="1"/>
        <pt x="213" y="502" on="1"/>
        <pt x="208" y="502" on="1"/>
        <pt x="145" y="57" on="1"/>
        <pt x="214" y="43" on="1"/>
        <pt x="210" y="0" on="1"/>
        <pt x="6" y="0" on="1"/>
        <pt x="11" y="43" on="1"/>
        <pt x="82" y="57" on="1"/>
        <pt x="157" y="591" on="1"/>
        <pt x="89" y="605" on="1"/>
        <pt x="94" y="648" on="1"/>
        <pt x="253" y="648" on="1"/>
        <pt x="448" y="167" on="1"/>
        <pt x="456" y="144" on="1"/>
        <pt x="461" y="144" on="1"/>
        <pt x="464" y="167" on="1"/>
        <pt x="524" y="591" on="1"/>
        <pt x="455" y="605" on="1"/>
        <pt x="459" y="648" on="1"/>
      </contour>
    </TTGlyph>
    <TTGlyph name="Eogonek" xMin="7" yMin="-180" xMax="508" yMax="648">
      <contour>
        <pt x="431" y="484" on="1"/>
        <pt x="431" y="595" on="1"/>
        <pt x="328" y="595" on="1"/>
        <pt x="255" y="590" on="1"/>
        <pt x="222" y="360" on="1"/>
        <pt x="348" y="360" on="1"/>
        <pt x="369" y="421" on="1"/>
        <pt x="412" y="421" on="1"/>
        <pt x="390" y="249" on="1"/>
        <pt x="347" y="249" on="1"/>
        <pt x="344" y="310" on="1"/>
        <pt x="215" y="310" on="1"/>
        <pt x="180" y="58" on="1"/>
        <pt x="208" y="54" on="0"/>
        <pt x="268" y="52" on="1"/>
        <pt x="368" y="52" on="1"/>
        <pt x="406" y="160" on="1"/>
        <pt x="454" y="160" on="1"/>
        <pt x="434" y="0" on="1"/>
        <pt x="404" y="0" on="1"/>
        <pt x="353" y="-39" on="0"/>
        <pt x="353" y="-85" on="1"/>
        <pt x="353" y="-124" on="0"/>
        <pt x="392" y="-124" on="1"/>
        <pt x="414" y="-124" on="0"/>
        <pt x="447" y="-104" on="1"/>
        <pt x="466" y="-131" on="1"/>
        <pt x="466" y="-132" on="0"/>
        <pt x="435" y="-158" on="0"/>
        <pt x="388" y="-180" on="0"/>
        <pt x="360" y="-180" on="1"/>
        <pt x="278" y="-180" on="0"/>
        <pt x="278" y="-115" on="1"/>
        <pt x="278" y="-80" on="0"/>
        <pt x="320" y="-21" on="0"/>
        <pt x="355" y="0" on="1"/>
        <pt x="7" y="0" on="1"/>
        <pt x="13" y="43" on="1"/>
        <pt x="84" y="57" on="1"/>
        <pt x="159" y="591" on="1"/>
        <pt x="90" y="605" on="1"/>
        <pt x="96" y="648" on="1"/>
        <pt x="508" y="648" on="1"/>
        <pt x="485" y="484" on="1"/>
      </contour>
    </TTGlyph>
    <TTGlyph name="Eth" xMin="6" yMin="0" xMax="601" yMax="648">
      <contour>
        <pt x="82" y="57" on="1"/>
        <pt x="117" y="307" on="1"/>
        <pt x="35" y="307" on="1"/>
        <pt x="44" y="364" on="1"/>
        <pt x="125" y="364" on="1"/>
        <pt x="157" y="591" on="1"/>
        <pt x="89" y="605" on="1"/>
        <pt x="94" y="648" on="1"/>
        <pt x="337" y="648" on="1"/>
        <pt x="464" y="648" on="0"/>
        <pt x="601" y="524" on="0"/>
        <pt x="601" y="407" on="1"/>
        <pt x="601" y="288" on="0"/>
        <pt x="509" y="103" on="0"/>
        <pt x="345" y="0" on="0"/>
        <pt x="239" y="0" on="1"/>
        <pt x="6" y="0" on="1"/>
        <pt x="11" y="43" on="1"/>
      </contour>
      <contour>
        <pt x="218" y="52" on="0"/>
        <pt x="249" y="52" on="1"/>
        <pt x="362" y="52" on="0"/>
        <pt x="493" y="222" on="0"/>
        <pt x="495" y="377" on="1"/>
        <pt x="495" y="496" on="0"/>
        <pt x="402" y="594" on="0"/>
        <pt x="302" y="594" on="1"/>
        <pt x="267" y="594" on="0"/>
        <pt x="253" y="592" on="1"/>
        <pt x="221" y="364" on="1"/>
        <pt x="360" y="364" on="1"/>
        <pt x="351" y="307" on="1"/>
        <pt x="213" y="307" on="1"/>
        <pt x="178" y="56" on="1"/>
      </contour>
    </TTGlyph>
    <TTGlyph name="Euro" xMin="2" yMin="-11" xMax="533" yMax="660">
      <contour>
        <pt x="422" y="660" on="0"/>
        <pt x="505" y="648" on="0"/>
        <pt x="533" y="640" on="1"/>
        <pt x="510" y="484" on="1"/>
        <pt x="459" y="484" on="1"/>
        <pt x="453" y="581" on="1"/>
        <pt x="438" y="591" on="0"/>
        <pt x="388" y="605" on="0"/>
        <pt x="363" y="605" on="1"/>
        <pt x="293" y="605" on="0"/>
        <pt x="209" y="497" on="0"/>
        <pt x="190" y="408" on="1"/>
        <pt x="389" y="408" on="1"/>
        <pt x="360" y="345" on="1"/>
        <pt x="17" y="345" on="1"/>
        <pt x="46" y="408" on="1"/>
        <pt x="96" y="408" on="1"/>
        <pt x="130" y="526" on="0"/>
        <pt x="275" y="660" on="0"/>
        <pt x="389" y="660" on="1"/>
      </contour>
      <contour>
        <pt x="427" y="179" on="1"/>
        <pt x="477" y="179" on="1"/>
        <pt x="462" y="30" on="1"/>
        <pt x="428" y="13" on="0"/>
        <pt x="335" y="-11" on="0"/>
        <pt x="290" y="-11" on="1"/>
        <pt x="190" y="-11" on="0"/>
        <pt x="81" y="120" on="0"/>
        <pt x="76" y="234" on="1"/>
        <pt x="2" y="234" on="1"/>
        <pt x="31" y="297" on="1"/>
        <pt x="342" y="297" on="1"/>
        <pt x="313" y="234" on="1"/>
        <pt x="175" y="234" on="1"/>
        <pt x="184" y="45" on="0"/>
        <pt x="305" y="45" on="1"/>
        <pt x="329" y="45" on="0"/>
        <pt x="377" y="60" on="0"/>
        <pt x="395" y="74" on="1"/>
      </contour>
    </TTGlyph>
    <TTGlyph name="Euro.osf" xMin="8" yMin="-11" xMax="530" yMax="532">
      <contour>
        <pt x="110" y="341" on="1"/>
        <pt x="140" y="427" on="0"/>
        <pt x="275" y="532" on="0"/>
        <pt x="373" y="532" on="1"/>
        <pt x="428" y="532" on="0"/>
        <pt x="495" y="518" on="0"/>
        <pt x="530" y="504" on="1"/>
        <pt x="513" y="365" on="1"/>
        <pt x="463" y="365" on="1"/>
        <pt x="456" y="456" on="1"/>
        <pt x="454" y="456" on="0"/>
        <pt x="411" y="469" on="0"/>
        <pt x="369" y="469" on="1"/>
        <pt x="299" y="469" on="0"/>
        <pt x="222" y="408" on="0"/>
        <pt x="205" y="341" on="1"/>
        <pt x="399" y="341" on="1"/>
        <pt x="370" y="278" on="1"/>
        <pt x="52" y="278" on="1"/>
        <pt x="81" y="341" on="1"/>
      </contour>
      <contour>
        <pt x="348" y="230" on="1"/>
        <pt x="319" y="167" on="1"/>
        <pt x="189" y="167" on="1"/>
        <pt x="189" y="103" on="0"/>
        <pt x="256" y="50" on="0"/>
        <pt x="316" y="50" on="1"/>
        <pt x="354" y="50" on="0"/>
        <pt x="407" y="67" on="0"/>
        <pt x="415" y="73" on="1"/>
        <pt x="445" y="167" on="1"/>
        <pt x="495" y="167" on="1"/>
        <pt x="477" y="25" on="1"/>
        <pt x="435" y="9" on="0"/>
        <pt x="355" y="-11" on="0"/>
        <pt x="295" y="-11" on="1"/>
        <pt x="192" y="-11" on="0"/>
        <pt x="87" y="72" on="0"/>
        <pt x="86" y="167" on="1"/>
        <pt x="8" y="167" on="1"/>
        <pt x="37" y="230" on="1"/>
      </contour>
    </TTGlyph>
    <TTGlyph name="F" xMin="7" yMin="0" xMax="515" yMax="648">
      <contour>
        <pt x="84" y="57" on="1"/>
        <pt x="159" y="591" on="1"/>
        <pt x="90" y="605" on="1"/>
        <pt x="96" y="648" on="1"/>
        <pt x="515" y="648" on="1"/>
        <pt x="490" y="489" on="1"/>
        <pt x="435" y="489" on="1"/>
        <pt x="435" y="592" on="1"/>
        <pt x="331" y="592" on="1"/>
        <pt x="254" y="585" on="1"/>
        <pt x="219" y="341" on="1"/>
        <pt x="358" y="341" on="1"/>
        <pt x="377" y="402" on="1"/>
        <pt x="420" y="402" on="1"/>
        <pt x="394" y="222" on="1"/>
        <pt x="353" y="222" on="1"/>
        <pt x="350" y="285" on="1"/>
        <pt x="212" y="285" on="1"/>
        <pt x="179" y="57" on="1"/>
        <pt x="276" y="43" on="1"/>
        <pt x="272" y="0" on="1"/>
        <pt x="7" y="0" on="1"/>
        <pt x="13" y="43" on="1"/>
      </contour>
    </TTGlyph>
    <TTGlyph name="G" xMin="43" yMin="-11" xMax="542" yMax="660">
      <contour>
        <pt x="400" y="26" on="1"/>
        <pt x="397" y="24" on="0"/>
        <pt x="362" y="2" on="0"/>
        <pt x="303" y="-11" on="0"/>
        <pt x="265" y="-11" on="1"/>
        <pt x="159" y="-11" on="0"/>
        <pt x="43" y="116" on="0"/>
        <pt x="43" y="241" on="1"/>
        <pt x="43" y="352" on="0"/>
        <pt x="119" y="544" on="0"/>
        <pt x="268" y="660" on="0"/>
        <pt x="370" y="660" on="1"/>
        <pt x="450" y="660" on="0"/>
        <pt x="540" y="639" on="0"/>
        <pt x="542" y="639" on="1"/>
        <pt x="520" y="483" on="1"/>
        <pt x="470" y="483" on="1"/>
        <pt x="464" y="576" on="1"/>
        <pt x="449" y="585" on="0"/>
        <pt x="390" y="605" on="0"/>
        <pt x="349" y="605" on="1"/>
        <pt x="259" y="605" on="0"/>
        <pt x="150" y="433" on="0"/>
        <pt x="150" y="256" on="1"/>
        <pt x="150" y="144" on="0"/>
        <pt x="218" y="44" on="0"/>
        <pt x="292" y="44" on="1"/>
        <pt x="326" y="44" on="0"/>
        <pt x="372" y="60" on="0"/>
        <pt x="400" y="74" on="1"/>
        <pt x="426" y="260" on="1"/>
        <pt x="320" y="278" on="1"/>
        <pt x="325" y="325" on="1"/>
        <pt x="521" y="325" on="1"/>
        <pt x="478" y="0" on="1"/>
        <pt x="428" y="0" on="1"/>
        <pt x="408" y="26" on="1"/>
      </contour>
    </TTGlyph>
    <TTGlyph name="G_tilde.loclGUA" xMin="43" yMin="-11" xMax="573" yMax="820">
      <component glyphName=".ttfautohint" x="43" y="0" flags="0x0"/>
      <component glyphName="G" x="0" y="0" flags="0x0"/>
      <component glyphName="tildecomb.case" x="498" y="0" flags="0x0"/>
    </TTGlyph>
    <TTGlyph name="Gbreve" xMin="37" yMin="-11" xMax="536" yMax="832">
      <contour>
        <pt x="513" y="784" on="0"/>
        <pt x="478" y="741" on="0"/>
        <pt x="398" y="690" on="0"/>
        <pt x="347" y="690" on="1"/>
        <pt x="312" y="690" on="0"/>
        <pt x="256" y="719" on="0"/>
        <pt x="224" y="762" on="0"/>
        <pt x="224" y="783" on="1"/>
        <pt x="224" y="795" on="0"/>
        <pt x="255" y="820" on="0"/>
        <pt x="277" y="829" on="1"/>
        <pt x="290" y="804" on="0"/>
        <pt x="327" y="763" on="0"/>
        <pt x="362" y="763" on="1"/>
        <pt x="412" y="763" on="0"/>
        <pt x="485" y="809" on="0"/>
        <pt x="506" y="832" on="1"/>
        <pt x="531" y="811" on="1"/>
      </contour>
      <contour>
        <pt x="395" y="26" on="1"/>
        <pt x="366" y="8" on="0"/>
        <pt x="312" y="-11" on="0"/>
        <pt x="259" y="-11" on="1"/>
        <pt x="153" y="-11" on="0"/>
        <pt x="37" y="116" on="0"/>
        <pt x="37" y="241" on="1"/>
        <pt x="37" y="352" on="0"/>
        <pt x="113" y="544" on="0"/>
        <pt x="262" y="660" on="0"/>
        <pt x="364" y="660" on="1"/>
        <pt x="421" y="660" on="0"/>
        <pt x="499" y="647" on="0"/>
        <pt x="536" y="639" on="1"/>
        <pt x="514" y="483" on="1"/>
        <pt x="464" y="483" on="1"/>
        <pt x="458" y="576" on="1"/>
        <pt x="443" y="585" on="0"/>
        <pt x="384" y="605" on="0"/>
        <pt x="343" y="605" on="1"/>
        <pt x="253" y="605" on="0"/>
        <pt x="145" y="433" on="0"/>
        <pt x="145" y="256" on="1"/>
        <pt x="145" y="144" on="0"/>
        <pt x="213" y="44" on="0"/>
        <pt x="287" y="44" on="1"/>
        <pt x="321" y="44" on="0"/>
        <pt x="368" y="60" on="0"/>
        <pt x="394" y="74" on="1"/>
        <pt x="421" y="260" on="1"/>
        <pt x="314" y="278" on="1"/>
        <pt x="319" y="325" on="1"/>
        <pt x="515" y="325" on="1"/>
        <pt x="472" y="0" on="1"/>
        <pt x="423" y="0" on="1"/>
        <pt x="402" y="26" on="1"/>
      </contour>
    </TTGlyph>
    <TTGlyph name="Gcaron" xMin="43" yMin="-11" xMax="542" yMax="838">
      <component glyphName=".ttfautohint" x="43" y="0" flags="0x0"/>
      <component glyphName="G" x="0" y="0" flags="0x0"/>
      <component glyphName="uni030C.case" x="454" y="0" flags="0x0"/>
    </TTGlyph>
    <TTGlyph name="Gcircumflex" xMin="43" yMin="-11" xMax="542" yMax="835">
      <component glyphName=".ttfautohint" x="43" y="0" flags="0x0"/>
      <component glyphName="G" x="0" y="0" flags="0x0"/>
      <component glyphName="uni0302.case" x="470" y="0" flags="0x0"/>
    </TTGlyph>
    <TTGlyph name="Gcommaaccent" xMin="37" yMin="-205" xMax="536" yMax="660">
      <contour>
        <pt x="395" y="26" on="1"/>
        <pt x="366" y="8" on="0"/>
        <pt x="312" y="-11" on="0"/>
        <pt x="259" y="-11" on="1"/>
        <pt x="153" y="-11" on="0"/>
        <pt x="37" y="116" on="0"/>
        <pt x="37" y="241" on="1"/>
        <pt x="37" y="352" on="0"/>
        <pt x="113" y="544" on="0"/>
        <pt x="262" y="660" on="0"/>
        <pt x="364" y="660" on="1"/>
        <pt x="421" y="660" on="0"/>
        <pt x="499" y="647" on="0"/>
        <pt x="536" y="639" on="1"/>
        <pt x="514" y="483" on="1"/>
        <pt x="464" y="483" on="1"/>
        <pt x="458" y="576" on="1"/>
        <pt x="443" y="585" on="0"/>
        <pt x="384" y="605" on="0"/>
        <pt x="343" y="605" on="1"/>
        <pt x="253" y="605" on="0"/>
        <pt x="145" y="433" on="0"/>
        <pt x="145" y="256" on="1"/>
        <pt x="145" y="144" on="0"/>
        <pt x="213" y="44" on="0"/>
        <pt x="287" y="44" on="1"/>
        <pt x="321" y="44" on="0"/>
        <pt x="368" y="60" on="0"/>
        <pt x="394" y="74" on="1"/>
        <pt x="421" y="260" on="1"/>
        <pt x="314" y="278" on="1"/>
        <pt x="319" y="325" on="1"/>
        <pt x="515" y="325" on="1"/>
        <pt x="472" y="0" on="1"/>
        <pt x="423" y="0" on="1"/>
        <pt x="402" y="26" on="1"/>
      </contour>
      <contour>
        <pt x="208" y="-182" on="0"/>
        <pt x="226" y="-162" on="0"/>
        <pt x="242" y="-129" on="0"/>
        <pt x="242" y="-111" on="1"/>
        <pt x="242" y="-79" on="0"/>
        <pt x="219" y="-56" on="1"/>
        <pt x="237" y="-30" on="0"/>
        <pt x="267" y="-30" on="1"/>
        <pt x="292" y="-30" on="0"/>
        <pt x="321" y="-60" on="0"/>
        <pt x="321" y="-89" on="1"/>
        <pt x="321" y="-132" on="0"/>
        <pt x="251" y="-193" on="0"/>
        <pt x="224" y="-205" on="1"/>
        <pt x="205" y="-185" on="1"/>
      </contour>
    </TTGlyph>
    <TTGlyph name="Gdotaccent" xMin="43" yMin="-11" xMax="542" yMax="821">
      <component glyphName=".ttfautohint" x="43" y="0" flags="0x0"/>
      <component glyphName="G" x="0" y="0" flags="0x0"/>
      <component glyphName="uni0307.case" x="385" y="0" flags="0x0"/>
    </TTGlyph>
    <TTGlyph name="H" xMin="7" yMin="0" xMax="670" yMax="648">
      <contour>
        <pt x="83" y="57" on="1"/>
        <pt x="158" y="591" on="1"/>
        <pt x="89" y="605" on="1"/>
        <pt x="95" y="648" on="1"/>
        <pt x="330" y="648" on="1"/>
        <pt x="324" y="605" on="1"/>
        <pt x="253" y="591" on="1"/>
        <pt x="221" y="361" on="1"/>
        <pt x="466" y="361" on="1"/>
        <pt x="498" y="591" on="1"/>
        <pt x="429" y="605" on="1"/>
        <pt x="435" y="648" on="1"/>
        <pt x="670" y="648" on="1"/>
        <pt x="664" y="605" on="1"/>
        <pt x="593" y="591" on="1"/>
        <pt x="518" y="57" on="1"/>
        <pt x="587" y="43" on="1"/>
        <pt x="582" y="0" on="1"/>
        <pt x="346" y="0" on="1"/>
        <pt x="352" y="43" on="1"/>
        <pt x="423" y="57" on="1"/>
        <pt x="457" y="302" on="1"/>
        <pt x="213" y="302" on="1"/>
        <pt x="178" y="57" on="1"/>
        <pt x="247" y="43" on="1"/>
        <pt x="242" y="0" on="1"/>
        <pt x="7" y="0" on="1"/>
        <pt x="12" y="43" on="1"/>
      </contour>
    </TTGlyph>
    <TTGlyph name="Hbar" xMin="7" yMin="0" xMax="670" yMax="648">
      <contour>
        <pt x="593" y="591" on="1"/>
        <pt x="579" y="487" on="1"/>
        <pt x="646" y="487" on="1"/>
        <pt x="637" y="431" on="1"/>
        <pt x="571" y="431" on="1"/>
        <pt x="518" y="57" on="1"/>
        <pt x="587" y="43" on="1"/>
        <pt x="582" y="0" on="1"/>
        <pt x="346" y="0" on="1"/>
        <pt x="352" y="43" on="1"/>
        <pt x="423" y="57" on="1"/>
        <pt x="452" y="266" on="1"/>
        <pt x="207" y="266" on="1"/>
        <pt x="178" y="57" on="1"/>
        <pt x="247" y="43" on="1"/>
        <pt x="242" y="0" on="1"/>
        <pt x="7" y="0" on="1"/>
        <pt x="12" y="43" on="1"/>
        <pt x="83" y="57" on="1"/>
        <pt x="136" y="431" on="1"/>
        <pt x="69" y="431" on="1"/>
        <pt x="77" y="487" on="1"/>
        <pt x="143" y="487" on="1"/>
        <pt x="158" y="591" on="1"/>
        <pt x="89" y="605" on="1"/>
        <pt x="95" y="648" on="1"/>
        <pt x="330" y="648" on="1"/>
        <pt x="324" y="605" on="1"/>
        <pt x="253" y="591" on="1"/>
        <pt x="239" y="487" on="1"/>
        <pt x="483" y="487" on="1"/>
        <pt x="498" y="591" on="1"/>
        <pt x="429" y="605" on="1"/>
        <pt x="435" y="648" on="1"/>
        <pt x="670" y="648" on="1"/>
        <pt x="664" y="605" on="1"/>
      </contour>
      <contour>
        <pt x="476" y="431" on="1"/>
        <pt x="231" y="431" on="1"/>
        <pt x="216" y="325" on="1"/>
        <pt x="460" y="325" on="1"/>
      </contour>
    </TTGlyph>
    <TTGlyph name="Hcircumflex" xMin="7" yMin="0" xMax="670" yMax="835">
      <component glyphName=".ttfautohint" x="7" y="0" flags="0x0"/>
      <component glyphName="H" x="0" y="0" flags="0x0"/>
      <component glyphName="uni0302.case" x="472" y="0" flags="0x0"/>
    </TTGlyph>
    <TTGlyph name="I" xMin="7" yMin="0" xMax="331" yMax="648">
      <contour>
        <pt x="84" y="57" on="1"/>
        <pt x="159" y="591" on="1"/>
        <pt x="90" y="605" on="1"/>
        <pt x="96" y="648" on="1"/>
        <pt x="331" y="648" on="1"/>
        <pt x="325" y="605" on="1"/>
        <pt x="254" y="591" on="1"/>
        <pt x="179" y="57" on="1"/>
        <pt x="248" y="43" on="1"/>
        <pt x="243" y="0" on="1"/>
        <pt x="7" y="0" on="1"/>
        <pt x="13" y="43" on="1"/>
      </contour>
    </TTGlyph>
    <TTGlyph name="IJ" xMin="7" yMin="-14" xMax="755" yMax="648">
      <component glyphName=".ttfautohint" x="7" y="0" flags="0x0"/>
      <component glyphName="I" x="0" y="0" flags="0x0"/>
      <component glyphName="J" x="329" y="0" flags="0x0"/>
    </TTGlyph>
    <TTGlyph name="Iacute" xMin="7" yMin="0" xMax="340" yMax="837">
      <contour>
        <pt x="131" y="718" on="1"/>
        <pt x="305" y="837" on="1"/>
        <pt x="320" y="829" on="0"/>
        <pt x="340" y="800" on="0"/>
        <pt x="340" y="783" on="1"/>
        <pt x="340" y="766" on="0"/>
        <pt x="317" y="743" on="0"/>
        <pt x="291" y="733" on="1"/>
        <pt x="153" y="679" on="1"/>
      </contour>
      <contour>
        <pt x="83" y="57" on="1"/>
        <pt x="158" y="591" on="1"/>
        <pt x="90" y="605" on="1"/>
        <pt x="95" y="648" on="1"/>
        <pt x="330" y="648" on="1"/>
        <pt x="325" y="605" on="1"/>
        <pt x="254" y="591" on="1"/>
        <pt x="179" y="57" on="1"/>
        <pt x="247" y="43" on="1"/>
        <pt x="242" y="0" on="1"/>
        <pt x="7" y="0" on="1"/>
        <pt x="12" y="43" on="1"/>
      </contour>
    </TTGlyph>
    <TTGlyph name="Iacute_J.loclNLD" xMin="7" yMin="-14" xMax="803" yMax="837">
      <component glyphName=".ttfautohint" x="7" y="0" flags="0x0"/>
      <component glyphName="I" x="0" y="0" flags="0x0"/>
      <component glyphName="acutecomb.case" x="307" y="0" flags="0x0"/>
      <component glyphName="J" x="329" y="0" flags="0x0"/>
      <component glyphName="acutecomb.case" x="729" y="0" flags="0x0"/>
    </TTGlyph>
    <TTGlyph name="Ibreve" xMin="7" yMin="0" xMax="388" yMax="832">
      <component glyphName=".ttfautohint" x="7" y="0" flags="0x0"/>
      <component glyphName="I" x="0" y="0" flags="0x0"/>
      <component glyphName="uni0306.case" x="309" y="0" flags="0x0"/>
    </TTGlyph>
    <TTGlyph name="Icircumflex" xMin="-3" yMin="0" xMax="353" yMax="835">
      <contour>
        <pt x="149" y="783" on="1"/>
        <pt x="175" y="803" on="1"/>
        <pt x="198" y="822" on="0"/>
        <pt x="217" y="835" on="0"/>
        <pt x="223" y="835" on="1"/>
        <pt x="232" y="835" on="0"/>
        <pt x="279" y="795" on="0"/>
        <pt x="285" y="790" on="1"/>
        <pt x="353" y="728" on="1"/>
        <pt x="318" y="685" on="1"/>
        <pt x="210" y="750" on="1"/>
        <pt x="97" y="689" on="1"/>
        <pt x="72" y="724" on="1"/>
      </contour>
      <contour>
        <pt x="73" y="57" on="1"/>
        <pt x="149" y="591" on="1"/>
        <pt x="80" y="605" on="1"/>
        <pt x="85" y="648" on="1"/>
        <pt x="320" y="648" on="1"/>
        <pt x="315" y="605" on="1"/>
        <pt x="244" y="591" on="1"/>
        <pt x="169" y="57" on="1"/>
        <pt x="237" y="43" on="1"/>
        <pt x="233" y="0" on="1"/>
        <pt x="-3" y="0" on="1"/>
        <pt x="2" y="43" on="1"/>
      </contour>
    </TTGlyph>
    <TTGlyph name="Idieresis" xMin="7" yMin="0" xMax="385" yMax="816">
      <contour>
        <pt x="99" y="691" on="0"/>
        <pt x="69" y="724" on="0"/>
        <pt x="69" y="750" on="1"/>
        <pt x="69" y="776" on="0"/>
        <pt x="103" y="816" on="0"/>
        <pt x="130" y="816" on="1"/>
        <pt x="154" y="816" on="0"/>
        <pt x="184" y="784" on="0"/>
        <pt x="184" y="758" on="1"/>
        <pt x="184" y="730" on="0"/>
        <pt x="152" y="691" on="0"/>
        <pt x="123" y="691" on="1"/>
      </contour>
      <contour>
        <pt x="300" y="691" on="0"/>
        <pt x="270" y="724" on="0"/>
        <pt x="270" y="750" on="1"/>
        <pt x="270" y="776" on="0"/>
        <pt x="303" y="816" on="0"/>
        <pt x="330" y="816" on="1"/>
        <pt x="355" y="816" on="0"/>
        <pt x="385" y="784" on="0"/>
        <pt x="385" y="758" on="1"/>
        <pt x="385" y="730" on="0"/>
        <pt x="352" y="691" on="0"/>
        <pt x="324" y="691" on="1"/>
      </contour>
      <contour>
        <pt x="83" y="57" on="1"/>
        <pt x="158" y="591" on="1"/>
        <pt x="90" y="605" on="1"/>
        <pt x="95" y="648" on="1"/>
        <pt x="330" y="648" on="1"/>
        <pt x="325" y="605" on="1"/>
        <pt x="254" y="591" on="1"/>
        <pt x="179" y="57" on="1"/>
        <pt x="247" y="43" on="1"/>
        <pt x="242" y="0" on="1"/>
        <pt x="7" y="0" on="1"/>
        <pt x="12" y="43" on="1"/>
      </contour>
    </TTGlyph>
    <TTGlyph name="Idotaccent" xMin="3" yMin="0" xMax="326" yMax="821">
      <contour>
        <pt x="199" y="694" on="0"/>
        <pt x="168" y="726" on="0"/>
        <pt x="168" y="750" on="1"/>
        <pt x="168" y="778" on="0"/>
        <pt x="202" y="821" on="0"/>
        <pt x="233" y="821" on="1"/>
        <pt x="258" y="821" on="0"/>
        <pt x="289" y="790" on="0"/>
        <pt x="289" y="763" on="1"/>
        <pt x="289" y="735" on="0"/>
        <pt x="255" y="694" on="0"/>
        <pt x="223" y="694" on="1"/>
      </contour>
      <contour>
        <pt x="80" y="57" on="1"/>
        <pt x="155" y="591" on="1"/>
        <pt x="86" y="605" on="1"/>
        <pt x="91" y="648" on="1"/>
        <pt x="326" y="648" on="1"/>
        <pt x="321" y="605" on="1"/>
        <pt x="250" y="591" on="1"/>
        <pt x="175" y="57" on="1"/>
        <pt x="244" y="43" on="1"/>
        <pt x="239" y="0" on="1"/>
        <pt x="3" y="0" on="1"/>
        <pt x="9" y="43" on="1"/>
      </contour>
    </TTGlyph>
    <TTGlyph name="Igrave" xMin="7" yMin="0" xMax="330" yMax="837">
      <contour>
        <pt x="130" y="743" on="0"/>
        <pt x="107" y="766" on="0"/>
        <pt x="107" y="782" on="1"/>
        <pt x="107" y="800" on="0"/>
        <pt x="126" y="829" on="0"/>
        <pt x="142" y="837" on="1"/>
        <pt x="316" y="718" on="1"/>
        <pt x="294" y="679" on="1"/>
        <pt x="156" y="733" on="1"/>
      </contour>
      <contour>
        <pt x="83" y="57" on="1"/>
        <pt x="158" y="591" on="1"/>
        <pt x="90" y="605" on="1"/>
        <pt x="95" y="648" on="1"/>
        <pt x="330" y="648" on="1"/>
        <pt x="325" y="605" on="1"/>
        <pt x="254" y="591" on="1"/>
        <pt x="179" y="57" on="1"/>
        <pt x="247" y="43" on="1"/>
        <pt x="242" y="0" on="1"/>
        <pt x="7" y="0" on="1"/>
        <pt x="12" y="43" on="1"/>
      </contour>
    </TTGlyph>
    <TTGlyph name="Imacron" xMin="7" yMin="0" xMax="363" yMax="787">
      <contour>
        <pt x="363" y="787" on="1"/>
        <pt x="353" y="718" on="1"/>
        <pt x="86" y="718" on="1"/>
        <pt x="96" y="787" on="1"/>
      </contour>
      <contour>
        <pt x="83" y="57" on="1"/>
        <pt x="158" y="591" on="1"/>
        <pt x="90" y="605" on="1"/>
        <pt x="95" y="648" on="1"/>
        <pt x="330" y="648" on="1"/>
        <pt x="325" y="605" on="1"/>
        <pt x="254" y="591" on="1"/>
        <pt x="179" y="57" on="1"/>
        <pt x="247" y="43" on="1"/>
        <pt x="242" y="0" on="1"/>
        <pt x="7" y="0" on="1"/>
        <pt x="12" y="43" on="1"/>
      </contour>
    </TTGlyph>
    <TTGlyph name="Iogonek" xMin="7" yMin="-180" xMax="330" yMax="648">
      <contour>
        <pt x="83" y="57" on="1"/>
        <pt x="158" y="591" on="1"/>
        <pt x="90" y="605" on="1"/>
        <pt x="95" y="648" on="1"/>
        <pt x="330" y="648" on="1"/>
        <pt x="325" y="605" on="1"/>
        <pt x="254" y="591" on="1"/>
        <pt x="179" y="57" on="1"/>
        <pt x="247" y="43" on="1"/>
        <pt x="242" y="0" on="1"/>
        <pt x="153" y="0" on="1"/>
        <pt x="131" y="-15" on="0"/>
        <pt x="100" y="-58" on="0"/>
        <pt x="100" y="-85" on="1"/>
        <pt x="100" y="-124" on="0"/>
        <pt x="140" y="-124" on="1"/>
        <pt x="162" y="-124" on="0"/>
        <pt x="195" y="-104" on="1"/>
        <pt x="213" y="-131" on="1"/>
        <pt x="213" y="-132" on="0"/>
        <pt x="182" y="-158" on="0"/>
        <pt x="135" y="-180" on="0"/>
        <pt x="107" y="-180" on="1"/>
        <pt x="26" y="-180" on="0"/>
        <pt x="26" y="-115" on="1"/>
        <pt x="26" y="-81" on="0"/>
        <pt x="68" y="-22" on="0"/>
        <pt x="103" y="0" on="1"/>
        <pt x="7" y="0" on="1"/>
        <pt x="12" y="43" on="1"/>
      </contour>
    </TTGlyph>
    <TTGlyph name="Itilde" xMin="7" yMin="0" xMax="411" yMax="820">
      <component glyphName=".ttfautohint" x="7" y="0" flags="0x0"/>
      <component glyphName="I" x="0" y="0" flags="0x0"/>
      <component glyphName="tildecomb.case" x="336" y="0" flags="0x0"/>
    </TTGlyph>
    <TTGlyph name="J" xMin="-10" yMin="-14" xMax="426" yMax="648">
      <contour>
        <pt x="65" y="168" on="1"/>
        <pt x="77" y="53" on="1"/>
        <pt x="77" y="52" on="0"/>
        <pt x="109" y="42" on="0"/>
        <pt x="126" y="42" on="1"/>
        <pt x="158" y="42" on="0"/>
        <pt x="184" y="66" on="0"/>
        <pt x="190" y="105" on="1"/>
        <pt x="255" y="589" on="1"/>
        <pt x="173" y="605" on="1"/>
        <pt x="178" y="648" on="1"/>
        <pt x="426" y="648" on="1"/>
        <pt x="421" y="605" on="1"/>
        <pt x="350" y="591" on="1"/>
        <pt x="286" y="116" on="1"/>
        <pt x="276" y="46" on="0"/>
        <pt x="199" y="-14" on="0"/>
        <pt x="118" y="-14" on="1"/>
        <pt x="77" y="-14" on="0"/>
        <pt x="9" y="5" on="0"/>
        <pt x="-10" y="13" on="1"/>
        <pt x="9" y="168" on="1"/>
      </contour>
    </TTGlyph>
    <TTGlyph name="Jcircumflex" xMin="-10" yMin="-14" xMax="467" yMax="835">
      <component glyphName=".ttfautohint" x="0" y="0" flags="0x0"/>
      <component glyphName="J" x="0" y="0" flags="0x0"/>
      <component glyphName="uni0302.case" x="401" y="0" flags="0x0"/>
    </TTGlyph>
    <TTGlyph name="K" xMin="7" yMin="0" xMax="588" yMax="648">
      <contour>
        <pt x="84" y="57" on="1"/>
        <pt x="159" y="591" on="1"/>
        <pt x="90" y="605" on="1"/>
        <pt x="96" y="648" on="1"/>
        <pt x="331" y="648" on="1"/>
        <pt x="325" y="605" on="1"/>
        <pt x="254" y="591" on="1"/>
        <pt x="221" y="358" on="1"/>
        <pt x="250" y="358" on="1"/>
        <pt x="446" y="584" on="1"/>
        <pt x="446" y="592" on="1"/>
        <pt x="393" y="605" on="1"/>
        <pt x="399" y="648" on="1"/>
        <pt x="588" y="648" on="1"/>
        <pt x="582" y="605" on="1"/>
        <pt x="526" y="591" on="1"/>
        <pt x="322" y="357" on="1"/>
        <pt x="475" y="59" on="1"/>
        <pt x="539" y="43" on="1"/>
        <pt x="534" y="0" on="1"/>
        <pt x="432" y="0" on="1"/>
        <pt x="412" y="0" on="0"/>
        <pt x="390" y="15" on="0"/>
        <pt x="380" y="34" on="1"/>
        <pt x="246" y="307" on="1"/>
        <pt x="215" y="307" on="1"/>
        <pt x="179" y="57" on="1"/>
        <pt x="248" y="43" on="1"/>
        <pt x="243" y="0" on="1"/>
        <pt x="7" y="0" on="1"/>
        <pt x="13" y="43" on="1"/>
      </contour>
    </TTGlyph>
    <TTGlyph name="Kcommaaccent" xMin="3" yMin="-205" xMax="583" yMax="648">
      <contour>
        <pt x="80" y="57" on="1"/>
        <pt x="155" y="591" on="1"/>
        <pt x="86" y="605" on="1"/>
        <pt x="91" y="648" on="1"/>
        <pt x="326" y="648" on="1"/>
        <pt x="321" y="605" on="1"/>
        <pt x="250" y="591" on="1"/>
        <pt x="217" y="358" on="1"/>
        <pt x="246" y="358" on="1"/>
        <pt x="442" y="584" on="1"/>
        <pt x="442" y="592" on="1"/>
        <pt x="389" y="605" on="1"/>
        <pt x="394" y="648" on="1"/>
        <pt x="583" y="648" on="1"/>
        <pt x="578" y="605" on="1"/>
        <pt x="522" y="591" on="1"/>
        <pt x="318" y="357" on="1"/>
        <pt x="469" y="59" on="1"/>
        <pt x="534" y="43" on="1"/>
        <pt x="530" y="0" on="1"/>
        <pt x="425" y="0" on="1"/>
        <pt x="405" y="0" on="0"/>
        <pt x="383" y="15" on="0"/>
        <pt x="373" y="34" on="1"/>
        <pt x="236" y="307" on="1"/>
        <pt x="211" y="307" on="1"/>
        <pt x="175" y="57" on="1"/>
        <pt x="244" y="43" on="1"/>
        <pt x="239" y="0" on="1"/>
        <pt x="3" y="0" on="1"/>
        <pt x="9" y="43" on="1"/>
      </contour>
      <contour>
        <pt x="200" y="-182" on="0"/>
        <pt x="217" y="-162" on="0"/>
        <pt x="233" y="-129" on="0"/>
        <pt x="233" y="-111" on="1"/>
        <pt x="233" y="-78" on="0"/>
        <pt x="211" y="-56" on="1"/>
        <pt x="217" y="-46" on="0"/>
        <pt x="242" y="-30" on="0"/>
        <pt x="259" y="-30" on="1"/>
        <pt x="284" y="-30" on="0"/>
        <pt x="313" y="-60" on="0"/>
        <pt x="313" y="-89" on="1"/>
        <pt x="313" y="-132" on="0"/>
        <pt x="243" y="-193" on="0"/>
        <pt x="216" y="-205" on="1"/>
        <pt x="197" y="-185" on="1"/>
      </contour>
    </TTGlyph>
    <TTGlyph name="L" xMin="7" yMin="0" xMax="427" yMax="648">
      <contour>
        <pt x="83" y="57" on="1"/>
        <pt x="158" y="591" on="1"/>
        <pt x="90" y="605" on="1"/>
        <pt x="95" y="648" on="1"/>
        <pt x="330" y="648" on="1"/>
        <pt x="325" y="605" on="1"/>
        <pt x="254" y="591" on="1"/>
        <pt x="179" y="57" on="1"/>
        <pt x="221" y="52" on="1"/>
        <pt x="338" y="52" on="1"/>
        <pt x="379" y="160" on="1"/>
        <pt x="427" y="160" on="1"/>
        <pt x="404" y="0" on="1"/>
        <pt x="7" y="0" on="1"/>
        <pt x="12" y="43" on="1"/>
      </contour>
    </TTGlyph>
    <TTGlyph name="Lacute" xMin="3" yMin="0" xMax="423" yMax="837">
      <contour>
        <pt x="127" y="718" on="1"/>
        <pt x="301" y="837" on="1"/>
        <pt x="317" y="829" on="0"/>
        <pt x="337" y="800" on="0"/>
        <pt x="337" y="783" on="1"/>
        <pt x="337" y="766" on="0"/>
        <pt x="314" y="743" on="0"/>
        <pt x="288" y="733" on="1"/>
        <pt x="150" y="679" on="1"/>
      </contour>
      <contour>
        <pt x="80" y="57" on="1"/>
        <pt x="155" y="591" on="1"/>
        <pt x="86" y="605" on="1"/>
        <pt x="91" y="648" on="1"/>
        <pt x="326" y="648" on="1"/>
        <pt x="321" y="605" on="1"/>
        <pt x="250" y="591" on="1"/>
        <pt x="175" y="57" on="1"/>
        <pt x="217" y="52" on="1"/>
        <pt x="334" y="52" on="1"/>
        <pt x="375" y="160" on="1"/>
        <pt x="423" y="160" on="1"/>
        <pt x="401" y="0" on="1"/>
        <pt x="3" y="0" on="1"/>
        <pt x="9" y="43" on="1"/>
      </contour>
    </TTGlyph>
    <TTGlyph name="Lcaron" xMin="3" yMin="0" xMax="476" yMax="723">
      <contour>
        <pt x="373" y="571" on="0"/>
        <pt x="386" y="592" on="0"/>
        <pt x="398" y="630" on="0"/>
        <pt x="398" y="652" on="1"/>
        <pt x="398" y="677" on="0"/>
        <pt x="384" y="697" on="1"/>
        <pt x="402" y="723" on="0"/>
        <pt x="430" y="723" on="1"/>
        <pt x="453" y="723" on="0"/>
        <pt x="476" y="697" on="0"/>
        <pt x="476" y="675" on="1"/>
        <pt x="476" y="640" on="0"/>
        <pt x="441" y="586" on="0"/>
        <pt x="400" y="554" on="0"/>
        <pt x="389" y="549" on="1"/>
        <pt x="371" y="568" on="1"/>
      </contour>
      <contour>
        <pt x="80" y="57" on="1"/>
        <pt x="155" y="591" on="1"/>
        <pt x="86" y="605" on="1"/>
        <pt x="91" y="648" on="1"/>
        <pt x="326" y="648" on="1"/>
        <pt x="321" y="605" on="1"/>
        <pt x="250" y="591" on="1"/>
        <pt x="175" y="57" on="1"/>
        <pt x="217" y="52" on="1"/>
        <pt x="334" y="52" on="1"/>
        <pt x="375" y="160" on="1"/>
        <pt x="423" y="160" on="1"/>
        <pt x="401" y="0" on="1"/>
        <pt x="3" y="0" on="1"/>
        <pt x="9" y="43" on="1"/>
      </contour>
    </TTGlyph>
    <TTGlyph name="Lcommaaccent" xMin="3" yMin="-205" xMax="423" yMax="648">
      <contour>
        <pt x="80" y="57" on="1"/>
        <pt x="155" y="591" on="1"/>
        <pt x="86" y="605" on="1"/>
        <pt x="91" y="648" on="1"/>
        <pt x="326" y="648" on="1"/>
        <pt x="321" y="605" on="1"/>
        <pt x="250" y="591" on="1"/>
        <pt x="175" y="57" on="1"/>
        <pt x="217" y="52" on="1"/>
        <pt x="334" y="52" on="1"/>
        <pt x="375" y="160" on="1"/>
        <pt x="423" y="160" on="1"/>
        <pt x="401" y="0" on="1"/>
        <pt x="3" y="0" on="1"/>
        <pt x="9" y="43" on="1"/>
      </contour>
      <contour>
        <pt x="149" y="-182" on="0"/>
        <pt x="167" y="-162" on="0"/>
        <pt x="183" y="-129" on="0"/>
        <pt x="183" y="-111" on="1"/>
        <pt x="183" y="-79" on="0"/>
        <pt x="160" y="-56" on="1"/>
        <pt x="178" y="-30" on="0"/>
        <pt x="208" y="-30" on="1"/>
        <pt x="233" y="-30" on="0"/>
        <pt x="262" y="-60" on="0"/>
        <pt x="262" y="-89" on="1"/>
        <pt x="262" y="-132" on="0"/>
        <pt x="192" y="-193" on="0"/>
        <pt x="165" y="-205" on="1"/>
        <pt x="146" y="-185" on="1"/>
      </contour>
    </TTGlyph>
    <TTGlyph name="Ldot" xMin="7" yMin="0" xMax="433" yMax="648">
      <component glyphName=".ttfautohint" x="7" y="0" flags="0x0"/>
      <component glyphName="L" x="0" y="0" flags="0x0"/>
      <component glyphName="periodcentered" x="271" y="101" flags="0x4"/>
    </TTGlyph>
    <TTGlyph name="Lslash" xMin="3" yMin="0" xMax="423" yMax="648">
      <contour>
        <pt x="80" y="57" on="1"/>
        <pt x="109" y="266" on="1"/>
        <pt x="23" y="233" on="1"/>
        <pt x="23" y="289" on="1"/>
        <pt x="118" y="326" on="1"/>
        <pt x="155" y="591" on="1"/>
        <pt x="86" y="605" on="1"/>
        <pt x="91" y="648" on="1"/>
        <pt x="326" y="648" on="1"/>
        <pt x="321" y="605" on="1"/>
        <pt x="250" y="591" on="1"/>
        <pt x="219" y="367" on="1"/>
        <pt x="319" y="407" on="1"/>
        <pt x="319" y="348" on="1"/>
        <pt x="210" y="305" on="1"/>
        <pt x="175" y="57" on="1"/>
        <pt x="217" y="52" on="1"/>
        <pt x="334" y="52" on="1"/>
        <pt x="375" y="160" on="1"/>
        <pt x="423" y="160" on="1"/>
        <pt x="401" y="0" on="1"/>
        <pt x="3" y="0" on="1"/>
        <pt x="9" y="43" on="1"/>
      </contour>
    </TTGlyph>
    <TTGlyph name="M" xMin="7" yMin="0" xMax="764" yMax="648">
      <contour>
        <pt x="84" y="57" on="1"/>
        <pt x="159" y="591" on="1"/>
        <pt x="90" y="605" on="1"/>
        <pt x="96" y="648" on="1"/>
        <pt x="286" y="648" on="1"/>
        <pt x="352" y="196" on="1"/>
        <pt x="354" y="150" on="1"/>
        <pt x="356" y="153" on="1"/>
        <pt x="372" y="196" on="1"/>
        <pt x="573" y="648" on="1"/>
        <pt x="764" y="648" on="1"/>
        <pt x="760" y="605" on="1"/>
        <pt x="689" y="591" on="1"/>
        <pt x="613" y="57" on="1"/>
        <pt x="682" y="43" on="1"/>
        <pt x="677" y="0" on="1"/>
        <pt x="441" y="0" on="1"/>
        <pt x="447" y="43" on="1"/>
        <pt x="518" y="57" on="1"/>
        <pt x="579" y="489" on="1"/>
        <pt x="585" y="522" on="1"/>
        <pt x="580" y="522" on="1"/>
        <pt x="349" y="0" on="1"/>
        <pt x="297" y="0" on="1"/>
        <pt x="215" y="520" on="1"/>
        <pt x="211" y="520" on="1"/>
        <pt x="209" y="496" on="1"/>
        <pt x="147" y="57" on="1"/>
        <pt x="216" y="43" on="1"/>
        <pt x="212" y="0" on="1"/>
        <pt x="7" y="0" on="1"/>
        <pt x="13" y="43" on="1"/>
      </contour>
    </TTGlyph>
    <TTGlyph name="N" xMin="6" yMin="0" xMax="662" yMax="648">
      <contour>
        <pt x="82" y="57" on="1"/>
        <pt x="157" y="591" on="1"/>
        <pt x="89" y="605" on="1"/>
        <pt x="94" y="648" on="1"/>
        <pt x="253" y="648" on="1"/>
        <pt x="453" y="156" on="1"/>
        <pt x="456" y="144" on="1"/>
        <pt x="461" y="144" on="1"/>
        <pt x="462" y="155" on="1"/>
        <pt x="524" y="591" on="1"/>
        <pt x="455" y="605" on="1"/>
        <pt x="459" y="648" on="1"/>
        <pt x="662" y="648" on="1"/>
        <pt x="657" y="605" on="1"/>
        <pt x="586" y="591" on="1"/>
        <pt x="504" y="0" on="1"/>
        <pt x="416" y="0" on="1"/>
        <pt x="216" y="490" on="1"/>
        <pt x="213" y="502" on="1"/>
        <pt x="208" y="502" on="1"/>
        <pt x="145" y="57" on="1"/>
        <pt x="214" y="43" on="1"/>
        <pt x="210" y="0" on="1"/>
        <pt x="6" y="0" on="1"/>
        <pt x="11" y="43" on="1"/>
      </contour>
    </TTGlyph>
    <TTGlyph name="Nacute" xMin="6" yMin="0" xMax="662" yMax="839">
      <contour>
        <pt x="306" y="720" on="1"/>
        <pt x="462" y="839" on="1"/>
        <pt x="489" y="833" on="0"/>
        <pt x="515" y="804" on="0"/>
        <pt x="515" y="785" on="1"/>
        <pt x="515" y="768" on="0"/>
        <pt x="493" y="745" on="0"/>
        <pt x="467" y="735" on="1"/>
        <pt x="329" y="681" on="1"/>
      </contour>
      <contour>
        <pt x="82" y="57" on="1"/>
        <pt x="157" y="591" on="1"/>
        <pt x="89" y="605" on="1"/>
        <pt x="94" y="648" on="1"/>
        <pt x="253" y="648" on="1"/>
        <pt x="453" y="156" on="1"/>
        <pt x="456" y="144" on="1"/>
        <pt x="461" y="144" on="1"/>
        <pt x="462" y="155" on="1"/>
        <pt x="524" y="591" on="1"/>
        <pt x="455" y="605" on="1"/>
        <pt x="459" y="648" on="1"/>
        <pt x="662" y="648" on="1"/>
        <pt x="657" y="605" on="1"/>
        <pt x="586" y="591" on="1"/>
        <pt x="504" y="0" on="1"/>
        <pt x="416" y="0" on="1"/>
        <pt x="216" y="490" on="1"/>
        <pt x="213" y="502" on="1"/>
        <pt x="208" y="502" on="1"/>
        <pt x="145" y="57" on="1"/>
        <pt x="214" y="43" on="1"/>
        <pt x="210" y="0" on="1"/>
        <pt x="6" y="0" on="1"/>
        <pt x="11" y="43" on="1"/>
      </contour>
    </TTGlyph>
    <TTGlyph name="Nacute.loclPLK" xMin="6" yMin="0" xMax="662" yMax="856">
      <contour>
        <pt x="474" y="856" on="1"/>
        <pt x="497" y="853" on="0"/>
        <pt x="528" y="821" on="0"/>
        <pt x="528" y="802" on="1"/>
        <pt x="528" y="780" on="0"/>
        <pt x="496" y="754" on="1"/>
        <pt x="395" y="667" on="1"/>
        <pt x="359" y="700" on="1"/>
      </contour>
      <contour>
        <pt x="82" y="57" on="1"/>
        <pt x="157" y="591" on="1"/>
        <pt x="89" y="605" on="1"/>
        <pt x="94" y="648" on="1"/>
        <pt x="253" y="648" on="1"/>
        <pt x="453" y="156" on="1"/>
        <pt x="456" y="144" on="1"/>
        <pt x="461" y="144" on="1"/>
        <pt x="462" y="155" on="1"/>
        <pt x="524" y="591" on="1"/>
        <pt x="455" y="605" on="1"/>
        <pt x="459" y="648" on="1"/>
        <pt x="662" y="648" on="1"/>
        <pt x="657" y="605" on="1"/>
        <pt x="586" y="591" on="1"/>
        <pt x="504" y="0" on="1"/>
        <pt x="416" y="0" on="1"/>
        <pt x="216" y="490" on="1"/>
        <pt x="213" y="502" on="1"/>
        <pt x="208" y="502" on="1"/>
        <pt x="145" y="57" on="1"/>
        <pt x="214" y="43" on="1"/>
        <pt x="210" y="0" on="1"/>
        <pt x="6" y="0" on="1"/>
        <pt x="11" y="43" on="1"/>
      </contour>
    </TTGlyph>
    <TTGlyph name="Ncaron" xMin="6" yMin="0" xMax="662" yMax="838">
      <contour>
        <pt x="296" y="836" on="1"/>
        <pt x="399" y="770" on="1"/>
        <pt x="507" y="838" on="1"/>
        <pt x="532" y="803" on="1"/>
        <pt x="460" y="738" on="1"/>
        <pt x="402" y="685" on="0"/>
        <pt x="385" y="685" on="1"/>
        <pt x="372" y="685" on="0"/>
        <pt x="327" y="730" on="1"/>
        <pt x="260" y="795" on="1"/>
      </contour>
      <contour>
        <pt x="82" y="57" on="1"/>
        <pt x="157" y="591" on="1"/>
        <pt x="89" y="605" on="1"/>
        <pt x="94" y="648" on="1"/>
        <pt x="253" y="648" on="1"/>
        <pt x="453" y="156" on="1"/>
        <pt x="456" y="144" on="1"/>
        <pt x="461" y="144" on="1"/>
        <pt x="462" y="155" on="1"/>
        <pt x="524" y="591" on="1"/>
        <pt x="455" y="605" on="1"/>
        <pt x="459" y="648" on="1"/>
        <pt x="662" y="648" on="1"/>
        <pt x="657" y="605" on="1"/>
        <pt x="586" y="591" on="1"/>
        <pt x="504" y="0" on="1"/>
        <pt x="416" y="0" on="1"/>
        <pt x="216" y="490" on="1"/>
        <pt x="213" y="502" on="1"/>
        <pt x="208" y="502" on="1"/>
        <pt x="145" y="57" on="1"/>
        <pt x="214" y="43" on="1"/>
        <pt x="210" y="0" on="1"/>
        <pt x="6" y="0" on="1"/>
        <pt x="11" y="43" on="1"/>
      </contour>
    </TTGlyph>
    <TTGlyph name="Ncommaaccent" xMin="6" yMin="-205" xMax="662" yMax="648">
      <contour>
        <pt x="82" y="57" on="1"/>
        <pt x="157" y="591" on="1"/>
        <pt x="89" y="605" on="1"/>
        <pt x="94" y="648" on="1"/>
        <pt x="253" y="648" on="1"/>
        <pt x="453" y="156" on="1"/>
        <pt x="456" y="144" on="1"/>
        <pt x="461" y="144" on="1"/>
        <pt x="462" y="155" on="1"/>
        <pt x="524" y="591" on="1"/>
        <pt x="455" y="605" on="1"/>
        <pt x="459" y="648" on="1"/>
        <pt x="662" y="648" on="1"/>
        <pt x="657" y="605" on="1"/>
        <pt x="586" y="591" on="1"/>
        <pt x="504" y="0" on="1"/>
        <pt x="416" y="0" on="1"/>
        <pt x="216" y="490" on="1"/>
        <pt x="213" y="502" on="1"/>
        <pt x="208" y="502" on="1"/>
        <pt x="145" y="57" on="1"/>
        <pt x="214" y="43" on="1"/>
        <pt x="210" y="0" on="1"/>
        <pt x="6" y="0" on="1"/>
        <pt x="11" y="43" on="1"/>
      </contour>
      <contour>
        <pt x="228" y="-182" on="0"/>
        <pt x="245" y="-162" on="0"/>
        <pt x="261" y="-129" on="0"/>
        <pt x="261" y="-111" on="1"/>
        <pt x="261" y="-78" on="0"/>
        <pt x="239" y="-56" on="1"/>
        <pt x="245" y="-46" on="0"/>
        <pt x="270" y="-30" on="0"/>
        <pt x="287" y="-30" on="1"/>
        <pt x="312" y="-30" on="0"/>
        <pt x="341" y="-60" on="0"/>
        <pt x="341" y="-89" on="1"/>
        <pt x="341" y="-132" on="0"/>
        <pt x="271" y="-193" on="0"/>
        <pt x="244" y="-205" on="1"/>
        <pt x="225" y="-185" on="1"/>
      </contour>
    </TTGlyph>
    <TTGlyph name="Ntilde" xMin="6" yMin="0" xMax="662" yMax="820">
      <contour>
        <pt x="267" y="783" on="1"/>
        <pt x="296" y="820" on="0"/>
        <pt x="326" y="820" on="1"/>
        <pt x="351" y="820" on="0"/>
        <pt x="399" y="802" on="1"/>
        <pt x="477" y="775" on="1"/>
        <pt x="557" y="813" on="1"/>
        <pt x="582" y="785" on="1"/>
        <pt x="541" y="734" on="1"/>
        <pt x="511" y="697" on="0"/>
        <pt x="483" y="697" on="1"/>
        <pt x="460" y="697" on="0"/>
        <pt x="409" y="716" on="1"/>
        <pt x="332" y="743" on="1"/>
        <pt x="251" y="705" on="1"/>
        <pt x="226" y="733" on="1"/>
      </contour>
      <contour>
        <pt x="82" y="57" on="1"/>
        <pt x="157" y="591" on="1"/>
        <pt x="89" y="605" on="1"/>
        <pt x="94" y="648" on="1"/>
        <pt x="253" y="648" on="1"/>
        <pt x="453" y="156" on="1"/>
        <pt x="456" y="144" on="1"/>
        <pt x="461" y="144" on="1"/>
        <pt x="462" y="155" on="1"/>
        <pt x="524" y="591" on="1"/>
        <pt x="455" y="605" on="1"/>
        <pt x="459" y="648" on="1"/>
        <pt x="662" y="648" on="1"/>
        <pt x="657" y="605" on="1"/>
        <pt x="586" y="591" on="1"/>
        <pt x="504" y="0" on="1"/>
        <pt x="416" y="0" on="1"/>
        <pt x="216" y="490" on="1"/>
        <pt x="213" y="502" on="1"/>
        <pt x="208" y="502" on="1"/>
        <pt x="145" y="57" on="1"/>
        <pt x="214" y="43" on="1"/>
        <pt x="210" y="0" on="1"/>
        <pt x="6" y="0" on="1"/>
        <pt x="11" y="43" on="1"/>
      </contour>
    </TTGlyph>
    <TTGlyph name="O" xMin="40" yMin="-11" xMax="612" yMax="660">
      <contour>
        <pt x="167" y="-11" on="0"/>
        <pt x="40" y="125" on="0"/>
        <pt x="40" y="248" on="1"/>
        <pt x="40" y="364" on="0"/>
        <pt x="121" y="552" on="0"/>
        <pt x="269" y="660" on="0"/>
        <pt x="366" y="660" on="1"/>
        <pt x="488" y="660" on="0"/>
        <pt x="612" y="521" on="0"/>
        <pt x="612" y="402" on="1"/>
        <pt x="612" y="288" on="0"/>
        <pt x="537" y="100" on="0"/>
        <pt x="386" y="-11" on="0"/>
        <pt x="277" y="-11" on="1"/>
      </contour>
      <contour>
        <pt x="410" y="44" on="0"/>
        <pt x="503" y="224" on="0"/>
        <pt x="503" y="398" on="1"/>
        <pt x="503" y="510" on="0"/>
        <pt x="429" y="605" on="0"/>
        <pt x="347" y="605" on="1"/>
        <pt x="244" y="605" on="0"/>
        <pt x="148" y="430" on="0"/>
        <pt x="148" y="263" on="1"/>
        <pt x="148" y="145" on="0"/>
        <pt x="219" y="44" on="0"/>
        <pt x="303" y="44" on="1"/>
      </contour>
    </TTGlyph>
    <TTGlyph name="OE" xMin="31" yMin="0" xMax="784" yMax="648">
      <contour>
        <pt x="155" y="0" on="0"/>
        <pt x="31" y="126" on="0"/>
        <pt x="31" y="248" on="1"/>
        <pt x="31" y="358" on="0"/>
        <pt x="113" y="541" on="0"/>
        <pt x="264" y="648" on="0"/>
        <pt x="363" y="648" on="1"/>
        <pt x="784" y="648" on="1"/>
        <pt x="761" y="484" on="1"/>
        <pt x="707" y="484" on="1"/>
        <pt x="707" y="595" on="1"/>
        <pt x="604" y="595" on="1"/>
        <pt x="531" y="590" on="1"/>
        <pt x="498" y="360" on="1"/>
        <pt x="624" y="360" on="1"/>
        <pt x="645" y="421" on="1"/>
        <pt x="688" y="421" on="1"/>
        <pt x="666" y="249" on="1"/>
        <pt x="623" y="249" on="1"/>
        <pt x="619" y="310" on="1"/>
        <pt x="491" y="310" on="1"/>
        <pt x="455" y="58" on="1"/>
        <pt x="503" y="53" on="0"/>
        <pt x="544" y="52" on="1"/>
        <pt x="643" y="52" on="1"/>
        <pt x="682" y="160" on="1"/>
        <pt x="730" y="160" on="1"/>
        <pt x="710" y="0" on="1"/>
        <pt x="266" y="0" on="1"/>
      </contour>
      <contour>
        <pt x="335" y="53" on="0"/>
        <pt x="360" y="57" on="1"/>
        <pt x="434" y="589" on="1"/>
        <pt x="396" y="598" on="0"/>
        <pt x="347" y="598" on="1"/>
        <pt x="245" y="598" on="0"/>
        <pt x="141" y="427" on="0"/>
        <pt x="139" y="263" on="1"/>
        <pt x="139" y="158" on="0"/>
        <pt x="207" y="53" on="0"/>
        <pt x="296" y="53" on="1"/>
      </contour>
    </TTGlyph>
    <TTGlyph name="Oacute" xMin="40" yMin="-11" xMax="612" yMax="850">
      <contour>
        <pt x="460" y="850" on="1"/>
        <pt x="475" y="842" on="0"/>
        <pt x="495" y="813" on="0"/>
        <pt x="495" y="795" on="1"/>
        <pt x="495" y="778" on="0"/>
        <pt x="472" y="756" on="0"/>
        <pt x="446" y="746" on="1"/>
        <pt x="308" y="692" on="1"/>
        <pt x="286" y="730" on="1"/>
      </contour>
      <contour>
        <pt x="167" y="-11" on="0"/>
        <pt x="40" y="125" on="0"/>
        <pt x="40" y="248" on="1"/>
        <pt x="40" y="364" on="0"/>
        <pt x="121" y="552" on="0"/>
        <pt x="269" y="660" on="0"/>
        <pt x="366" y="660" on="1"/>
        <pt x="488" y="660" on="0"/>
        <pt x="612" y="521" on="0"/>
        <pt x="612" y="402" on="1"/>
        <pt x="612" y="288" on="0"/>
        <pt x="537" y="100" on="0"/>
        <pt x="386" y="-11" on="0"/>
        <pt x="277" y="-11" on="1"/>
      </contour>
      <contour>
        <pt x="410" y="44" on="0"/>
        <pt x="503" y="224" on="0"/>
        <pt x="503" y="398" on="1"/>
        <pt x="503" y="510" on="0"/>
        <pt x="429" y="605" on="0"/>
        <pt x="347" y="605" on="1"/>
        <pt x="244" y="605" on="0"/>
        <pt x="148" y="430" on="0"/>
        <pt x="148" y="263" on="1"/>
        <pt x="148" y="145" on="0"/>
        <pt x="219" y="44" on="0"/>
        <pt x="303" y="44" on="1"/>
      </contour>
    </TTGlyph>
    <TTGlyph name="Oacute.loclPLK" xMin="40" yMin="-11" xMax="612" yMax="856">
      <contour>
        <pt x="460" y="856" on="1"/>
        <pt x="483" y="853" on="0"/>
        <pt x="514" y="821" on="0"/>
        <pt x="514" y="802" on="1"/>
        <pt x="514" y="780" on="0"/>
        <pt x="482" y="754" on="1"/>
        <pt x="381" y="667" on="1"/>
        <pt x="345" y="700" on="1"/>
      </contour>
      <contour>
        <pt x="167" y="-11" on="0"/>
        <pt x="40" y="125" on="0"/>
        <pt x="40" y="248" on="1"/>
        <pt x="40" y="364" on="0"/>
        <pt x="121" y="552" on="0"/>
        <pt x="269" y="660" on="0"/>
        <pt x="366" y="660" on="1"/>
        <pt x="488" y="660" on="0"/>
        <pt x="612" y="521" on="0"/>
        <pt x="612" y="402" on="1"/>
        <pt x="612" y="288" on="0"/>
        <pt x="537" y="100" on="0"/>
        <pt x="386" y="-11" on="0"/>
        <pt x="277" y="-11" on="1"/>
      </contour>
      <contour>
        <pt x="410" y="44" on="0"/>
        <pt x="503" y="224" on="0"/>
        <pt x="503" y="398" on="1"/>
        <pt x="503" y="510" on="0"/>
        <pt x="429" y="605" on="0"/>
        <pt x="347" y="605" on="1"/>
        <pt x="244" y="605" on="0"/>
        <pt x="148" y="430" on="0"/>
        <pt x="148" y="263" on="1"/>
        <pt x="148" y="145" on="0"/>
        <pt x="219" y="44" on="0"/>
        <pt x="303" y="44" on="1"/>
      </contour>
    </TTGlyph>
    <TTGlyph name="Obreve" xMin="40" yMin="-11" xMax="612" yMax="832">
      <component glyphName=".ttfautohint" x="40" y="0" flags="0x0"/>
      <component glyphName="O" x="0" y="0" flags="0x0"/>
      <component glyphName="uni0306.case" x="458" y="0" flags="0x0"/>
    </TTGlyph>
    <TTGlyph name="Ocircumflex" xMin="40" yMin="-11" xMax="612" yMax="848">
      <contour>
        <pt x="324" y="796" on="1"/>
        <pt x="365" y="829" on="0"/>
        <pt x="392" y="848" on="0"/>
        <pt x="399" y="848" on="1"/>
        <pt x="411" y="847" on="0"/>
        <pt x="460" y="802" on="1"/>
        <pt x="528" y="740" on="1"/>
        <pt x="493" y="697" on="1"/>
        <pt x="385" y="762" on="1"/>
        <pt x="273" y="702" on="1"/>
        <pt x="247" y="737" on="1"/>
      </contour>
      <contour>
        <pt x="167" y="-11" on="0"/>
        <pt x="40" y="125" on="0"/>
        <pt x="40" y="248" on="1"/>
        <pt x="40" y="364" on="0"/>
        <pt x="121" y="552" on="0"/>
        <pt x="269" y="660" on="0"/>
        <pt x="366" y="660" on="1"/>
        <pt x="488" y="660" on="0"/>
        <pt x="612" y="521" on="0"/>
        <pt x="612" y="402" on="1"/>
        <pt x="612" y="288" on="0"/>
        <pt x="537" y="100" on="0"/>
        <pt x="386" y="-11" on="0"/>
        <pt x="277" y="-11" on="1"/>
      </contour>
      <contour>
        <pt x="410" y="44" on="0"/>
        <pt x="503" y="224" on="0"/>
        <pt x="503" y="398" on="1"/>
        <pt x="503" y="510" on="0"/>
        <pt x="429" y="605" on="0"/>
        <pt x="347" y="605" on="1"/>
        <pt x="244" y="605" on="0"/>
        <pt x="148" y="430" on="0"/>
        <pt x="148" y="263" on="1"/>
        <pt x="148" y="145" on="0"/>
        <pt x="219" y="44" on="0"/>
        <pt x="303" y="44" on="1"/>
      </contour>
    </TTGlyph>
    <TTGlyph name="Odieresis" xMin="40" yMin="-11" xMax="612" yMax="828">
      <contour>
        <pt x="257" y="704" on="0"/>
        <pt x="227" y="737" on="0"/>
        <pt x="227" y="762" on="1"/>
        <pt x="227" y="789" on="0"/>
        <pt x="260" y="828" on="0"/>
        <pt x="287" y="828" on="1"/>
        <pt x="312" y="828" on="0"/>
        <pt x="342" y="797" on="0"/>
        <pt x="342" y="771" on="1"/>
        <pt x="342" y="743" on="0"/>
        <pt x="309" y="704" on="0"/>
        <pt x="281" y="704" on="1"/>
      </contour>
      <contour>
        <pt x="472" y="704" on="0"/>
        <pt x="441" y="737" on="0"/>
        <pt x="441" y="762" on="1"/>
        <pt x="441" y="789" on="0"/>
        <pt x="475" y="828" on="0"/>
        <pt x="502" y="828" on="1"/>
        <pt x="526" y="828" on="0"/>
        <pt x="557" y="797" on="0"/>
        <pt x="557" y="771" on="1"/>
        <pt x="557" y="743" on="0"/>
        <pt x="524" y="704" on="0"/>
        <pt x="496" y="704" on="1"/>
      </contour>
      <contour>
        <pt x="167" y="-11" on="0"/>
        <pt x="40" y="125" on="0"/>
        <pt x="40" y="248" on="1"/>
        <pt x="40" y="364" on="0"/>
        <pt x="121" y="552" on="0"/>
        <pt x="269" y="660" on="0"/>
        <pt x="366" y="660" on="1"/>
        <pt x="488" y="660" on="0"/>
        <pt x="612" y="521" on="0"/>
        <pt x="612" y="402" on="1"/>
        <pt x="612" y="288" on="0"/>
        <pt x="537" y="100" on="0"/>
        <pt x="386" y="-11" on="0"/>
        <pt x="277" y="-11" on="1"/>
      </contour>
      <contour>
        <pt x="410" y="44" on="0"/>
        <pt x="503" y="224" on="0"/>
        <pt x="503" y="398" on="1"/>
        <pt x="503" y="510" on="0"/>
        <pt x="429" y="605" on="0"/>
        <pt x="347" y="605" on="1"/>
        <pt x="244" y="605" on="0"/>
        <pt x="148" y="430" on="0"/>
        <pt x="148" y="263" on="1"/>
        <pt x="148" y="145" on="0"/>
        <pt x="219" y="44" on="0"/>
        <pt x="303" y="44" on="1"/>
      </contour>
    </TTGlyph>
    <TTGlyph name="Ograve" xMin="40" yMin="-11" xMax="612" yMax="850">
      <contour>
        <pt x="288" y="756" on="0"/>
        <pt x="266" y="778" on="0"/>
        <pt x="266" y="795" on="1"/>
        <pt x="266" y="813" on="0"/>
        <pt x="285" y="842" on="0"/>
        <pt x="301" y="850" on="1"/>
        <pt x="475" y="730" on="1"/>
        <pt x="452" y="692" on="1"/>
        <pt x="314" y="746" on="1"/>
      </contour>
      <contour>
        <pt x="167" y="-11" on="0"/>
        <pt x="40" y="125" on="0"/>
        <pt x="40" y="248" on="1"/>
        <pt x="40" y="364" on="0"/>
        <pt x="121" y="552" on="0"/>
        <pt x="269" y="660" on="0"/>
        <pt x="366" y="660" on="1"/>
        <pt x="488" y="660" on="0"/>
        <pt x="612" y="521" on="0"/>
        <pt x="612" y="402" on="1"/>
        <pt x="612" y="288" on="0"/>
        <pt x="537" y="100" on="0"/>
        <pt x="386" y="-11" on="0"/>
        <pt x="277" y="-11" on="1"/>
      </contour>
      <contour>
        <pt x="410" y="44" on="0"/>
        <pt x="503" y="224" on="0"/>
        <pt x="503" y="398" on="1"/>
        <pt x="503" y="510" on="0"/>
        <pt x="429" y="605" on="0"/>
        <pt x="347" y="605" on="1"/>
        <pt x="244" y="605" on="0"/>
        <pt x="148" y="430" on="0"/>
        <pt x="148" y="263" on="1"/>
        <pt x="148" y="145" on="0"/>
        <pt x="219" y="44" on="0"/>
        <pt x="303" y="44" on="1"/>
      </contour>
    </TTGlyph>
    <TTGlyph name="Ohorn" xMin="40" yMin="-11" xMax="763" yMax="720">
      <contour>
        <pt x="763" y="622" on="0"/>
        <pt x="689" y="533" on="0"/>
        <pt x="603" y="483" on="1"/>
        <pt x="612" y="446" on="0"/>
        <pt x="612" y="402" on="1"/>
        <pt x="612" y="288" on="0"/>
        <pt x="537" y="100" on="0"/>
        <pt x="386" y="-11" on="0"/>
        <pt x="277" y="-11" on="1"/>
        <pt x="167" y="-11" on="0"/>
        <pt x="40" y="125" on="0"/>
        <pt x="40" y="248" on="1"/>
        <pt x="40" y="364" on="0"/>
        <pt x="121" y="552" on="0"/>
        <pt x="269" y="660" on="0"/>
        <pt x="366" y="660" on="1"/>
        <pt x="455" y="660" on="0"/>
        <pt x="570" y="584" on="0"/>
        <pt x="595" y="514" on="1"/>
        <pt x="689" y="577" on="0"/>
        <pt x="689" y="631" on="1"/>
        <pt x="689" y="642" on="0"/>
        <pt x="680" y="656" on="0"/>
        <pt x="670" y="663" on="1"/>
        <pt x="670" y="678" on="1"/>
        <pt x="731" y="720" on="1"/>
        <pt x="746" y="708" on="0"/>
        <pt x="763" y="684" on="0"/>
        <pt x="763" y="658" on="1"/>
      </contour>
      <contour>
        <pt x="410" y="44" on="0"/>
        <pt x="503" y="224" on="0"/>
        <pt x="503" y="398" on="1"/>
        <pt x="503" y="510" on="0"/>
        <pt x="429" y="605" on="0"/>
        <pt x="347" y="605" on="1"/>
        <pt x="244" y="605" on="0"/>
        <pt x="148" y="430" on="0"/>
        <pt x="148" y="263" on="1"/>
        <pt x="148" y="145" on="0"/>
        <pt x="219" y="44" on="0"/>
        <pt x="303" y="44" on="1"/>
      </contour>
    </TTGlyph>
    <TTGlyph name="Ohungarumlaut" xMin="40" yMin="-11" xMax="612" yMax="839">
      <contour>
        <pt x="230" y="700" on="1"/>
        <pt x="329" y="839" on="1"/>
        <pt x="355" y="835" on="0"/>
        <pt x="384" y="808" on="0"/>
        <pt x="384" y="791" on="1"/>
        <pt x="383" y="777" on="0"/>
        <pt x="354" y="742" on="0"/>
        <pt x="336" y="728" on="1"/>
        <pt x="261" y="673" on="1"/>
      </contour>
      <contour>
        <pt x="393" y="700" on="1"/>
        <pt x="492" y="839" on="1"/>
        <pt x="518" y="835" on="0"/>
        <pt x="548" y="808" on="0"/>
        <pt x="548" y="791" on="1"/>
        <pt x="547" y="777" on="0"/>
        <pt x="518" y="742" on="0"/>
        <pt x="500" y="728" on="1"/>
        <pt x="424" y="673" on="1"/>
      </contour>
      <contour>
        <pt x="167" y="-11" on="0"/>
        <pt x="40" y="125" on="0"/>
        <pt x="40" y="248" on="1"/>
        <pt x="40" y="364" on="0"/>
        <pt x="121" y="552" on="0"/>
        <pt x="269" y="660" on="0"/>
        <pt x="366" y="660" on="1"/>
        <pt x="488" y="660" on="0"/>
        <pt x="612" y="521" on="0"/>
        <pt x="612" y="402" on="1"/>
        <pt x="612" y="288" on="0"/>
        <pt x="537" y="100" on="0"/>
        <pt x="386" y="-11" on="0"/>
        <pt x="277" y="-11" on="1"/>
      </contour>
      <contour>
        <pt x="410" y="44" on="0"/>
        <pt x="503" y="224" on="0"/>
        <pt x="503" y="398" on="1"/>
        <pt x="503" y="510" on="0"/>
        <pt x="429" y="605" on="0"/>
        <pt x="347" y="605" on="1"/>
        <pt x="244" y="605" on="0"/>
        <pt x="148" y="430" on="0"/>
        <pt x="148" y="263" on="1"/>
        <pt x="148" y="145" on="0"/>
        <pt x="219" y="44" on="0"/>
        <pt x="303" y="44" on="1"/>
      </contour>
    </TTGlyph>
    <TTGlyph name="Omacron" xMin="40" yMin="-11" xMax="612" yMax="787">
      <contour>
        <pt x="539" y="787" on="1"/>
        <pt x="531" y="718" on="1"/>
        <pt x="229" y="718" on="1"/>
        <pt x="237" y="787" on="1"/>
      </contour>
      <contour>
        <pt x="167" y="-11" on="0"/>
        <pt x="40" y="125" on="0"/>
        <pt x="40" y="248" on="1"/>
        <pt x="40" y="364" on="0"/>
        <pt x="121" y="552" on="0"/>
        <pt x="269" y="660" on="0"/>
        <pt x="366" y="660" on="1"/>
        <pt x="488" y="660" on="0"/>
        <pt x="612" y="521" on="0"/>
        <pt x="612" y="402" on="1"/>
        <pt x="612" y="288" on="0"/>
        <pt x="537" y="100" on="0"/>
        <pt x="386" y="-11" on="0"/>
        <pt x="277" y="-11" on="1"/>
      </contour>
      <contour>
        <pt x="410" y="44" on="0"/>
        <pt x="503" y="224" on="0"/>
        <pt x="503" y="398" on="1"/>
        <pt x="503" y="510" on="0"/>
        <pt x="429" y="605" on="0"/>
        <pt x="347" y="605" on="1"/>
        <pt x="244" y="605" on="0"/>
        <pt x="148" y="430" on="0"/>
        <pt x="148" y="263" on="1"/>
        <pt x="148" y="145" on="0"/>
        <pt x="219" y="44" on="0"/>
        <pt x="303" y="44" on="1"/>
      </contour>
    </TTGlyph>
    <TTGlyph name="Oslash" xMin="40" yMin="-93" xMax="612" yMax="734">
      <contour>
        <pt x="115" y="-67" on="1"/>
        <pt x="154" y="18" on="1"/>
        <pt x="99" y="47" on="0"/>
        <pt x="40" y="165" on="0"/>
        <pt x="40" y="248" on="1"/>
        <pt x="40" y="364" on="0"/>
        <pt x="121" y="552" on="0"/>
        <pt x="269" y="660" on="0"/>
        <pt x="366" y="660" on="1"/>
        <pt x="411" y="660" on="0"/>
        <pt x="445" y="650" on="1"/>
        <pt x="483" y="734" on="1"/>
        <pt x="535" y="708" on="1"/>
        <pt x="499" y="630" on="1"/>
        <pt x="555" y="598" on="0"/>
        <pt x="612" y="481" on="0"/>
        <pt x="612" y="402" on="1"/>
        <pt x="612" y="288" on="0"/>
        <pt x="537" y="100" on="0"/>
        <pt x="386" y="-11" on="0"/>
        <pt x="277" y="-11" on="1"/>
        <pt x="244" y="-11" on="0"/>
        <pt x="210" y="-3" on="1"/>
        <pt x="170" y="-93" on="1"/>
      </contour>
      <contour>
        <pt x="418" y="593" on="1"/>
        <pt x="384" y="605" on="0"/>
        <pt x="347" y="605" on="1"/>
        <pt x="245" y="605" on="0"/>
        <pt x="150" y="431" on="0"/>
        <pt x="148" y="263" on="1"/>
        <pt x="148" y="201" on="0"/>
        <pt x="167" y="118" on="0"/>
        <pt x="188" y="93" on="1"/>
      </contour>
      <contour>
        <pt x="410" y="44" on="0"/>
        <pt x="503" y="224" on="0"/>
        <pt x="503" y="398" on="1"/>
        <pt x="503" y="511" on="0"/>
        <pt x="465" y="556" on="1"/>
        <pt x="236" y="55" on="1"/>
        <pt x="267" y="44" on="0"/>
        <pt x="303" y="44" on="1"/>
      </contour>
    </TTGlyph>
    <TTGlyph name="Oslashacute" xMin="40" yMin="-93" xMax="612" yMax="837">
      <component glyphName=".ttfautohint" x="40" y="0" flags="0x0"/>
      <component glyphName="Oslash" x="0" y="0" flags="0x0"/>
      <component glyphName="acutecomb.case" x="389" y="0" flags="0x0"/>
    </TTGlyph>
    <TTGlyph name="Otilde" xMin="40" yMin="-11" xMax="612" yMax="833">
      <contour>
        <pt x="253" y="796" on="1"/>
        <pt x="283" y="833" on="0"/>
        <pt x="311" y="833" on="1"/>
        <pt x="330" y="833" on="0"/>
        <pt x="381" y="816" on="0"/>
        <pt x="385" y="815" on="1"/>
        <pt x="462" y="788" on="1"/>
        <pt x="543" y="825" on="1"/>
        <pt x="568" y="797" on="1"/>
        <pt x="527" y="747" on="1"/>
        <pt x="511" y="729" on="0"/>
        <pt x="483" y="710" on="0"/>
        <pt x="468" y="710" on="1"/>
        <pt x="454" y="710" on="0"/>
        <pt x="414" y="722" on="0"/>
        <pt x="395" y="728" on="1"/>
        <pt x="317" y="755" on="1"/>
        <pt x="237" y="718" on="1"/>
        <pt x="212" y="746" on="1"/>
      </contour>
      <contour>
        <pt x="167" y="-11" on="0"/>
        <pt x="40" y="125" on="0"/>
        <pt x="40" y="248" on="1"/>
        <pt x="40" y="364" on="0"/>
        <pt x="121" y="552" on="0"/>
        <pt x="269" y="660" on="0"/>
        <pt x="366" y="660" on="1"/>
        <pt x="488" y="660" on="0"/>
        <pt x="612" y="521" on="0"/>
        <pt x="612" y="402" on="1"/>
        <pt x="612" y="288" on="0"/>
        <pt x="537" y="100" on="0"/>
        <pt x="386" y="-11" on="0"/>
        <pt x="277" y="-11" on="1"/>
      </contour>
      <contour>
        <pt x="410" y="44" on="0"/>
        <pt x="503" y="224" on="0"/>
        <pt x="503" y="398" on="1"/>
        <pt x="503" y="510" on="0"/>
        <pt x="429" y="605" on="0"/>
        <pt x="347" y="605" on="1"/>
        <pt x="244" y="605" on="0"/>
        <pt x="148" y="430" on="0"/>
        <pt x="148" y="263" on="1"/>
        <pt x="148" y="145" on="0"/>
        <pt x="219" y="44" on="0"/>
        <pt x="303" y="44" on="1"/>
      </contour>
    </TTGlyph>
    <TTGlyph name="P" xMin="7" yMin="0" xMax="519" yMax="648">
      <contour>
        <pt x="13" y="43" on="1"/>
        <pt x="84" y="57" on="1"/>
        <pt x="159" y="591" on="1"/>
        <pt x="91" y="605" on="1"/>
        <pt x="96" y="648" on="1"/>
        <pt x="311" y="648" on="1"/>
        <pt x="519" y="648" on="0"/>
        <pt x="519" y="486" on="1"/>
        <pt x="519" y="386" on="0"/>
        <pt x="385" y="267" on="0"/>
        <pt x="257" y="266" on="1"/>
        <pt x="243" y="266" on="1"/>
        <pt x="243" y="304" on="1"/>
        <pt x="338" y="307" on="0"/>
        <pt x="415" y="400" on="0"/>
        <pt x="415" y="478" on="1"/>
        <pt x="415" y="542" on="0"/>
        <pt x="358" y="594" on="0"/>
        <pt x="298" y="594" on="1"/>
        <pt x="271" y="594" on="0"/>
        <pt x="255" y="590" on="1"/>
        <pt x="180" y="57" on="1"/>
        <pt x="263" y="43" on="1"/>
        <pt x="259" y="0" on="1"/>
        <pt x="7" y="0" on="1"/>
      </contour>
    </TTGlyph>
    <TTGlyph name="Q" xMin="40" yMin="-171" xMax="612" yMax="660">
      <contour>
        <pt x="262" y="-11" on="1"/>
        <pt x="158" y="-6" on="0"/>
        <pt x="40" y="129" on="0"/>
        <pt x="40" y="248" on="1"/>
        <pt x="40" y="364" on="0"/>
        <pt x="121" y="552" on="0"/>
        <pt x="269" y="660" on="0"/>
        <pt x="366" y="660" on="1"/>
        <pt x="488" y="660" on="0"/>
        <pt x="612" y="521" on="0"/>
        <pt x="612" y="402" on="1"/>
        <pt x="612" y="295" on="0"/>
        <pt x="545" y="115" on="0"/>
        <pt x="411" y="0" on="0"/>
        <pt x="314" y="-9" on="1"/>
        <pt x="278" y="-48" on="1"/>
        <pt x="295" y="-50" on="0"/>
        <pt x="328" y="-58" on="1"/>
        <pt x="502" y="-98" on="1"/>
        <pt x="560" y="-69" on="1"/>
        <pt x="583" y="-93" on="1"/>
        <pt x="539" y="-150" on="1"/>
        <pt x="523" y="-171" on="0"/>
        <pt x="489" y="-171" on="1"/>
        <pt x="476" y="-171" on="0"/>
        <pt x="429" y="-160" on="0"/>
        <pt x="420" y="-158" on="1"/>
        <pt x="245" y="-119" on="1"/>
        <pt x="190" y="-144" on="1"/>
        <pt x="165" y="-112" on="1"/>
      </contour>
      <contour>
        <pt x="410" y="44" on="0"/>
        <pt x="503" y="224" on="0"/>
        <pt x="503" y="398" on="1"/>
        <pt x="503" y="510" on="0"/>
        <pt x="429" y="605" on="0"/>
        <pt x="347" y="605" on="1"/>
        <pt x="244" y="605" on="0"/>
        <pt x="148" y="430" on="0"/>
        <pt x="148" y="263" on="1"/>
        <pt x="148" y="145" on="0"/>
        <pt x="219" y="44" on="0"/>
        <pt x="303" y="44" on="1"/>
      </contour>
    </TTGlyph>
    <TTGlyph name="R" xMin="7" yMin="0" xMax="523" yMax="648">
      <contour>
        <pt x="13" y="43" on="1"/>
        <pt x="84" y="57" on="1"/>
        <pt x="159" y="591" on="1"/>
        <pt x="91" y="605" on="1"/>
        <pt x="96" y="648" on="1"/>
        <pt x="332" y="648" on="1"/>
        <pt x="414" y="648" on="0"/>
        <pt x="506" y="575" on="0"/>
        <pt x="506" y="503" on="1"/>
        <pt x="505" y="428" on="0"/>
        <pt x="406" y="320" on="0"/>
        <pt x="321" y="298" on="1"/>
        <pt x="343" y="285" on="0"/>
        <pt x="373" y="242" on="0"/>
        <pt x="388" y="206" on="1"/>
        <pt x="450" y="67" on="1"/>
        <pt x="523" y="41" on="1"/>
        <pt x="519" y="0" on="1"/>
        <pt x="410" y="0" on="1"/>
        <pt x="393" y="0" on="0"/>
        <pt x="367" y="16" on="0"/>
        <pt x="361" y="32" on="1"/>
        <pt x="301" y="175" on="1"/>
        <pt x="276" y="232" on="0"/>
        <pt x="242" y="278" on="0"/>
        <pt x="211" y="281" on="1"/>
        <pt x="179" y="55" on="1"/>
        <pt x="245" y="41" on="1"/>
        <pt x="241" y="0" on="1"/>
        <pt x="7" y="0" on="1"/>
      </contour>
      <contour>
        <pt x="309" y="330" on="0"/>
        <pt x="404" y="415" on="0"/>
        <pt x="404" y="487" on="1"/>
        <pt x="404" y="539" on="0"/>
        <pt x="362" y="594" on="0"/>
        <pt x="309" y="594" on="1"/>
        <pt x="287" y="594" on="0"/>
        <pt x="258" y="591" on="0"/>
        <pt x="255" y="590" on="1"/>
        <pt x="217" y="330" on="1"/>
      </contour>
    </TTGlyph>
    <TTGlyph name="Racute" xMin="6" yMin="0" xMax="522" yMax="837">
      <contour>
        <pt x="230" y="718" on="1"/>
        <pt x="404" y="837" on="1"/>
        <pt x="420" y="829" on="0"/>
        <pt x="439" y="800" on="0"/>
        <pt x="439" y="783" on="1"/>
        <pt x="439" y="766" on="0"/>
        <pt x="417" y="743" on="0"/>
        <pt x="391" y="733" on="1"/>
        <pt x="253" y="679" on="1"/>
      </contour>
      <contour>
        <pt x="12" y="43" on="1"/>
        <pt x="83" y="57" on="1"/>
        <pt x="158" y="591" on="1"/>
        <pt x="90" y="605" on="1"/>
        <pt x="95" y="648" on="1"/>
        <pt x="331" y="648" on="1"/>
        <pt x="413" y="648" on="0"/>
        <pt x="505" y="575" on="0"/>
        <pt x="505" y="503" on="1"/>
        <pt x="504" y="428" on="0"/>
        <pt x="405" y="320" on="0"/>
        <pt x="320" y="298" on="1"/>
        <pt x="342" y="285" on="0"/>
        <pt x="372" y="242" on="0"/>
        <pt x="388" y="206" on="1"/>
        <pt x="449" y="67" on="1"/>
        <pt x="522" y="41" on="1"/>
        <pt x="518" y="0" on="1"/>
        <pt x="409" y="0" on="1"/>
        <pt x="392" y="0" on="0"/>
        <pt x="366" y="16" on="0"/>
        <pt x="360" y="32" on="1"/>
        <pt x="300" y="175" on="1"/>
        <pt x="282" y="216" on="0"/>
        <pt x="262" y="255" on="0"/>
        <pt x="232" y="279" on="0"/>
        <pt x="210" y="281" on="1"/>
        <pt x="178" y="55" on="1"/>
        <pt x="244" y="41" on="1"/>
        <pt x="240" y="0" on="1"/>
        <pt x="6" y="0" on="1"/>
      </contour>
      <contour>
        <pt x="308" y="330" on="0"/>
        <pt x="403" y="415" on="0"/>
        <pt x="403" y="487" on="1"/>
        <pt x="403" y="539" on="0"/>
        <pt x="361" y="594" on="0"/>
        <pt x="308" y="594" on="1"/>
        <pt x="285" y="594" on="0"/>
        <pt x="257" y="591" on="0"/>
        <pt x="254" y="590" on="1"/>
        <pt x="216" y="330" on="1"/>
      </contour>
    </TTGlyph>
    <TTGlyph name="Rcaron" xMin="6" yMin="0" xMax="522" yMax="838">
      <contour>
        <pt x="298" y="685" on="0"/>
        <pt x="253" y="727" on="0"/>
        <pt x="250" y="730" on="1"/>
        <pt x="183" y="795" on="1"/>
        <pt x="220" y="836" on="1"/>
        <pt x="322" y="770" on="1"/>
        <pt x="431" y="838" on="1"/>
        <pt x="456" y="803" on="1"/>
        <pt x="383" y="738" on="1"/>
        <pt x="326" y="685" on="0"/>
        <pt x="309" y="685" on="1"/>
      </contour>
      <contour>
        <pt x="12" y="43" on="1"/>
        <pt x="83" y="57" on="1"/>
        <pt x="158" y="591" on="1"/>
        <pt x="90" y="605" on="1"/>
        <pt x="95" y="648" on="1"/>
        <pt x="331" y="648" on="1"/>
        <pt x="413" y="648" on="0"/>
        <pt x="505" y="575" on="0"/>
        <pt x="505" y="503" on="1"/>
        <pt x="504" y="428" on="0"/>
        <pt x="405" y="320" on="0"/>
        <pt x="320" y="298" on="1"/>
        <pt x="342" y="285" on="0"/>
        <pt x="372" y="242" on="0"/>
        <pt x="388" y="206" on="1"/>
        <pt x="449" y="67" on="1"/>
        <pt x="522" y="41" on="1"/>
        <pt x="518" y="0" on="1"/>
        <pt x="409" y="0" on="1"/>
        <pt x="392" y="0" on="0"/>
        <pt x="366" y="16" on="0"/>
        <pt x="360" y="32" on="1"/>
        <pt x="300" y="175" on="1"/>
        <pt x="282" y="216" on="0"/>
        <pt x="262" y="255" on="0"/>
        <pt x="232" y="279" on="0"/>
        <pt x="210" y="281" on="1"/>
        <pt x="178" y="55" on="1"/>
        <pt x="244" y="41" on="1"/>
        <pt x="240" y="0" on="1"/>
        <pt x="6" y="0" on="1"/>
      </contour>
      <contour>
        <pt x="308" y="330" on="0"/>
        <pt x="403" y="415" on="0"/>
        <pt x="403" y="487" on="1"/>
        <pt x="403" y="539" on="0"/>
        <pt x="361" y="594" on="0"/>
        <pt x="308" y="594" on="1"/>
        <pt x="285" y="594" on="0"/>
        <pt x="257" y="591" on="0"/>
        <pt x="254" y="590" on="1"/>
        <pt x="216" y="330" on="1"/>
      </contour>
    </TTGlyph>
    <TTGlyph name="Rcommaaccent" xMin="6" yMin="-205" xMax="522" yMax="648">
      <contour>
        <pt x="12" y="43" on="1"/>
        <pt x="83" y="57" on="1"/>
        <pt x="158" y="591" on="1"/>
        <pt x="90" y="605" on="1"/>
        <pt x="95" y="648" on="1"/>
        <pt x="331" y="648" on="1"/>
        <pt x="413" y="648" on="0"/>
        <pt x="505" y="575" on="0"/>
        <pt x="505" y="503" on="1"/>
        <pt x="504" y="428" on="0"/>
        <pt x="405" y="320" on="0"/>
        <pt x="320" y="298" on="1"/>
        <pt x="342" y="285" on="0"/>
        <pt x="372" y="242" on="0"/>
        <pt x="388" y="206" on="1"/>
        <pt x="449" y="67" on="1"/>
        <pt x="522" y="41" on="1"/>
        <pt x="518" y="0" on="1"/>
        <pt x="409" y="0" on="1"/>
        <pt x="392" y="0" on="0"/>
        <pt x="366" y="16" on="0"/>
        <pt x="360" y="32" on="1"/>
        <pt x="300" y="175" on="1"/>
        <pt x="282" y="216" on="0"/>
        <pt x="262" y="255" on="0"/>
        <pt x="232" y="279" on="0"/>
        <pt x="210" y="281" on="1"/>
        <pt x="178" y="55" on="1"/>
        <pt x="244" y="41" on="1"/>
        <pt x="240" y="0" on="1"/>
        <pt x="6" y="0" on="1"/>
      </contour>
      <contour>
        <pt x="308" y="330" on="0"/>
        <pt x="403" y="415" on="0"/>
        <pt x="403" y="487" on="1"/>
        <pt x="403" y="539" on="0"/>
        <pt x="361" y="594" on="0"/>
        <pt x="308" y="594" on="1"/>
        <pt x="285" y="594" on="0"/>
        <pt x="257" y="591" on="0"/>
        <pt x="254" y="590" on="1"/>
        <pt x="216" y="330" on="1"/>
      </contour>
      <contour>
        <pt x="204" y="-185" on="1"/>
        <pt x="207" y="-182" on="0"/>
        <pt x="225" y="-162" on="0"/>
        <pt x="241" y="-129" on="0"/>
        <pt x="241" y="-111" on="1"/>
        <pt x="241" y="-79" on="0"/>
        <pt x="218" y="-56" on="1"/>
        <pt x="236" y="-30" on="0"/>
        <pt x="266" y="-30" on="1"/>
        <pt x="291" y="-30" on="0"/>
        <pt x="321" y="-60" on="0"/>
        <pt x="321" y="-89" on="1"/>
        <pt x="321" y="-132" on="0"/>
        <pt x="251" y="-192" on="0"/>
        <pt x="223" y="-205" on="1"/>
      </contour>
    </TTGlyph>
    <TTGlyph name="S" xMin="5" yMin="-11" xMax="436" yMax="660">
      <contour>
        <pt x="119" y="-11" on="0"/>
        <pt x="23" y="20" on="0"/>
        <pt x="5" y="36" on="1"/>
        <pt x="22" y="188" on="1"/>
        <pt x="77" y="188" on="1"/>
        <pt x="88" y="74" on="1"/>
        <pt x="101" y="61" on="0"/>
        <pt x="155" y="45" on="0"/>
        <pt x="185" y="45" on="1"/>
        <pt x="249" y="45" on="0"/>
        <pt x="309" y="99" on="0"/>
        <pt x="309" y="146" on="1"/>
        <pt x="309" y="183" on="0"/>
        <pt x="263" y="245" on="0"/>
        <pt x="209" y="290" on="1"/>
        <pt x="156" y="335" on="0"/>
        <pt x="103" y="387" on="0"/>
        <pt x="67" y="450" on="0"/>
        <pt x="67" y="487" on="1"/>
        <pt x="67" y="570" on="0"/>
        <pt x="180" y="660" on="0"/>
        <pt x="278" y="660" on="1"/>
        <pt x="323" y="660" on="0"/>
        <pt x="410" y="646" on="0"/>
        <pt x="436" y="637" on="1"/>
        <pt x="419" y="478" on="1"/>
        <pt x="368" y="478" on="1"/>
        <pt x="359" y="583" on="1"/>
        <pt x="341" y="593" on="0"/>
        <pt x="283" y="605" on="0"/>
        <pt x="257" y="605" on="1"/>
        <pt x="155" y="605" on="0"/>
        <pt x="155" y="524" on="1"/>
        <pt x="155" y="491" on="0"/>
        <pt x="208" y="429" on="0"/>
        <pt x="268" y="378" on="1"/>
        <pt x="331" y="324" on="0"/>
        <pt x="397" y="240" on="0"/>
        <pt x="397" y="189" on="1"/>
        <pt x="397" y="96" on="0"/>
        <pt x="275" y="-11" on="0"/>
        <pt x="171" y="-11" on="1"/>
      </contour>
    </TTGlyph>
    <TTGlyph name="Sacute" xMin="5" yMin="-11" xMax="436" yMax="836">
      <contour>
        <pt x="198" y="717" on="1"/>
        <pt x="372" y="836" on="1"/>
        <pt x="387" y="829" on="0"/>
        <pt x="407" y="799" on="0"/>
        <pt x="407" y="782" on="1"/>
        <pt x="407" y="765" on="0"/>
        <pt x="385" y="743" on="0"/>
        <pt x="358" y="733" on="1"/>
        <pt x="220" y="678" on="1"/>
      </contour>
      <contour>
        <pt x="119" y="-11" on="0"/>
        <pt x="23" y="20" on="0"/>
        <pt x="5" y="36" on="1"/>
        <pt x="22" y="188" on="1"/>
        <pt x="77" y="188" on="1"/>
        <pt x="88" y="74" on="1"/>
        <pt x="88" y="73" on="0"/>
        <pt x="112" y="58" on="0"/>
        <pt x="155" y="45" on="0"/>
        <pt x="185" y="45" on="1"/>
        <pt x="249" y="45" on="0"/>
        <pt x="309" y="99" on="0"/>
        <pt x="309" y="146" on="1"/>
        <pt x="309" y="183" on="0"/>
        <pt x="263" y="245" on="0"/>
        <pt x="208" y="292" on="1"/>
        <pt x="156" y="336" on="0"/>
        <pt x="102" y="388" on="0"/>
        <pt x="67" y="450" on="0"/>
        <pt x="67" y="487" on="1"/>
        <pt x="67" y="570" on="0"/>
        <pt x="180" y="660" on="0"/>
        <pt x="278" y="660" on="1"/>
        <pt x="323" y="660" on="0"/>
        <pt x="410" y="646" on="0"/>
        <pt x="436" y="637" on="1"/>
        <pt x="419" y="478" on="1"/>
        <pt x="368" y="478" on="1"/>
        <pt x="359" y="583" on="1"/>
        <pt x="350" y="589" on="0"/>
        <pt x="292" y="605" on="0"/>
        <pt x="257" y="605" on="1"/>
        <pt x="155" y="605" on="0"/>
        <pt x="155" y="524" on="1"/>
        <pt x="155" y="490" on="0"/>
        <pt x="207" y="430" on="0"/>
        <pt x="271" y="375" on="1"/>
        <pt x="333" y="321" on="0"/>
        <pt x="397" y="239" on="0"/>
        <pt x="397" y="189" on="1"/>
        <pt x="397" y="96" on="0"/>
        <pt x="275" y="-11" on="0"/>
        <pt x="171" y="-11" on="1"/>
      </contour>
    </TTGlyph>
    <TTGlyph name="Sacute.loclPLK" xMin="5" yMin="-11" xMax="436" yMax="856">
      <contour>
        <pt x="373" y="856" on="1"/>
        <pt x="396" y="853" on="0"/>
        <pt x="427" y="821" on="0"/>
        <pt x="427" y="802" on="1"/>
        <pt x="427" y="780" on="0"/>
        <pt x="395" y="754" on="1"/>
        <pt x="294" y="667" on="1"/>
        <pt x="258" y="700" on="1"/>
      </contour>
      <contour>
        <pt x="119" y="-11" on="0"/>
        <pt x="23" y="20" on="0"/>
        <pt x="5" y="36" on="1"/>
        <pt x="22" y="188" on="1"/>
        <pt x="77" y="188" on="1"/>
        <pt x="88" y="74" on="1"/>
        <pt x="101" y="61" on="0"/>
        <pt x="155" y="45" on="0"/>
        <pt x="185" y="45" on="1"/>
        <pt x="249" y="45" on="0"/>
        <pt x="309" y="99" on="0"/>
        <pt x="309" y="146" on="1"/>
        <pt x="309" y="183" on="0"/>
        <pt x="263" y="245" on="0"/>
        <pt x="209" y="290" on="1"/>
        <pt x="156" y="335" on="0"/>
        <pt x="103" y="387" on="0"/>
        <pt x="67" y="450" on="0"/>
        <pt x="67" y="487" on="1"/>
        <pt x="67" y="570" on="0"/>
        <pt x="180" y="660" on="0"/>
        <pt x="278" y="660" on="1"/>
        <pt x="323" y="660" on="0"/>
        <pt x="410" y="646" on="0"/>
        <pt x="436" y="637" on="1"/>
        <pt x="419" y="478" on="1"/>
        <pt x="368" y="478" on="1"/>
        <pt x="359" y="583" on="1"/>
        <pt x="341" y="593" on="0"/>
        <pt x="283" y="605" on="0"/>
        <pt x="257" y="605" on="1"/>
        <pt x="155" y="605" on="0"/>
        <pt x="155" y="524" on="1"/>
        <pt x="155" y="491" on="0"/>
        <pt x="208" y="429" on="0"/>
        <pt x="268" y="378" on="1"/>
        <pt x="331" y="324" on="0"/>
        <pt x="397" y="240" on="0"/>
        <pt x="397" y="189" on="1"/>
        <pt x="397" y="96" on="0"/>
        <pt x="275" y="-11" on="0"/>
        <pt x="171" y="-11" on="1"/>
      </contour>
    </TTGlyph>
    <TTGlyph name="Scaron" xMin="5" yMin="-11" xMax="436" yMax="838">
      <contour>
        <pt x="275" y="685" on="0"/>
        <pt x="229" y="731" on="1"/>
        <pt x="162" y="796" on="1"/>
        <pt x="198" y="837" on="1"/>
        <pt x="301" y="770" on="1"/>
        <pt x="409" y="838" on="1"/>
        <pt x="434" y="804" on="1"/>
        <pt x="362" y="739" on="1"/>
        <pt x="303" y="685" on="0"/>
        <pt x="287" y="685" on="1"/>
      </contour>
      <contour>
        <pt x="119" y="-11" on="0"/>
        <pt x="23" y="20" on="0"/>
        <pt x="5" y="36" on="1"/>
        <pt x="22" y="188" on="1"/>
        <pt x="77" y="188" on="1"/>
        <pt x="88" y="74" on="1"/>
        <pt x="101" y="61" on="0"/>
        <pt x="155" y="45" on="0"/>
        <pt x="185" y="45" on="1"/>
        <pt x="249" y="45" on="0"/>
        <pt x="309" y="99" on="0"/>
        <pt x="309" y="146" on="1"/>
        <pt x="309" y="184" on="0"/>
        <pt x="260" y="248" on="0"/>
        <pt x="202" y="296" on="1"/>
        <pt x="153" y="338" on="0"/>
        <pt x="101" y="390" on="0"/>
        <pt x="67" y="451" on="0"/>
        <pt x="67" y="487" on="1"/>
        <pt x="67" y="570" on="0"/>
        <pt x="180" y="660" on="0"/>
        <pt x="278" y="660" on="1"/>
        <pt x="323" y="660" on="0"/>
        <pt x="410" y="646" on="0"/>
        <pt x="436" y="637" on="1"/>
        <pt x="419" y="478" on="1"/>
        <pt x="368" y="478" on="1"/>
        <pt x="359" y="583" on="1"/>
        <pt x="341" y="593" on="0"/>
        <pt x="283" y="605" on="0"/>
        <pt x="257" y="605" on="1"/>
        <pt x="155" y="605" on="0"/>
        <pt x="155" y="524" on="1"/>
        <pt x="155" y="492" on="0"/>
        <pt x="206" y="430" on="0"/>
        <pt x="260" y="385" on="1"/>
        <pt x="306" y="345" on="0"/>
        <pt x="359" y="292" on="0"/>
        <pt x="397" y="226" on="0"/>
        <pt x="397" y="189" on="1"/>
        <pt x="397" y="96" on="0"/>
        <pt x="275" y="-11" on="0"/>
        <pt x="171" y="-11" on="1"/>
      </contour>
    </TTGlyph>
    <TTGlyph name="Scedilla" xMin="5" yMin="-189" xMax="436" yMax="660">
      <contour>
        <pt x="108" y="-189" on="0"/>
        <pt x="68" y="-161" on="1"/>
        <pt x="90" y="-126" on="1"/>
        <pt x="103" y="-134" on="0"/>
        <pt x="131" y="-142" on="0"/>
        <pt x="155" y="-142" on="1"/>
        <pt x="191" y="-142" on="0"/>
        <pt x="191" y="-122" on="1"/>
        <pt x="191" y="-109" on="0"/>
        <pt x="168" y="-97" on="1"/>
        <pt x="117" y="-71" on="1"/>
        <pt x="117" y="-50" on="1"/>
        <pt x="145" y="-10" on="1"/>
        <pt x="100" y="-7" on="0"/>
        <pt x="21" y="22" on="0"/>
        <pt x="5" y="36" on="1"/>
        <pt x="22" y="188" on="1"/>
        <pt x="77" y="188" on="1"/>
        <pt x="88" y="74" on="1"/>
        <pt x="88" y="73" on="0"/>
        <pt x="112" y="58" on="0"/>
        <pt x="155" y="45" on="0"/>
        <pt x="185" y="45" on="1"/>
        <pt x="249" y="45" on="0"/>
        <pt x="309" y="99" on="0"/>
        <pt x="309" y="146" on="1"/>
        <pt x="309" y="181" on="0"/>
        <pt x="265" y="242" on="0"/>
        <pt x="214" y="286" on="1"/>
        <pt x="157" y="335" on="0"/>
        <pt x="104" y="385" on="0"/>
        <pt x="67" y="449" on="0"/>
        <pt x="67" y="487" on="1"/>
        <pt x="67" y="570" on="0"/>
        <pt x="180" y="660" on="0"/>
        <pt x="278" y="660" on="1"/>
        <pt x="323" y="660" on="0"/>
        <pt x="410" y="646" on="0"/>
        <pt x="436" y="637" on="1"/>
        <pt x="419" y="478" on="1"/>
        <pt x="368" y="478" on="1"/>
        <pt x="359" y="583" on="1"/>
        <pt x="350" y="589" on="0"/>
        <pt x="292" y="605" on="0"/>
        <pt x="257" y="605" on="1"/>
        <pt x="155" y="605" on="0"/>
        <pt x="155" y="524" on="1"/>
        <pt x="155" y="500" on="0"/>
        <pt x="186" y="453" on="0"/>
        <pt x="229" y="412" on="0"/>
        <pt x="278" y="370" on="1"/>
        <pt x="336" y="320" on="0"/>
        <pt x="397" y="238" on="0"/>
        <pt x="397" y="189" on="1"/>
        <pt x="397" y="102" on="0"/>
        <pt x="289" y="-3" on="0"/>
        <pt x="195" y="-10" on="1"/>
        <pt x="195" y="-29" on="1"/>
        <pt x="229" y="-49" on="1"/>
        <pt x="267" y="-71" on="0"/>
        <pt x="267" y="-102" on="1"/>
        <pt x="267" y="-150" on="0"/>
        <pt x="206" y="-189" on="0"/>
        <pt x="162" y="-189" on="1"/>
      </contour>
    </TTGlyph>
    <TTGlyph name="Scircumflex" xMin="5" yMin="-11" xMax="436" yMax="835">
      <component glyphName=".ttfautohint" x="5" y="0" flags="0x0"/>
      <component glyphName="S" x="0" y="0" flags="0x0"/>
      <component glyphName="uni0302.case" x="370" y="0" flags="0x0"/>
    </TTGlyph>
    <TTGlyph name="Scommaaccent" xMin="5" yMin="-205" xMax="436" yMax="660">
      <contour>
        <pt x="119" y="-11" on="0"/>
        <pt x="23" y="20" on="0"/>
        <pt x="5" y="36" on="1"/>
        <pt x="22" y="188" on="1"/>
        <pt x="77" y="188" on="1"/>
        <pt x="88" y="74" on="1"/>
        <pt x="88" y="73" on="0"/>
        <pt x="112" y="58" on="0"/>
        <pt x="155" y="45" on="0"/>
        <pt x="185" y="45" on="1"/>
        <pt x="249" y="45" on="0"/>
        <pt x="309" y="99" on="0"/>
        <pt x="309" y="146" on="1"/>
        <pt x="309" y="183" on="0"/>
        <pt x="264" y="243" on="0"/>
        <pt x="211" y="288" on="1"/>
        <pt x="195" y="302" on="1"/>
        <pt x="150" y="341" on="0"/>
        <pt x="99" y="392" on="0"/>
        <pt x="67" y="452" on="0"/>
        <pt x="67" y="487" on="1"/>
        <pt x="67" y="570" on="0"/>
        <pt x="180" y="660" on="0"/>
        <pt x="278" y="660" on="1"/>
        <pt x="323" y="660" on="0"/>
        <pt x="410" y="646" on="0"/>
        <pt x="436" y="637" on="1"/>
        <pt x="419" y="478" on="1"/>
        <pt x="368" y="478" on="1"/>
        <pt x="359" y="583" on="1"/>
        <pt x="350" y="589" on="0"/>
        <pt x="292" y="605" on="0"/>
        <pt x="257" y="605" on="1"/>
        <pt x="155" y="605" on="0"/>
        <pt x="155" y="524" on="1"/>
        <pt x="155" y="490" on="0"/>
        <pt x="209" y="429" on="0"/>
        <pt x="273" y="374" on="1"/>
        <pt x="334" y="320" on="0"/>
        <pt x="397" y="238" on="0"/>
        <pt x="397" y="189" on="1"/>
        <pt x="397" y="96" on="0"/>
        <pt x="275" y="-11" on="0"/>
        <pt x="171" y="-11" on="1"/>
      </contour>
      <contour>
        <pt x="104" y="-185" on="1"/>
        <pt x="107" y="-182" on="0"/>
        <pt x="124" y="-162" on="0"/>
        <pt x="140" y="-129" on="0"/>
        <pt x="140" y="-111" on="1"/>
        <pt x="140" y="-78" on="0"/>
        <pt x="118" y="-56" on="1"/>
        <pt x="124" y="-46" on="0"/>
        <pt x="149" y="-30" on="0"/>
        <pt x="166" y="-30" on="1"/>
        <pt x="191" y="-30" on="0"/>
        <pt x="220" y="-60" on="0"/>
        <pt x="220" y="-89" on="1"/>
        <pt x="220" y="-132" on="0"/>
        <pt x="150" y="-193" on="0"/>
        <pt x="123" y="-205" on="1"/>
      </contour>
    </TTGlyph>
    <TTGlyph name="T" xMin="32" yMin="0" xMax="529" yMax="648">
      <contour>
        <pt x="164" y="57" on="1"/>
        <pt x="240" y="592" on="1"/>
        <pt x="120" y="592" on="1"/>
        <pt x="83" y="478" on="1"/>
        <pt x="32" y="478" on="1"/>
        <pt x="51" y="648" on="1"/>
        <pt x="529" y="648" on="1"/>
        <pt x="501" y="478" on="1"/>
        <pt x="445" y="478" on="1"/>
        <pt x="449" y="592" on="1"/>
        <pt x="334" y="592" on="1"/>
        <pt x="260" y="57" on="1"/>
        <pt x="328" y="43" on="1"/>
        <pt x="324" y="0" on="1"/>
        <pt x="88" y="0" on="1"/>
        <pt x="93" y="43" on="1"/>
      </contour>
    </TTGlyph>
    <TTGlyph name="Tbar" xMin="32" yMin="0" xMax="529" yMax="648">
      <contour>
        <pt x="445" y="478" on="1"/>
        <pt x="449" y="592" on="1"/>
        <pt x="334" y="592" on="1"/>
        <pt x="302" y="364" on="1"/>
        <pt x="476" y="364" on="1"/>
        <pt x="468" y="307" on="1"/>
        <pt x="295" y="307" on="1"/>
        <pt x="260" y="57" on="1"/>
        <pt x="328" y="43" on="1"/>
        <pt x="324" y="0" on="1"/>
        <pt x="88" y="0" on="1"/>
        <pt x="93" y="43" on="1"/>
        <pt x="164" y="57" on="1"/>
        <pt x="200" y="307" on="1"/>
        <pt x="33" y="307" on="1"/>
        <pt x="41" y="364" on="1"/>
        <pt x="208" y="364" on="1"/>
        <pt x="240" y="592" on="1"/>
        <pt x="120" y="592" on="1"/>
        <pt x="83" y="478" on="1"/>
        <pt x="32" y="478" on="1"/>
        <pt x="51" y="648" on="1"/>
        <pt x="529" y="648" on="1"/>
        <pt x="501" y="478" on="1"/>
      </contour>
    </TTGlyph>
    <TTGlyph name="Tcaron" xMin="30" yMin="0" xMax="528" yMax="838">
      <contour>
        <pt x="286" y="685" on="0"/>
        <pt x="240" y="728" on="0"/>
        <pt x="238" y="730" on="1"/>
        <pt x="172" y="795" on="1"/>
        <pt x="208" y="836" on="1"/>
        <pt x="310" y="770" on="1"/>
        <pt x="419" y="838" on="1"/>
        <pt x="444" y="803" on="1"/>
        <pt x="372" y="738" on="1"/>
        <pt x="314" y="685" on="0"/>
        <pt x="297" y="685" on="1"/>
      </contour>
      <contour>
        <pt x="92" y="43" on="1"/>
        <pt x="163" y="57" on="1"/>
        <pt x="238" y="592" on="1"/>
        <pt x="119" y="592" on="1"/>
        <pt x="82" y="478" on="1"/>
        <pt x="30" y="478" on="1"/>
        <pt x="50" y="648" on="1"/>
        <pt x="528" y="648" on="1"/>
        <pt x="500" y="478" on="1"/>
        <pt x="443" y="478" on="1"/>
        <pt x="448" y="592" on="1"/>
        <pt x="333" y="592" on="1"/>
        <pt x="258" y="57" on="1"/>
        <pt x="327" y="43" on="1"/>
        <pt x="322" y="0" on="1"/>
        <pt x="87" y="0" on="1"/>
      </contour>
    </TTGlyph>
    <TTGlyph name="Thorn" xMin="6" yMin="0" xMax="487" yMax="648">
      <contour>
        <pt x="12" y="43" on="1"/>
        <pt x="83" y="57" on="1"/>
        <pt x="158" y="591" on="1"/>
        <pt x="89" y="605" on="1"/>
        <pt x="94" y="648" on="1"/>
        <pt x="329" y="648" on="1"/>
        <pt x="324" y="605" on="1"/>
        <pt x="253" y="591" on="1"/>
        <pt x="241" y="508" on="1"/>
        <pt x="295" y="508" on="1"/>
        <pt x="387" y="508" on="0"/>
        <pt x="487" y="435" on="0"/>
        <pt x="487" y="358" on="1"/>
        <pt x="487" y="260" on="0"/>
        <pt x="359" y="154" on="0"/>
        <pt x="251" y="154" on="1"/>
        <pt x="211" y="154" on="0"/>
        <pt x="192" y="158" on="1"/>
        <pt x="178" y="57" on="1"/>
        <pt x="247" y="43" on="1"/>
        <pt x="242" y="0" on="1"/>
        <pt x="6" y="0" on="1"/>
      </contour>
      <contour>
        <pt x="315" y="199" on="0"/>
        <pt x="384" y="274" on="0"/>
        <pt x="384" y="347" on="1"/>
        <pt x="384" y="409" on="0"/>
        <pt x="330" y="454" on="0"/>
        <pt x="278" y="454" on="1"/>
        <pt x="250" y="454" on="0"/>
        <pt x="233" y="450" on="1"/>
        <pt x="198" y="204" on="1"/>
        <pt x="216" y="199" on="0"/>
        <pt x="236" y="199" on="1"/>
      </contour>
    </TTGlyph>
    <TTGlyph name="U" xMin="56" yMin="-11" xMax="655" yMax="648">
      <contour>
        <pt x="56" y="605" on="1"/>
        <pt x="61" y="648" on="1"/>
        <pt x="297" y="648" on="1"/>
        <pt x="291" y="605" on="1"/>
        <pt x="219" y="591" on="1"/>
        <pt x="175" y="278" on="1"/>
        <pt x="166" y="218" on="0"/>
        <pt x="166" y="177" on="1"/>
        <pt x="166" y="110" on="0"/>
        <pt x="221" y="48" on="0"/>
        <pt x="296" y="48" on="1"/>
        <pt x="374" y="48" on="0"/>
        <pt x="449" y="156" on="0"/>
        <pt x="466" y="278" on="1"/>
        <pt x="509" y="590" on="1"/>
        <pt x="442" y="605" on="1"/>
        <pt x="446" y="648" on="1"/>
        <pt x="655" y="648" on="1"/>
        <pt x="650" y="605" on="1"/>
        <pt x="578" y="590" on="1"/>
        <pt x="535" y="279" on="1"/>
        <pt x="521" y="176" on="0"/>
        <pt x="463" y="51" on="0"/>
        <pt x="352" y="-11" on="0"/>
        <pt x="261" y="-11" on="1"/>
        <pt x="163" y="-11" on="0"/>
        <pt x="71" y="83" on="0"/>
        <pt x="71" y="165" on="1"/>
        <pt x="71" y="215" on="0"/>
        <pt x="80" y="278" on="1"/>
        <pt x="124" y="591" on="1"/>
      </contour>
    </TTGlyph>
    <TTGlyph name="Uacute" xMin="56" yMin="-11" xMax="655" yMax="844">
      <contour>
        <pt x="290" y="725" on="1"/>
        <pt x="464" y="844" on="1"/>
        <pt x="479" y="837" on="0"/>
        <pt x="499" y="807" on="0"/>
        <pt x="499" y="790" on="1"/>
        <pt x="499" y="773" on="0"/>
        <pt x="476" y="750" on="0"/>
        <pt x="450" y="740" on="1"/>
        <pt x="312" y="686" on="1"/>
      </contour>
      <contour>
        <pt x="163" y="-11" on="0"/>
        <pt x="71" y="83" on="0"/>
        <pt x="71" y="165" on="1"/>
        <pt x="71" y="215" on="0"/>
        <pt x="80" y="278" on="1"/>
        <pt x="124" y="591" on="1"/>
        <pt x="56" y="605" on="1"/>
        <pt x="61" y="648" on="1"/>
        <pt x="297" y="648" on="1"/>
        <pt x="291" y="605" on="1"/>
        <pt x="219" y="591" on="1"/>
        <pt x="175" y="278" on="1"/>
        <pt x="166" y="218" on="0"/>
        <pt x="166" y="177" on="1"/>
        <pt x="166" y="110" on="0"/>
        <pt x="221" y="48" on="0"/>
        <pt x="296" y="48" on="1"/>
        <pt x="374" y="48" on="0"/>
        <pt x="449" y="156" on="0"/>
        <pt x="466" y="278" on="1"/>
        <pt x="509" y="590" on="1"/>
        <pt x="442" y="605" on="1"/>
        <pt x="446" y="648" on="1"/>
        <pt x="655" y="648" on="1"/>
        <pt x="650" y="605" on="1"/>
        <pt x="578" y="590" on="1"/>
        <pt x="535" y="279" on="1"/>
        <pt x="521" y="176" on="0"/>
        <pt x="463" y="51" on="0"/>
        <pt x="352" y="-11" on="0"/>
        <pt x="261" y="-11" on="1"/>
      </contour>
    </TTGlyph>
    <TTGlyph name="Ubreve" xMin="56" yMin="-11" xMax="655" yMax="832">
      <component glyphName=".ttfautohint" x="56" y="0" flags="0x0"/>
      <component glyphName="U" x="0" y="0" flags="0x0"/>
      <component glyphName="uni0306.case" x="459" y="0" flags="0x0"/>
    </TTGlyph>
    <TTGlyph name="Ucircumflex" xMin="56" yMin="-11" xMax="655" yMax="843">
      <contour>
        <pt x="310" y="790" on="1"/>
        <pt x="344" y="817" on="1"/>
        <pt x="359" y="829" on="0"/>
        <pt x="380" y="843" on="0"/>
        <pt x="385" y="843" on="1"/>
        <pt x="394" y="842" on="0"/>
        <pt x="441" y="802" on="0"/>
        <pt x="447" y="797" on="1"/>
        <pt x="515" y="735" on="1"/>
        <pt x="480" y="692" on="1"/>
        <pt x="372" y="757" on="1"/>
        <pt x="259" y="696" on="1"/>
        <pt x="234" y="731" on="1"/>
      </contour>
      <contour>
        <pt x="56" y="605" on="1"/>
        <pt x="61" y="648" on="1"/>
        <pt x="297" y="648" on="1"/>
        <pt x="291" y="605" on="1"/>
        <pt x="219" y="591" on="1"/>
        <pt x="175" y="278" on="1"/>
        <pt x="166" y="218" on="0"/>
        <pt x="166" y="177" on="1"/>
        <pt x="166" y="110" on="0"/>
        <pt x="221" y="48" on="0"/>
        <pt x="296" y="48" on="1"/>
        <pt x="374" y="48" on="0"/>
        <pt x="449" y="156" on="0"/>
        <pt x="466" y="278" on="1"/>
        <pt x="509" y="590" on="1"/>
        <pt x="442" y="605" on="1"/>
        <pt x="446" y="648" on="1"/>
        <pt x="655" y="648" on="1"/>
        <pt x="650" y="605" on="1"/>
        <pt x="578" y="590" on="1"/>
        <pt x="535" y="279" on="1"/>
        <pt x="521" y="176" on="0"/>
        <pt x="463" y="51" on="0"/>
        <pt x="352" y="-11" on="0"/>
        <pt x="261" y="-11" on="1"/>
        <pt x="163" y="-11" on="0"/>
        <pt x="71" y="83" on="0"/>
        <pt x="71" y="165" on="1"/>
        <pt x="71" y="215" on="0"/>
        <pt x="80" y="278" on="1"/>
        <pt x="124" y="591" on="1"/>
      </contour>
    </TTGlyph>
    <TTGlyph name="Udieresis" xMin="56" yMin="-11" xMax="655" yMax="823">
      <contour>
        <pt x="246" y="698" on="0"/>
        <pt x="216" y="731" on="0"/>
        <pt x="216" y="757" on="1"/>
        <pt x="216" y="783" on="0"/>
        <pt x="250" y="823" on="0"/>
        <pt x="277" y="823" on="1"/>
        <pt x="301" y="823" on="0"/>
        <pt x="331" y="791" on="0"/>
        <pt x="331" y="765" on="1"/>
        <pt x="331" y="738" on="0"/>
        <pt x="298" y="698" on="0"/>
        <pt x="270" y="698" on="1"/>
      </contour>
      <contour>
        <pt x="461" y="698" on="0"/>
        <pt x="431" y="731" on="0"/>
        <pt x="431" y="757" on="1"/>
        <pt x="431" y="783" on="0"/>
        <pt x="464" y="823" on="0"/>
        <pt x="491" y="823" on="1"/>
        <pt x="516" y="823" on="0"/>
        <pt x="546" y="791" on="0"/>
        <pt x="546" y="765" on="1"/>
        <pt x="546" y="738" on="0"/>
        <pt x="513" y="698" on="0"/>
        <pt x="485" y="698" on="1"/>
      </contour>
      <contour>
        <pt x="56" y="605" on="1"/>
        <pt x="61" y="648" on="1"/>
        <pt x="297" y="648" on="1"/>
        <pt x="291" y="605" on="1"/>
        <pt x="219" y="591" on="1"/>
        <pt x="175" y="278" on="1"/>
        <pt x="166" y="218" on="0"/>
        <pt x="166" y="177" on="1"/>
        <pt x="166" y="110" on="0"/>
        <pt x="221" y="48" on="0"/>
        <pt x="296" y="48" on="1"/>
        <pt x="374" y="48" on="0"/>
        <pt x="449" y="156" on="0"/>
        <pt x="466" y="278" on="1"/>
        <pt x="509" y="590" on="1"/>
        <pt x="442" y="605" on="1"/>
        <pt x="446" y="648" on="1"/>
        <pt x="655" y="648" on="1"/>
        <pt x="650" y="605" on="1"/>
        <pt x="578" y="590" on="1"/>
        <pt x="535" y="279" on="1"/>
        <pt x="521" y="176" on="0"/>
        <pt x="463" y="51" on="0"/>
        <pt x="352" y="-11" on="0"/>
        <pt x="261" y="-11" on="1"/>
        <pt x="163" y="-11" on="0"/>
        <pt x="71" y="83" on="0"/>
        <pt x="71" y="165" on="1"/>
        <pt x="71" y="215" on="0"/>
        <pt x="80" y="278" on="1"/>
        <pt x="124" y="591" on="1"/>
      </contour>
    </TTGlyph>
    <TTGlyph name="Ugrave" xMin="56" yMin="-11" xMax="655" yMax="844">
      <contour>
        <pt x="268" y="750" on="0"/>
        <pt x="246" y="773" on="0"/>
        <pt x="246" y="789" on="1"/>
        <pt x="246" y="807" on="0"/>
        <pt x="265" y="836" on="0"/>
        <pt x="281" y="844" on="1"/>
        <pt x="455" y="725" on="1"/>
        <pt x="432" y="686" on="1"/>
        <pt x="294" y="740" on="1"/>
      </contour>
      <contour>
        <pt x="56" y="605" on="1"/>
        <pt x="61" y="648" on="1"/>
        <pt x="297" y="648" on="1"/>
        <pt x="291" y="605" on="1"/>
        <pt x="219" y="591" on="1"/>
        <pt x="175" y="278" on="1"/>
        <pt x="166" y="218" on="0"/>
        <pt x="166" y="177" on="1"/>
        <pt x="166" y="110" on="0"/>
        <pt x="221" y="48" on="0"/>
        <pt x="296" y="48" on="1"/>
        <pt x="374" y="48" on="0"/>
        <pt x="449" y="156" on="0"/>
        <pt x="466" y="278" on="1"/>
        <pt x="509" y="590" on="1"/>
        <pt x="442" y="605" on="1"/>
        <pt x="446" y="648" on="1"/>
        <pt x="655" y="648" on="1"/>
        <pt x="650" y="605" on="1"/>
        <pt x="578" y="590" on="1"/>
        <pt x="535" y="279" on="1"/>
        <pt x="521" y="176" on="0"/>
        <pt x="463" y="51" on="0"/>
        <pt x="352" y="-11" on="0"/>
        <pt x="261" y="-11" on="1"/>
        <pt x="163" y="-11" on="0"/>
        <pt x="71" y="83" on="0"/>
        <pt x="71" y="165" on="1"/>
        <pt x="71" y="215" on="0"/>
        <pt x="80" y="278" on="1"/>
        <pt x="124" y="591" on="1"/>
      </contour>
    </TTGlyph>
    <TTGlyph name="Uhorn" xMin="56" yMin="-11" xMax="714" yMax="777">
      <contour>
        <pt x="714" y="681" on="0"/>
        <pt x="652" y="606" on="0"/>
        <pt x="577" y="583" on="1"/>
        <pt x="535" y="279" on="1"/>
        <pt x="521" y="176" on="0"/>
        <pt x="463" y="51" on="0"/>
        <pt x="352" y="-11" on="0"/>
        <pt x="261" y="-11" on="1"/>
        <pt x="163" y="-11" on="0"/>
        <pt x="71" y="83" on="0"/>
        <pt x="71" y="165" on="1"/>
        <pt x="71" y="215" on="0"/>
        <pt x="80" y="278" on="1"/>
        <pt x="124" y="591" on="1"/>
        <pt x="56" y="605" on="1"/>
        <pt x="61" y="648" on="1"/>
        <pt x="297" y="648" on="1"/>
        <pt x="291" y="605" on="1"/>
        <pt x="219" y="591" on="1"/>
        <pt x="175" y="278" on="1"/>
        <pt x="166" y="218" on="0"/>
        <pt x="166" y="177" on="1"/>
        <pt x="166" y="110" on="0"/>
        <pt x="221" y="48" on="0"/>
        <pt x="296" y="48" on="1"/>
        <pt x="374" y="48" on="0"/>
        <pt x="449" y="156" on="0"/>
        <pt x="466" y="278" on="1"/>
        <pt x="509" y="590" on="1"/>
        <pt x="442" y="605" on="1"/>
        <pt x="446" y="648" on="1"/>
        <pt x="575" y="648" on="1"/>
        <pt x="609" y="648" on="0"/>
        <pt x="640" y="665" on="0"/>
        <pt x="640" y="688" on="1"/>
        <pt x="640" y="699" on="0"/>
        <pt x="631" y="713" on="0"/>
        <pt x="621" y="720" on="1"/>
        <pt x="621" y="735" on="1"/>
        <pt x="682" y="777" on="1"/>
        <pt x="697" y="765" on="0"/>
        <pt x="714" y="741" on="0"/>
        <pt x="714" y="715" on="1"/>
      </contour>
    </TTGlyph>
    <TTGlyph name="Uhungarumlaut" xMin="56" yMin="-11" xMax="655" yMax="839">
      <contour>
        <pt x="234" y="700" on="1"/>
        <pt x="333" y="839" on="1"/>
        <pt x="360" y="835" on="0"/>
        <pt x="389" y="808" on="0"/>
        <pt x="389" y="791" on="1"/>
        <pt x="388" y="777" on="0"/>
        <pt x="359" y="742" on="0"/>
        <pt x="341" y="728" on="1"/>
        <pt x="265" y="673" on="1"/>
      </contour>
      <contour>
        <pt x="398" y="700" on="1"/>
        <pt x="497" y="839" on="1"/>
        <pt x="523" y="835" on="0"/>
        <pt x="552" y="808" on="0"/>
        <pt x="552" y="791" on="1"/>
        <pt x="552" y="777" on="0"/>
        <pt x="523" y="742" on="0"/>
        <pt x="505" y="728" on="1"/>
        <pt x="429" y="673" on="1"/>
      </contour>
      <contour>
        <pt x="163" y="-11" on="0"/>
        <pt x="71" y="83" on="0"/>
        <pt x="71" y="165" on="1"/>
        <pt x="71" y="215" on="0"/>
        <pt x="80" y="278" on="1"/>
        <pt x="124" y="591" on="1"/>
        <pt x="56" y="605" on="1"/>
        <pt x="61" y="648" on="1"/>
        <pt x="297" y="648" on="1"/>
        <pt x="291" y="605" on="1"/>
        <pt x="219" y="591" on="1"/>
        <pt x="175" y="278" on="1"/>
        <pt x="166" y="218" on="0"/>
        <pt x="166" y="177" on="1"/>
        <pt x="166" y="110" on="0"/>
        <pt x="221" y="48" on="0"/>
        <pt x="296" y="48" on="1"/>
        <pt x="374" y="48" on="0"/>
        <pt x="449" y="156" on="0"/>
        <pt x="466" y="278" on="1"/>
        <pt x="509" y="590" on="1"/>
        <pt x="442" y="605" on="1"/>
        <pt x="446" y="648" on="1"/>
        <pt x="655" y="648" on="1"/>
        <pt x="650" y="605" on="1"/>
        <pt x="578" y="590" on="1"/>
        <pt x="535" y="279" on="1"/>
        <pt x="521" y="176" on="0"/>
        <pt x="463" y="51" on="0"/>
        <pt x="352" y="-11" on="0"/>
        <pt x="261" y="-11" on="1"/>
      </contour>
    </TTGlyph>
    <TTGlyph name="Umacron" xMin="56" yMin="-11" xMax="655" yMax="787">
      <contour>
        <pt x="534" y="787" on="1"/>
        <pt x="525" y="718" on="1"/>
        <pt x="223" y="718" on="1"/>
        <pt x="232" y="787" on="1"/>
      </contour>
      <contour>
        <pt x="56" y="605" on="1"/>
        <pt x="61" y="648" on="1"/>
        <pt x="297" y="648" on="1"/>
        <pt x="291" y="605" on="1"/>
        <pt x="219" y="591" on="1"/>
        <pt x="175" y="278" on="1"/>
        <pt x="166" y="218" on="0"/>
        <pt x="166" y="177" on="1"/>
        <pt x="166" y="110" on="0"/>
        <pt x="221" y="48" on="0"/>
        <pt x="296" y="48" on="1"/>
        <pt x="374" y="48" on="0"/>
        <pt x="449" y="156" on="0"/>
        <pt x="466" y="278" on="1"/>
        <pt x="509" y="590" on="1"/>
        <pt x="442" y="605" on="1"/>
        <pt x="446" y="648" on="1"/>
        <pt x="655" y="648" on="1"/>
        <pt x="650" y="605" on="1"/>
        <pt x="578" y="590" on="1"/>
        <pt x="535" y="279" on="1"/>
        <pt x="521" y="176" on="0"/>
        <pt x="463" y="51" on="0"/>
        <pt x="352" y="-11" on="0"/>
        <pt x="261" y="-11" on="1"/>
        <pt x="163" y="-11" on="0"/>
        <pt x="71" y="83" on="0"/>
        <pt x="71" y="165" on="1"/>
        <pt x="71" y="215" on="0"/>
        <pt x="80" y="278" on="1"/>
        <pt x="124" y="591" on="1"/>
      </contour>
    </TTGlyph>
    <TTGlyph name="Uogonek" xMin="56" yMin="-180" xMax="655" yMax="648">
      <contour>
        <pt x="236" y="-180" on="0"/>
        <pt x="236" y="-115" on="1"/>
        <pt x="236" y="-85" on="0"/>
        <pt x="268" y="-32" on="0"/>
        <pt x="296" y="-11" on="1"/>
        <pt x="295" y="-8" on="1"/>
        <pt x="265" y="-11" on="0"/>
        <pt x="261" y="-11" on="1"/>
        <pt x="163" y="-11" on="0"/>
        <pt x="71" y="83" on="0"/>
        <pt x="71" y="165" on="1"/>
        <pt x="71" y="215" on="0"/>
        <pt x="80" y="278" on="1"/>
        <pt x="124" y="591" on="1"/>
        <pt x="56" y="605" on="1"/>
        <pt x="61" y="648" on="1"/>
        <pt x="297" y="648" on="1"/>
        <pt x="291" y="605" on="1"/>
        <pt x="219" y="591" on="1"/>
        <pt x="175" y="278" on="1"/>
        <pt x="166" y="218" on="0"/>
        <pt x="166" y="177" on="1"/>
        <pt x="166" y="110" on="0"/>
        <pt x="221" y="48" on="0"/>
        <pt x="296" y="48" on="1"/>
        <pt x="374" y="48" on="0"/>
        <pt x="449" y="156" on="0"/>
        <pt x="466" y="278" on="1"/>
        <pt x="509" y="590" on="1"/>
        <pt x="442" y="605" on="1"/>
        <pt x="446" y="648" on="1"/>
        <pt x="655" y="648" on="1"/>
        <pt x="650" y="605" on="1"/>
        <pt x="578" y="590" on="1"/>
        <pt x="535" y="279" on="1"/>
        <pt x="519" y="160" on="0"/>
        <pt x="442" y="27" on="0"/>
        <pt x="367" y="3" on="1"/>
        <pt x="345" y="-12" on="0"/>
        <pt x="310" y="-57" on="0"/>
        <pt x="310" y="-85" on="1"/>
        <pt x="310" y="-124" on="0"/>
        <pt x="350" y="-124" on="1"/>
        <pt x="372" y="-124" on="0"/>
        <pt x="405" y="-104" on="1"/>
        <pt x="423" y="-131" on="1"/>
        <pt x="423" y="-132" on="0"/>
        <pt x="392" y="-158" on="0"/>
        <pt x="345" y="-180" on="0"/>
        <pt x="317" y="-180" on="1"/>
      </contour>
    </TTGlyph>
    <TTGlyph name="Uring" xMin="56" yMin="-11" xMax="655" yMax="833">
      <contour>
        <pt x="332" y="662" on="0"/>
        <pt x="288" y="699" on="0"/>
        <pt x="288" y="733" on="1"/>
        <pt x="288" y="773" on="0"/>
        <pt x="345" y="833" on="0"/>
        <pt x="392" y="833" on="1"/>
        <pt x="434" y="833" on="0"/>
        <pt x="478" y="797" on="0"/>
        <pt x="478" y="763" on="1"/>
        <pt x="478" y="722" on="0"/>
        <pt x="423" y="662" on="0"/>
        <pt x="375" y="662" on="1"/>
      </contour>
      <contour>
        <pt x="402" y="707" on="0"/>
        <pt x="418" y="731" on="0"/>
        <pt x="418" y="758" on="1"/>
        <pt x="418" y="775" on="0"/>
        <pt x="401" y="788" on="0"/>
        <pt x="383" y="788" on="1"/>
        <pt x="363" y="788" on="0"/>
        <pt x="347" y="765" on="0"/>
        <pt x="347" y="739" on="1"/>
        <pt x="347" y="722" on="0"/>
        <pt x="363" y="707" on="0"/>
        <pt x="383" y="707" on="1"/>
      </contour>
      <contour>
        <pt x="163" y="-11" on="0"/>
        <pt x="71" y="83" on="0"/>
        <pt x="71" y="165" on="1"/>
        <pt x="71" y="215" on="0"/>
        <pt x="80" y="278" on="1"/>
        <pt x="124" y="591" on="1"/>
        <pt x="56" y="605" on="1"/>
        <pt x="61" y="648" on="1"/>
        <pt x="297" y="648" on="1"/>
        <pt x="291" y="605" on="1"/>
        <pt x="219" y="591" on="1"/>
        <pt x="175" y="278" on="1"/>
        <pt x="166" y="218" on="0"/>
        <pt x="166" y="177" on="1"/>
        <pt x="166" y="110" on="0"/>
        <pt x="221" y="48" on="0"/>
        <pt x="296" y="48" on="1"/>
        <pt x="374" y="48" on="0"/>
        <pt x="449" y="156" on="0"/>
        <pt x="466" y="278" on="1"/>
        <pt x="509" y="590" on="1"/>
        <pt x="442" y="605" on="1"/>
        <pt x="446" y="648" on="1"/>
        <pt x="655" y="648" on="1"/>
        <pt x="650" y="605" on="1"/>
        <pt x="578" y="590" on="1"/>
        <pt x="535" y="279" on="1"/>
        <pt x="521" y="176" on="0"/>
        <pt x="463" y="51" on="0"/>
        <pt x="352" y="-11" on="0"/>
        <pt x="261" y="-11" on="1"/>
      </contour>
    </TTGlyph>
    <TTGlyph name="Utilde" xMin="56" yMin="-11" xMax="655" yMax="820">
      <component glyphName=".ttfautohint" x="56" y="0" flags="0x0"/>
      <component glyphName="U" x="0" y="0" flags="0x0"/>
      <component glyphName="tildecomb.case" x="486" y="0" flags="0x0"/>
    </TTGlyph>
    <TTGlyph name="V" xMin="19" yMin="-9" xMax="573" yMax="648">
      <contour>
        <pt x="76" y="592" on="1"/>
        <pt x="19" y="605" on="1"/>
        <pt x="23" y="648" on="1"/>
        <pt x="251" y="648" on="1"/>
        <pt x="247" y="605" on="1"/>
        <pt x="177" y="591" on="1"/>
        <pt x="177" y="573" on="1"/>
        <pt x="248" y="168" on="1"/>
        <pt x="252" y="137" on="1"/>
        <pt x="254" y="139" on="1"/>
        <pt x="264" y="166" on="1"/>
        <pt x="445" y="577" on="1"/>
        <pt x="445" y="591" on="1"/>
        <pt x="371" y="605" on="1"/>
        <pt x="376" y="648" on="1"/>
        <pt x="573" y="648" on="1"/>
        <pt x="567" y="605" on="1"/>
        <pt x="514" y="590" on="1"/>
        <pt x="244" y="-9" on="1"/>
        <pt x="187" y="-9" on="1"/>
      </contour>
    </TTGlyph>
    <TTGlyph name="W" xMin="9" yMin="-8" xMax="849" yMax="648">
      <contour>
        <pt x="66" y="595" on="1"/>
        <pt x="9" y="607" on="1"/>
        <pt x="14" y="648" on="1"/>
        <pt x="245" y="648" on="1"/>
        <pt x="240" y="607" on="1"/>
        <pt x="168" y="592" on="1"/>
        <pt x="168" y="570" on="1"/>
        <pt x="211" y="153" on="1"/>
        <pt x="214" y="121" on="1"/>
        <pt x="216" y="124" on="1"/>
        <pt x="228" y="153" on="1"/>
        <pt x="389" y="517" on="1"/>
        <pt x="375" y="595" on="1"/>
        <pt x="319" y="607" on="1"/>
        <pt x="323" y="648" on="1"/>
        <pt x="555" y="648" on="1"/>
        <pt x="550" y="607" on="1"/>
        <pt x="478" y="592" on="1"/>
        <pt x="478" y="572" on="1"/>
        <pt x="533" y="160" on="1"/>
        <pt x="537" y="121" on="1"/>
        <pt x="540" y="125" on="1"/>
        <pt x="552" y="158" on="1"/>
        <pt x="717" y="575" on="1"/>
        <pt x="719" y="592" on="1"/>
        <pt x="647" y="607" on="1"/>
        <pt x="653" y="648" on="1"/>
        <pt x="849" y="648" on="1"/>
        <pt x="843" y="607" on="1"/>
        <pt x="791" y="593" on="1"/>
        <pt x="534" y="-8" on="1"/>
        <pt x="470" y="-8" on="1"/>
        <pt x="406" y="414" on="1"/>
        <pt x="210" y="-8" on="1"/>
        <pt x="146" y="-8" on="1"/>
      </contour>
    </TTGlyph>
    <TTGlyph name="Wacute" xMin="9" yMin="-8" xMax="849" yMax="837">
      <component glyphName=".ttfautohint" x="9" y="0" flags="0x0"/>
      <component glyphName="W" x="0" y="0" flags="0x0"/>
      <component glyphName="acutecomb.case" x="532" y="0" flags="0x0"/>
    </TTGlyph>
    <TTGlyph name="Wcircumflex" xMin="9" yMin="-8" xMax="849" yMax="835">
      <component glyphName=".ttfautohint" x="9" y="0" flags="0x0"/>
      <component glyphName="W" x="0" y="0" flags="0x0"/>
      <component glyphName="uni0302.case" x="533" y="0" flags="0x0"/>
    </TTGlyph>
    <TTGlyph name="Wdieresis" xMin="9" yMin="-8" xMax="849" yMax="823">
      <component glyphName=".ttfautohint" x="9" y="0" flags="0x0"/>
      <component glyphName="W" x="0" y="0" flags="0x0"/>
      <component glyphName="uni0308.case" x="553" y="0" flags="0x0"/>
    </TTGlyph>
    <TTGlyph name="Wgrave" xMin="9" yMin="-8" xMax="849" yMax="837">
      <component glyphName=".ttfautohint" x="9" y="0" flags="0x0"/>
      <component glyphName="W" x="0" y="0" flags="0x0"/>
      <component glyphName="gravecomb.case" x="455" y="0" flags="0x0"/>
    </TTGlyph>
    <TTGlyph name="X" xMin="-52" yMin="0" xMax="568" yMax="648">
      <contour>
        <pt x="16" y="56" on="1"/>
        <pt x="223" y="323" on="1"/>
        <pt x="100" y="595" on="1"/>
        <pt x="46" y="607" on="1"/>
        <pt x="50" y="648" on="1"/>
        <pt x="290" y="648" on="1"/>
        <pt x="286" y="607" on="1"/>
        <pt x="216" y="592" on="1"/>
        <pt x="216" y="575" on="1"/>
        <pt x="292" y="402" on="1"/>
        <pt x="429" y="579" on="1"/>
        <pt x="429" y="593" on="1"/>
        <pt x="368" y="606" on="1"/>
        <pt x="374" y="648" on="1"/>
        <pt x="568" y="648" on="1"/>
        <pt x="563" y="606" on="1"/>
        <pt x="511" y="592" on="1"/>
        <pt x="318" y="344" on="1"/>
        <pt x="447" y="54" on="1"/>
        <pt x="505" y="41" on="1"/>
        <pt x="502" y="0" on="1"/>
        <pt x="268" y="0" on="1"/>
        <pt x="272" y="41" on="1"/>
        <pt x="335" y="56" on="1"/>
        <pt x="335" y="78" on="1"/>
        <pt x="250" y="263" on="1"/>
        <pt x="100" y="69" on="1"/>
        <pt x="99" y="55" on="1"/>
        <pt x="160" y="41" on="1"/>
        <pt x="155" y="0" on="1"/>
        <pt x="-52" y="0" on="1"/>
        <pt x="-47" y="41" on="1"/>
      </contour>
    </TTGlyph>
    <TTGlyph name="Y" xMin="21" yMin="0" xMax="541" yMax="648">
      <contour>
        <pt x="175" y="55" on="1"/>
        <pt x="201" y="243" on="1"/>
        <pt x="75" y="595" on="1"/>
        <pt x="21" y="607" on="1"/>
        <pt x="25" y="648" on="1"/>
        <pt x="253" y="648" on="1"/>
        <pt x="248" y="607" on="1"/>
        <pt x="178" y="592" on="1"/>
        <pt x="178" y="570" on="1"/>
        <pt x="267" y="309" on="1"/>
        <pt x="276" y="309" on="1"/>
        <pt x="412" y="578" on="1"/>
        <pt x="412" y="593" on="1"/>
        <pt x="343" y="607" on="1"/>
        <pt x="348" y="648" on="1"/>
        <pt x="541" y="648" on="1"/>
        <pt x="536" y="607" on="1"/>
        <pt x="484" y="593" on="1"/>
        <pt x="296" y="245" on="1"/>
        <pt x="270" y="55" on="1"/>
        <pt x="339" y="41" on="1"/>
        <pt x="335" y="0" on="1"/>
        <pt x="99" y="0" on="1"/>
        <pt x="103" y="41" on="1"/>
      </contour>
    </TTGlyph>
    <TTGlyph name="Y.loclGUA" xMin="46" yMin="-14" xMax="660" yMax="648">
      <contour>
        <pt x="660" y="648" on="1"/>
        <pt x="653" y="600" on="1"/>
        <pt x="579" y="585" on="1"/>
        <pt x="533" y="252" on="1"/>
        <pt x="514" y="111" on="0"/>
        <pt x="381" y="-14" on="0"/>
        <pt x="256" y="-14" on="1"/>
        <pt x="140" y="-14" on="0"/>
        <pt x="50" y="35" on="1"/>
        <pt x="70" y="189" on="1"/>
        <pt x="125" y="189" on="1"/>
        <pt x="138" y="74" on="1"/>
        <pt x="194" y="42" on="0"/>
        <pt x="260" y="42" on="1"/>
        <pt x="337" y="42" on="0"/>
        <pt x="415" y="139" on="0"/>
        <pt x="429" y="231" on="1"/>
        <pt x="365" y="194" on="0"/>
        <pt x="285" y="194" on="1"/>
        <pt x="183" y="194" on="0"/>
        <pt x="99" y="287" on="0"/>
        <pt x="99" y="372" on="1"/>
        <pt x="99" y="415" on="0"/>
        <pt x="106" y="460" on="1"/>
        <pt x="123" y="585" on="1"/>
        <pt x="46" y="600" on="1"/>
        <pt x="53" y="648" on="1"/>
        <pt x="311" y="648" on="1"/>
        <pt x="304" y="600" on="1"/>
        <pt x="224" y="585" on="1"/>
        <pt x="208" y="472" on="1"/>
        <pt x="200" y="404" on="0"/>
        <pt x="200" y="381" on="1"/>
        <pt x="200" y="321" on="0"/>
        <pt x="249" y="257" on="0"/>
        <pt x="310" y="257" on="1"/>
        <pt x="379" y="257" on="0"/>
        <pt x="440" y="305" on="1"/>
        <pt x="478" y="584" on="1"/>
        <pt x="392" y="600" on="1"/>
        <pt x="399" y="648" on="1"/>
      </contour>
    </TTGlyph>
    <TTGlyph name="Yacute" xMin="17" yMin="0" xMax="538" yMax="844">
      <contour>
        <pt x="216" y="725" on="1"/>
        <pt x="390" y="844" on="1"/>
        <pt x="405" y="837" on="0"/>
        <pt x="425" y="808" on="0"/>
        <pt x="425" y="790" on="1"/>
        <pt x="425" y="773" on="0"/>
        <pt x="403" y="750" on="0"/>
        <pt x="377" y="740" on="1"/>
        <pt x="239" y="686" on="1"/>
      </contour>
      <contour>
        <pt x="99" y="41" on="1"/>
        <pt x="172" y="55" on="1"/>
        <pt x="198" y="243" on="1"/>
        <pt x="71" y="595" on="1"/>
        <pt x="17" y="607" on="1"/>
        <pt x="22" y="648" on="1"/>
        <pt x="248" y="648" on="1"/>
        <pt x="243" y="607" on="1"/>
        <pt x="173" y="592" on="1"/>
        <pt x="173" y="570" on="1"/>
        <pt x="260" y="309" on="1"/>
        <pt x="269" y="309" on="1"/>
        <pt x="409" y="578" on="1"/>
        <pt x="409" y="593" on="1"/>
        <pt x="339" y="607" on="1"/>
        <pt x="344" y="648" on="1"/>
        <pt x="538" y="648" on="1"/>
        <pt x="532" y="607" on="1"/>
        <pt x="481" y="593" on="1"/>
        <pt x="294" y="252" on="1"/>
        <pt x="267" y="55" on="1"/>
        <pt x="335" y="41" on="1"/>
        <pt x="332" y="0" on="1"/>
        <pt x="96" y="0" on="1"/>
      </contour>
    </TTGlyph>
    <TTGlyph name="Yacute.loclGUA" xMin="46" yMin="-14" xMax="660" yMax="837">
      <component glyphName=".ttfautohint" x="46" y="0" flags="0x0"/>
      <component glyphName="Y.loclGUA" x="0" y="0" flags="0x0"/>
      <component glyphName="acutecomb.case" x="457" y="0" flags="0x0"/>
    </TTGlyph>
    <TTGlyph name="Ycircumflex" xMin="21" yMin="0" xMax="541" yMax="835">
      <component glyphName=".ttfautohint" x="21" y="0" flags="0x0"/>
      <component glyphName="Y" x="0" y="0" flags="0x0"/>
      <component glyphName="uni0302.case" x="390" y="0" flags="0x0"/>
    </TTGlyph>
    <TTGlyph name="Ycircumflex.loclGUA" xMin="46" yMin="-14" xMax="660" yMax="835">
      <component glyphName=".ttfautohint" x="46" y="0" flags="0x0"/>
      <component glyphName="Y.loclGUA" x="0" y="0" flags="0x0"/>
      <component glyphName="uni0302.case" x="458" y="0" flags="0x0"/>
    </TTGlyph>
    <TTGlyph name="Ydieresis" xMin="17" yMin="0" xMax="538" yMax="823">
      <contour>
        <pt x="173" y="698" on="0"/>
        <pt x="143" y="731" on="0"/>
        <pt x="143" y="757" on="1"/>
        <pt x="143" y="783" on="0"/>
        <pt x="177" y="823" on="0"/>
        <pt x="204" y="823" on="1"/>
        <pt x="229" y="823" on="0"/>
        <pt x="259" y="791" on="0"/>
        <pt x="259" y="765" on="1"/>
        <pt x="259" y="738" on="0"/>
        <pt x="226" y="698" on="0"/>
        <pt x="198" y="698" on="1"/>
      </contour>
      <contour>
        <pt x="388" y="698" on="0"/>
        <pt x="358" y="731" on="0"/>
        <pt x="358" y="757" on="1"/>
        <pt x="358" y="783" on="0"/>
        <pt x="392" y="823" on="0"/>
        <pt x="419" y="823" on="1"/>
        <pt x="443" y="823" on="0"/>
        <pt x="473" y="791" on="0"/>
        <pt x="473" y="765" on="1"/>
        <pt x="473" y="738" on="0"/>
        <pt x="440" y="698" on="0"/>
        <pt x="412" y="698" on="1"/>
      </contour>
      <contour>
        <pt x="172" y="55" on="1"/>
        <pt x="198" y="243" on="1"/>
        <pt x="71" y="595" on="1"/>
        <pt x="17" y="607" on="1"/>
        <pt x="22" y="648" on="1"/>
        <pt x="248" y="648" on="1"/>
        <pt x="243" y="607" on="1"/>
        <pt x="173" y="592" on="1"/>
        <pt x="173" y="570" on="1"/>
        <pt x="260" y="309" on="1"/>
        <pt x="269" y="309" on="1"/>
        <pt x="409" y="578" on="1"/>
        <pt x="409" y="593" on="1"/>
        <pt x="339" y="607" on="1"/>
        <pt x="344" y="648" on="1"/>
        <pt x="538" y="648" on="1"/>
        <pt x="532" y="607" on="1"/>
        <pt x="481" y="593" on="1"/>
        <pt x="294" y="252" on="1"/>
        <pt x="267" y="55" on="1"/>
        <pt x="335" y="41" on="1"/>
        <pt x="332" y="0" on="1"/>
        <pt x="96" y="0" on="1"/>
        <pt x="99" y="41" on="1"/>
      </contour>
    </TTGlyph>
    <TTGlyph name="Ydieresis.loclGUA" xMin="46" yMin="-14" xMax="660" yMax="823">
      <component glyphName=".ttfautohint" x="46" y="0" flags="0x0"/>
      <component glyphName="Y.loclGUA" x="0" y="0" flags="0x0"/>
      <component glyphName="uni0308.case" x="478" y="0" flags="0x0"/>
    </TTGlyph>
    <TTGlyph name="Ygrave" xMin="21" yMin="0" xMax="541" yMax="837">
      <component glyphName=".ttfautohint" x="21" y="0" flags="0x0"/>
      <component glyphName="Y" x="0" y="0" flags="0x0"/>
      <component glyphName="gravecomb.case" x="312" y="0" flags="0x0"/>
    </TTGlyph>
    <TTGlyph name="Ygrave.loclGUA" xMin="46" yMin="-14" xMax="660" yMax="837">
      <component glyphName=".ttfautohint" x="46" y="0" flags="0x0"/>
      <component glyphName="Y.loclGUA" x="0" y="0" flags="0x0"/>
      <component glyphName="gravecomb.case" x="380" y="0" flags="0x0"/>
    </TTGlyph>
    <TTGlyph name="Z" xMin="-9" yMin="0" xMax="509" yMax="648">
      <contour>
        <pt x="382" y="574" on="1"/>
        <pt x="371" y="594" on="1"/>
        <pt x="148" y="594" on="1"/>
        <pt x="106" y="488" on="1"/>
        <pt x="57" y="488" on="1"/>
        <pt x="80" y="648" on="1"/>
        <pt x="477" y="648" on="1"/>
        <pt x="509" y="596" on="1"/>
        <pt x="113" y="63" on="1"/>
        <pt x="117" y="52" on="1"/>
        <pt x="365" y="52" on="1"/>
        <pt x="405" y="158" on="1"/>
        <pt x="454" y="158" on="1"/>
        <pt x="433" y="0" on="1"/>
        <pt x="12" y="0" on="1"/>
        <pt x="-9" y="51" on="1"/>
      </contour>
    </TTGlyph>
    <TTGlyph name="Zacute" xMin="-12" yMin="0" xMax="506" yMax="837">
      <contour>
        <pt x="210" y="718" on="1"/>
        <pt x="383" y="837" on="1"/>
        <pt x="399" y="829" on="0"/>
        <pt x="419" y="800" on="0"/>
        <pt x="419" y="783" on="1"/>
        <pt x="419" y="766" on="0"/>
        <pt x="396" y="743" on="0"/>
        <pt x="370" y="733" on="1"/>
        <pt x="232" y="679" on="1"/>
      </contour>
      <contour>
        <pt x="-12" y="51" on="1"/>
        <pt x="379" y="574" on="1"/>
        <pt x="368" y="594" on="1"/>
        <pt x="145" y="594" on="1"/>
        <pt x="103" y="488" on="1"/>
        <pt x="54" y="488" on="1"/>
        <pt x="78" y="648" on="1"/>
        <pt x="474" y="648" on="1"/>
        <pt x="506" y="596" on="1"/>
        <pt x="110" y="63" on="1"/>
        <pt x="114" y="52" on="1"/>
        <pt x="362" y="52" on="1"/>
        <pt x="402" y="158" on="1"/>
        <pt x="452" y="158" on="1"/>
        <pt x="431" y="0" on="1"/>
        <pt x="9" y="0" on="1"/>
      </contour>
    </TTGlyph>
    <TTGlyph name="Zacute.loclPLK" xMin="-9" yMin="0" xMax="509" yMax="856">
      <contour>
        <pt x="400" y="856" on="1"/>
        <pt x="423" y="853" on="0"/>
        <pt x="454" y="821" on="0"/>
        <pt x="454" y="802" on="1"/>
        <pt x="454" y="780" on="0"/>
        <pt x="422" y="754" on="1"/>
        <pt x="321" y="667" on="1"/>
        <pt x="285" y="700" on="1"/>
      </contour>
      <contour>
        <pt x="382" y="574" on="1"/>
        <pt x="371" y="594" on="1"/>
        <pt x="148" y="594" on="1"/>
        <pt x="106" y="488" on="1"/>
        <pt x="57" y="488" on="1"/>
        <pt x="80" y="648" on="1"/>
        <pt x="477" y="648" on="1"/>
        <pt x="509" y="596" on="1"/>
        <pt x="113" y="63" on="1"/>
        <pt x="117" y="52" on="1"/>
        <pt x="365" y="52" on="1"/>
        <pt x="405" y="158" on="1"/>
        <pt x="454" y="158" on="1"/>
        <pt x="433" y="0" on="1"/>
        <pt x="12" y="0" on="1"/>
        <pt x="-9" y="51" on="1"/>
      </contour>
    </TTGlyph>
    <TTGlyph name="Zcaron" xMin="-12" yMin="0" xMax="506" yMax="838">
      <contour>
        <pt x="285" y="685" on="0"/>
        <pt x="240" y="730" on="1"/>
        <pt x="173" y="795" on="1"/>
        <pt x="209" y="836" on="1"/>
        <pt x="312" y="770" on="1"/>
        <pt x="420" y="838" on="1"/>
        <pt x="446" y="803" on="1"/>
        <pt x="373" y="738" on="1"/>
        <pt x="315" y="685" on="0"/>
        <pt x="298" y="685" on="1"/>
      </contour>
      <contour>
        <pt x="-12" y="51" on="1"/>
        <pt x="379" y="574" on="1"/>
        <pt x="368" y="594" on="1"/>
        <pt x="145" y="594" on="1"/>
        <pt x="103" y="488" on="1"/>
        <pt x="54" y="488" on="1"/>
        <pt x="78" y="648" on="1"/>
        <pt x="474" y="648" on="1"/>
        <pt x="506" y="596" on="1"/>
        <pt x="110" y="63" on="1"/>
        <pt x="114" y="52" on="1"/>
        <pt x="362" y="52" on="1"/>
        <pt x="402" y="158" on="1"/>
        <pt x="452" y="158" on="1"/>
        <pt x="431" y="0" on="1"/>
        <pt x="9" y="0" on="1"/>
      </contour>
    </TTGlyph>
    <TTGlyph name="Zdotaccent" xMin="-12" yMin="0" xMax="506" yMax="821">
      <contour>
        <pt x="262" y="694" on="0"/>
        <pt x="232" y="726" on="0"/>
        <pt x="232" y="750" on="1"/>
        <pt x="232" y="778" on="0"/>
        <pt x="266" y="821" on="0"/>
        <pt x="297" y="821" on="1"/>
        <pt x="322" y="821" on="0"/>
        <pt x="353" y="790" on="0"/>
        <pt x="353" y="763" on="1"/>
        <pt x="353" y="735" on="0"/>
        <pt x="318" y="694" on="0"/>
        <pt x="287" y="694" on="1"/>
      </contour>
      <contour>
        <pt x="379" y="574" on="1"/>
        <pt x="368" y="594" on="1"/>
        <pt x="145" y="594" on="1"/>
        <pt x="103" y="488" on="1"/>
        <pt x="54" y="488" on="1"/>
        <pt x="78" y="648" on="1"/>
        <pt x="474" y="648" on="1"/>
        <pt x="506" y="596" on="1"/>
        <pt x="110" y="63" on="1"/>
        <pt x="114" y="52" on="1"/>
        <pt x="362" y="52" on="1"/>
        <pt x="402" y="158" on="1"/>
        <pt x="452" y="158" on="1"/>
        <pt x="431" y="0" on="1"/>
        <pt x="9" y="0" on="1"/>
        <pt x="-12" y="51" on="1"/>
      </contour>
    </TTGlyph>
    <TTGlyph name="a" xMin="36" yMin="-10" xMax="456" yMax="517">
      <contour>
        <pt x="273" y="57" on="0"/>
        <pt x="195" y="-10" on="0"/>
        <pt x="153" y="-10" on="1"/>
        <pt x="36" y="-10" on="0"/>
        <pt x="36" y="150" on="1"/>
        <pt x="36" y="212" on="0"/>
        <pt x="87" y="385" on="0"/>
        <pt x="188" y="513" on="0"/>
        <pt x="259" y="513" on="1"/>
        <pt x="291" y="513" on="0"/>
        <pt x="354" y="492" on="0"/>
        <pt x="376" y="481" on="1"/>
        <pt x="404" y="517" on="1"/>
        <pt x="454" y="517" on="1"/>
        <pt x="383" y="73" on="1"/>
        <pt x="456" y="73" on="1"/>
        <pt x="456" y="27" on="1"/>
        <pt x="452" y="24" on="0"/>
        <pt x="422" y="9" on="0"/>
        <pt x="375" y="-5" on="0"/>
        <pt x="349" y="-5" on="1"/>
        <pt x="287" y="-5" on="0"/>
        <pt x="287" y="46" on="1"/>
        <pt x="287" y="69" on="0"/>
        <pt x="306" y="103" on="1"/>
        <pt x="303" y="105" on="1"/>
      </contour>
      <contour>
        <pt x="285" y="447" on="0"/>
        <pt x="226" y="447" on="1"/>
        <pt x="203" y="447" on="0"/>
        <pt x="196" y="438" on="1"/>
        <pt x="168" y="394" on="0"/>
        <pt x="133" y="249" on="0"/>
        <pt x="133" y="171" on="1"/>
        <pt x="133" y="116" on="0"/>
        <pt x="154" y="61" on="0"/>
        <pt x="182" y="61" on="1"/>
        <pt x="212" y="61" on="0"/>
        <pt x="279" y="122" on="0"/>
        <pt x="306" y="161" on="1"/>
        <pt x="346" y="398" on="1"/>
      </contour>
    </TTGlyph>
    <TTGlyph name="aacute" xMin="36" yMin="-10" xMax="456" yMax="736">
      <contour>
        <pt x="238" y="591" on="1"/>
        <pt x="380" y="736" on="1"/>
        <pt x="428" y="723" on="0"/>
        <pt x="428" y="681" on="1"/>
        <pt x="428" y="654" on="0"/>
        <pt x="364" y="617" on="1"/>
        <pt x="265" y="557" on="1"/>
      </contour>
      <contour>
        <pt x="36" y="-10" on="0"/>
        <pt x="36" y="150" on="1"/>
        <pt x="36" y="212" on="0"/>
        <pt x="87" y="385" on="0"/>
        <pt x="188" y="513" on="0"/>
        <pt x="259" y="513" on="1"/>
        <pt x="291" y="513" on="0"/>
        <pt x="355" y="492" on="0"/>
        <pt x="376" y="481" on="1"/>
        <pt x="404" y="517" on="1"/>
        <pt x="454" y="517" on="1"/>
        <pt x="383" y="73" on="1"/>
        <pt x="456" y="73" on="1"/>
        <pt x="456" y="27" on="1"/>
        <pt x="452" y="24" on="0"/>
        <pt x="422" y="9" on="0"/>
        <pt x="375" y="-5" on="0"/>
        <pt x="349" y="-5" on="1"/>
        <pt x="287" y="-5" on="0"/>
        <pt x="287" y="46" on="1"/>
        <pt x="287" y="69" on="0"/>
        <pt x="306" y="103" on="1"/>
        <pt x="303" y="105" on="1"/>
        <pt x="273" y="57" on="0"/>
        <pt x="195" y="-10" on="0"/>
        <pt x="153" y="-10" on="1"/>
      </contour>
      <contour>
        <pt x="212" y="61" on="0"/>
        <pt x="279" y="122" on="0"/>
        <pt x="306" y="161" on="1"/>
        <pt x="346" y="398" on="1"/>
        <pt x="285" y="447" on="0"/>
        <pt x="226" y="447" on="1"/>
        <pt x="203" y="447" on="0"/>
        <pt x="196" y="438" on="1"/>
        <pt x="168" y="394" on="0"/>
        <pt x="133" y="249" on="0"/>
        <pt x="133" y="171" on="1"/>
        <pt x="133" y="116" on="0"/>
        <pt x="154" y="61" on="0"/>
        <pt x="182" y="61" on="1"/>
      </contour>
    </TTGlyph>
    <TTGlyph name="abreve" xMin="36" yMin="-10" xMax="458" yMax="718">
      <contour>
        <pt x="248" y="565" on="0"/>
        <pt x="192" y="599" on="0"/>
        <pt x="163" y="650" on="0"/>
        <pt x="163" y="673" on="1"/>
        <pt x="163" y="690" on="0"/>
        <pt x="173" y="698" on="1"/>
        <pt x="181" y="706" on="0"/>
        <pt x="219" y="718" on="0"/>
        <pt x="231" y="718" on="1"/>
        <pt x="235" y="681" on="0"/>
        <pt x="268" y="634" on="0"/>
        <pt x="310" y="634" on="1"/>
        <pt x="343" y="634" on="0"/>
        <pt x="397" y="671" on="0"/>
        <pt x="431" y="715" on="0"/>
        <pt x="431" y="718" on="1"/>
        <pt x="458" y="701" on="1"/>
        <pt x="458" y="694" on="0"/>
        <pt x="423" y="625" on="0"/>
        <pt x="348" y="565" on="0"/>
        <pt x="288" y="565" on="1"/>
      </contour>
      <contour>
        <pt x="36" y="-10" on="0"/>
        <pt x="36" y="150" on="1"/>
        <pt x="36" y="212" on="0"/>
        <pt x="87" y="385" on="0"/>
        <pt x="188" y="513" on="0"/>
        <pt x="259" y="513" on="1"/>
        <pt x="291" y="513" on="0"/>
        <pt x="355" y="492" on="0"/>
        <pt x="376" y="481" on="1"/>
        <pt x="404" y="517" on="1"/>
        <pt x="454" y="517" on="1"/>
        <pt x="383" y="73" on="1"/>
        <pt x="456" y="73" on="1"/>
        <pt x="456" y="27" on="1"/>
        <pt x="452" y="24" on="0"/>
        <pt x="422" y="9" on="0"/>
        <pt x="375" y="-5" on="0"/>
        <pt x="349" y="-5" on="1"/>
        <pt x="287" y="-5" on="0"/>
        <pt x="287" y="46" on="1"/>
        <pt x="287" y="69" on="0"/>
        <pt x="306" y="103" on="1"/>
        <pt x="303" y="105" on="1"/>
        <pt x="273" y="57" on="0"/>
        <pt x="195" y="-10" on="0"/>
        <pt x="153" y="-10" on="1"/>
      </contour>
      <contour>
        <pt x="212" y="61" on="0"/>
        <pt x="279" y="122" on="0"/>
        <pt x="306" y="161" on="1"/>
        <pt x="346" y="398" on="1"/>
        <pt x="285" y="447" on="0"/>
        <pt x="226" y="447" on="1"/>
        <pt x="203" y="447" on="0"/>
        <pt x="196" y="438" on="1"/>
        <pt x="168" y="394" on="0"/>
        <pt x="133" y="249" on="0"/>
        <pt x="133" y="171" on="1"/>
        <pt x="133" y="116" on="0"/>
        <pt x="154" y="61" on="0"/>
        <pt x="182" y="61" on="1"/>
      </contour>
    </TTGlyph>
    <TTGlyph name="acircumflex" xMin="36" yMin="-10" xMax="456" yMax="734">
      <contour>
        <pt x="302" y="635" on="1"/>
        <pt x="187" y="563" on="1"/>
        <pt x="157" y="592" on="1"/>
        <pt x="257" y="688" on="1"/>
        <pt x="262" y="693" on="0"/>
        <pt x="289" y="720" on="0"/>
        <pt x="309" y="734" on="0"/>
        <pt x="315" y="734" on="1"/>
        <pt x="322" y="734" on="0"/>
        <pt x="335" y="722" on="0"/>
        <pt x="351" y="703" on="0"/>
        <pt x="355" y="698" on="1"/>
        <pt x="434" y="595" on="1"/>
        <pt x="401" y="559" on="1"/>
      </contour>
      <contour>
        <pt x="36" y="-10" on="0"/>
        <pt x="36" y="150" on="1"/>
        <pt x="36" y="212" on="0"/>
        <pt x="87" y="385" on="0"/>
        <pt x="188" y="513" on="0"/>
        <pt x="259" y="513" on="1"/>
        <pt x="291" y="513" on="0"/>
        <pt x="355" y="492" on="0"/>
        <pt x="376" y="481" on="1"/>
        <pt x="404" y="517" on="1"/>
        <pt x="454" y="517" on="1"/>
        <pt x="383" y="73" on="1"/>
        <pt x="456" y="73" on="1"/>
        <pt x="456" y="27" on="1"/>
        <pt x="452" y="24" on="0"/>
        <pt x="422" y="9" on="0"/>
        <pt x="375" y="-5" on="0"/>
        <pt x="349" y="-5" on="1"/>
        <pt x="287" y="-5" on="0"/>
        <pt x="287" y="46" on="1"/>
        <pt x="287" y="69" on="0"/>
        <pt x="306" y="103" on="1"/>
        <pt x="303" y="105" on="1"/>
        <pt x="273" y="57" on="0"/>
        <pt x="195" y="-10" on="0"/>
        <pt x="153" y="-10" on="1"/>
      </contour>
      <contour>
        <pt x="212" y="61" on="0"/>
        <pt x="279" y="122" on="0"/>
        <pt x="306" y="161" on="1"/>
        <pt x="346" y="398" on="1"/>
        <pt x="285" y="447" on="0"/>
        <pt x="226" y="447" on="1"/>
        <pt x="203" y="447" on="0"/>
        <pt x="196" y="438" on="1"/>
        <pt x="168" y="394" on="0"/>
        <pt x="133" y="249" on="0"/>
        <pt x="133" y="171" on="1"/>
        <pt x="133" y="116" on="0"/>
        <pt x="154" y="61" on="0"/>
        <pt x="182" y="61" on="1"/>
      </contour>
    </TTGlyph>
    <TTGlyph name="acute" xMin="60" yMin="557" xMax="249" yMax="736">
      <contour>
        <pt x="60" y="591" on="1"/>
        <pt x="202" y="736" on="1"/>
        <pt x="249" y="723" on="0"/>
        <pt x="249" y="681" on="1"/>
        <pt x="249" y="664" on="0"/>
        <pt x="214" y="633" on="0"/>
        <pt x="186" y="617" on="1"/>
        <pt x="87" y="557" on="1"/>
      </contour>
    </TTGlyph>
    <TTGlyph name="acutecomb" xMin="-142" yMin="557" xMax="47" yMax="736">
      <contour>
        <pt x="-142" y="591" on="1"/>
        <pt x="0" y="736" on="1"/>
        <pt x="47" y="723" on="0"/>
        <pt x="47" y="681" on="1"/>
        <pt x="47" y="664" on="0"/>
        <pt x="12" y="633" on="0"/>
        <pt x="-16" y="617" on="1"/>
        <pt x="-115" y="557" on="1"/>
      </contour>
    </TTGlyph>
    <TTGlyph name="acutecomb.case" xMin="-135" yMin="679" xMax="74" yMax="837">
      <contour>
        <pt x="-135" y="718" on="1"/>
        <pt x="39" y="837" on="1"/>
        <pt x="54" y="829" on="0"/>
        <pt x="74" y="800" on="0"/>
        <pt x="74" y="783" on="1"/>
        <pt x="74" y="766" on="0"/>
        <pt x="51" y="744" on="0"/>
        <pt x="25" y="733" on="1"/>
        <pt x="-113" y="679" on="1"/>
      </contour>
    </TTGlyph>
    <TTGlyph name="adieresis" xMin="36" yMin="-10" xMax="457" yMax="712">
      <contour>
        <pt x="175" y="589" on="0"/>
        <pt x="147" y="617" on="0"/>
        <pt x="147" y="638" on="1"/>
        <pt x="147" y="666" on="0"/>
        <pt x="183" y="712" on="0"/>
        <pt x="214" y="712" on="1"/>
        <pt x="237" y="712" on="0"/>
        <pt x="266" y="683" on="0"/>
        <pt x="266" y="658" on="1"/>
        <pt x="266" y="631" on="0"/>
        <pt x="229" y="589" on="0"/>
        <pt x="198" y="589" on="1"/>
      </contour>
      <contour>
        <pt x="367" y="589" on="0"/>
        <pt x="339" y="617" on="0"/>
        <pt x="339" y="638" on="1"/>
        <pt x="339" y="666" on="0"/>
        <pt x="375" y="712" on="0"/>
        <pt x="406" y="712" on="1"/>
        <pt x="429" y="712" on="0"/>
        <pt x="457" y="683" on="0"/>
        <pt x="457" y="658" on="1"/>
        <pt x="457" y="631" on="0"/>
        <pt x="420" y="589" on="0"/>
        <pt x="390" y="589" on="1"/>
      </contour>
      <contour>
        <pt x="36" y="-10" on="0"/>
        <pt x="36" y="150" on="1"/>
        <pt x="36" y="212" on="0"/>
        <pt x="87" y="385" on="0"/>
        <pt x="188" y="513" on="0"/>
        <pt x="259" y="513" on="1"/>
        <pt x="291" y="513" on="0"/>
        <pt x="355" y="492" on="0"/>
        <pt x="376" y="481" on="1"/>
        <pt x="404" y="517" on="1"/>
        <pt x="454" y="517" on="1"/>
        <pt x="383" y="73" on="1"/>
        <pt x="456" y="73" on="1"/>
        <pt x="456" y="27" on="1"/>
        <pt x="452" y="24" on="0"/>
        <pt x="422" y="9" on="0"/>
        <pt x="375" y="-5" on="0"/>
        <pt x="349" y="-5" on="1"/>
        <pt x="287" y="-5" on="0"/>
        <pt x="287" y="46" on="1"/>
        <pt x="287" y="69" on="0"/>
        <pt x="306" y="103" on="1"/>
        <pt x="303" y="105" on="1"/>
        <pt x="273" y="57" on="0"/>
        <pt x="195" y="-10" on="0"/>
        <pt x="153" y="-10" on="1"/>
      </contour>
      <contour>
        <pt x="212" y="61" on="0"/>
        <pt x="279" y="122" on="0"/>
        <pt x="306" y="161" on="1"/>
        <pt x="346" y="398" on="1"/>
        <pt x="285" y="447" on="0"/>
        <pt x="226" y="447" on="1"/>
        <pt x="203" y="447" on="0"/>
        <pt x="196" y="438" on="1"/>
        <pt x="168" y="394" on="0"/>
        <pt x="133" y="249" on="0"/>
        <pt x="133" y="171" on="1"/>
        <pt x="133" y="116" on="0"/>
        <pt x="154" y="61" on="0"/>
        <pt x="182" y="61" on="1"/>
      </contour>
    </TTGlyph>
    <TTGlyph name="ae" xMin="35" yMin="-10" xMax="641" yMax="513">
      <contour>
        <pt x="501" y="57" on="0"/>
        <pt x="562" y="80" on="0"/>
        <pt x="588" y="98" on="1"/>
        <pt x="608" y="66" on="1"/>
        <pt x="578" y="33" on="0"/>
        <pt x="480" y="-9" on="0"/>
        <pt x="435" y="-9" on="1"/>
        <pt x="368" y="-9" on="0"/>
        <pt x="302" y="37" on="0"/>
        <pt x="293" y="89" on="1"/>
        <pt x="266" y="42" on="0"/>
        <pt x="192" y="-10" on="0"/>
        <pt x="153" y="-10" on="1"/>
        <pt x="35" y="-10" on="0"/>
        <pt x="35" y="150" on="1"/>
        <pt x="35" y="238" on="0"/>
        <pt x="101" y="407" on="0"/>
        <pt x="205" y="513" on="0"/>
        <pt x="259" y="513" on="1"/>
        <pt x="286" y="513" on="0"/>
        <pt x="367" y="486" on="0"/>
        <pt x="405" y="464" on="1"/>
        <pt x="455" y="513" on="0"/>
        <pt x="523" y="513" on="1"/>
        <pt x="575" y="513" on="0"/>
        <pt x="641" y="457" on="0"/>
        <pt x="641" y="413" on="1"/>
        <pt x="641" y="332" on="0"/>
        <pt x="504" y="224" on="0"/>
        <pt x="385" y="210" on="1"/>
        <pt x="385" y="202" on="1"/>
        <pt x="385" y="146" on="0"/>
        <pt x="402" y="84" on="0"/>
        <pt x="443" y="57" on="0"/>
        <pt x="479" y="57" on="1"/>
      </contour>
      <contour>
        <pt x="424" y="409" on="0"/>
        <pt x="395" y="312" on="0"/>
        <pt x="389" y="256" on="1"/>
        <pt x="471" y="270" on="0"/>
        <pt x="551" y="338" on="0"/>
        <pt x="551" y="393" on="1"/>
        <pt x="551" y="449" on="0"/>
        <pt x="494" y="449" on="1"/>
        <pt x="475" y="449" on="0"/>
        <pt x="448" y="442" on="0"/>
        <pt x="443" y="437" on="1"/>
      </contour>
      <contour>
        <pt x="292" y="227" on="0"/>
        <pt x="325" y="348" on="0"/>
        <pt x="351" y="394" on="1"/>
        <pt x="317" y="419" on="0"/>
        <pt x="251" y="447" on="0"/>
        <pt x="225" y="447" on="1"/>
        <pt x="202" y="447" on="0"/>
        <pt x="196" y="438" on="1"/>
        <pt x="167" y="391" on="0"/>
        <pt x="132" y="247" on="0"/>
        <pt x="132" y="171" on="1"/>
        <pt x="132" y="113" on="0"/>
        <pt x="156" y="61" on="0"/>
        <pt x="182" y="61" on="1"/>
        <pt x="213" y="61" on="0"/>
        <pt x="279" y="126" on="0"/>
        <pt x="290" y="166" on="1"/>
      </contour>
    </TTGlyph>
    <TTGlyph name="aeacute" xMin="35" yMin="-10" xMax="641" yMax="736">
      <component glyphName=".ttfautohint" x="35" y="0" flags="0x0"/>
      <component glyphName="ae" x="0" y="0" flags="0x0"/>
      <component glyphName="acutecomb" x="513" y="0" flags="0x0"/>
    </TTGlyph>
    <TTGlyph name="agrave" xMin="36" yMin="-10" xMax="456" yMax="736">
      <contour>
        <pt x="199" y="654" on="0"/>
        <pt x="199" y="681" on="1"/>
        <pt x="199" y="723" on="0"/>
        <pt x="247" y="736" on="1"/>
        <pt x="389" y="591" on="1"/>
        <pt x="361" y="557" on="1"/>
        <pt x="263" y="617" on="1"/>
      </contour>
      <contour>
        <pt x="273" y="57" on="0"/>
        <pt x="195" y="-10" on="0"/>
        <pt x="153" y="-10" on="1"/>
        <pt x="36" y="-10" on="0"/>
        <pt x="36" y="150" on="1"/>
        <pt x="36" y="212" on="0"/>
        <pt x="87" y="385" on="0"/>
        <pt x="188" y="513" on="0"/>
        <pt x="259" y="513" on="1"/>
        <pt x="291" y="513" on="0"/>
        <pt x="355" y="492" on="0"/>
        <pt x="376" y="481" on="1"/>
        <pt x="404" y="517" on="1"/>
        <pt x="454" y="517" on="1"/>
        <pt x="383" y="73" on="1"/>
        <pt x="456" y="73" on="1"/>
        <pt x="456" y="27" on="1"/>
        <pt x="452" y="24" on="0"/>
        <pt x="422" y="9" on="0"/>
        <pt x="375" y="-5" on="0"/>
        <pt x="349" y="-5" on="1"/>
        <pt x="287" y="-5" on="0"/>
        <pt x="287" y="46" on="1"/>
        <pt x="287" y="69" on="0"/>
        <pt x="306" y="103" on="1"/>
        <pt x="303" y="105" on="1"/>
      </contour>
      <contour>
        <pt x="285" y="447" on="0"/>
        <pt x="226" y="447" on="1"/>
        <pt x="203" y="447" on="0"/>
        <pt x="196" y="438" on="1"/>
        <pt x="168" y="394" on="0"/>
        <pt x="133" y="249" on="0"/>
        <pt x="133" y="171" on="1"/>
        <pt x="133" y="116" on="0"/>
        <pt x="154" y="61" on="0"/>
        <pt x="182" y="61" on="1"/>
        <pt x="212" y="61" on="0"/>
        <pt x="279" y="122" on="0"/>
        <pt x="306" y="161" on="1"/>
        <pt x="346" y="398" on="1"/>
      </contour>
    </TTGlyph>
    <TTGlyph name="amacron" xMin="36" yMin="-10" xMax="459" yMax="681">
      <contour>
        <pt x="459" y="681" on="1"/>
        <pt x="450" y="612" on="1"/>
        <pt x="154" y="612" on="1"/>
        <pt x="162" y="681" on="1"/>
      </contour>
      <contour>
        <pt x="273" y="57" on="0"/>
        <pt x="195" y="-10" on="0"/>
        <pt x="153" y="-10" on="1"/>
        <pt x="36" y="-10" on="0"/>
        <pt x="36" y="150" on="1"/>
        <pt x="36" y="212" on="0"/>
        <pt x="87" y="385" on="0"/>
        <pt x="188" y="513" on="0"/>
        <pt x="259" y="513" on="1"/>
        <pt x="291" y="513" on="0"/>
        <pt x="355" y="492" on="0"/>
        <pt x="376" y="481" on="1"/>
        <pt x="404" y="517" on="1"/>
        <pt x="454" y="517" on="1"/>
        <pt x="383" y="73" on="1"/>
        <pt x="456" y="73" on="1"/>
        <pt x="456" y="27" on="1"/>
        <pt x="452" y="24" on="0"/>
        <pt x="422" y="9" on="0"/>
        <pt x="375" y="-5" on="0"/>
        <pt x="349" y="-5" on="1"/>
        <pt x="287" y="-5" on="0"/>
        <pt x="287" y="46" on="1"/>
        <pt x="287" y="69" on="0"/>
        <pt x="306" y="103" on="1"/>
        <pt x="303" y="105" on="1"/>
      </contour>
      <contour>
        <pt x="285" y="447" on="0"/>
        <pt x="226" y="447" on="1"/>
        <pt x="203" y="447" on="0"/>
        <pt x="196" y="438" on="1"/>
        <pt x="168" y="394" on="0"/>
        <pt x="133" y="249" on="0"/>
        <pt x="133" y="171" on="1"/>
        <pt x="133" y="116" on="0"/>
        <pt x="154" y="61" on="0"/>
        <pt x="182" y="61" on="1"/>
        <pt x="212" y="61" on="0"/>
        <pt x="279" y="122" on="0"/>
        <pt x="306" y="161" on="1"/>
        <pt x="346" y="398" on="1"/>
      </contour>
    </TTGlyph>
    <TTGlyph name="ampersand" xMin="25" yMin="-98" xMax="667" yMax="649">
      <contour>
        <pt x="667" y="412" on="1"/>
        <pt x="625" y="365" on="1"/>
        <pt x="598" y="334" on="0"/>
        <pt x="559" y="334" on="1"/>
        <pt x="536" y="334" on="0"/>
        <pt x="512" y="340" on="1"/>
        <pt x="512" y="319" on="1"/>
        <pt x="512" y="264" on="0"/>
        <pt x="483" y="161" on="0"/>
        <pt x="456" y="118" on="1"/>
        <pt x="500" y="66" on="1"/>
        <pt x="510" y="52" on="0"/>
        <pt x="517" y="29" on="0"/>
        <pt x="517" y="12" on="1"/>
        <pt x="517" y="5" on="0"/>
        <pt x="514" y="-19" on="1"/>
        <pt x="504" y="-98" on="1"/>
        <pt x="457" y="-98" on="1"/>
        <pt x="450" y="-14" on="1"/>
        <pt x="397" y="50" on="1"/>
        <pt x="324" y="-11" on="0"/>
        <pt x="219" y="-11" on="1"/>
        <pt x="124" y="-11" on="0"/>
        <pt x="25" y="62" on="0"/>
        <pt x="25" y="132" on="1"/>
        <pt x="25" y="190" on="0"/>
        <pt x="101" y="302" on="0"/>
        <pt x="162" y="335" on="1"/>
        <pt x="123" y="384" on="0"/>
        <pt x="97" y="441" on="0"/>
        <pt x="97" y="477" on="1"/>
        <pt x="97" y="523" on="0"/>
        <pt x="149" y="602" on="0"/>
        <pt x="236" y="649" on="0"/>
        <pt x="287" y="649" on="1"/>
        <pt x="356" y="649" on="0"/>
        <pt x="443" y="578" on="0"/>
        <pt x="443" y="521" on="1"/>
        <pt x="443" y="472" on="0"/>
        <pt x="419" y="433" on="1"/>
        <pt x="425" y="432" on="0"/>
        <pt x="454" y="426" on="1"/>
        <pt x="570" y="404" on="1"/>
        <pt x="646" y="441" on="1"/>
      </contour>
      <contour>
        <pt x="440" y="221" on="0"/>
        <pt x="440" y="293" on="1"/>
        <pt x="440" y="337" on="0"/>
        <pt x="438" y="359" on="1"/>
        <pt x="388" y="372" on="1"/>
        <pt x="312" y="336" on="1"/>
        <pt x="291" y="365" on="1"/>
        <pt x="326" y="400" on="0"/>
        <pt x="355" y="440" on="0"/>
        <pt x="365" y="477" on="0"/>
        <pt x="365" y="510" on="1"/>
        <pt x="365" y="551" on="0"/>
        <pt x="321" y="594" on="0"/>
        <pt x="278" y="594" on="1"/>
        <pt x="235" y="594" on="0"/>
        <pt x="181" y="543" on="0"/>
        <pt x="181" y="504" on="1"/>
        <pt x="181" y="478" on="0"/>
        <pt x="205" y="429" on="0"/>
        <pt x="236" y="390" on="1"/>
        <pt x="416" y="168" on="1"/>
      </contour>
      <contour>
        <pt x="274" y="44" on="0"/>
        <pt x="336" y="69" on="0"/>
        <pt x="362" y="92" on="1"/>
        <pt x="190" y="301" on="1"/>
        <pt x="157" y="278" on="0"/>
        <pt x="118" y="198" on="0"/>
        <pt x="118" y="153" on="1"/>
        <pt x="118" y="44" on="0"/>
        <pt x="240" y="44" on="1"/>
      </contour>
    </TTGlyph>
    <TTGlyph name="aogonek" xMin="36" yMin="-180" xMax="470" yMax="517">
      <contour>
        <pt x="470" y="-131" on="1"/>
        <pt x="470" y="-132" on="0"/>
        <pt x="439" y="-158" on="0"/>
        <pt x="392" y="-180" on="0"/>
        <pt x="364" y="-180" on="1"/>
        <pt x="282" y="-180" on="0"/>
        <pt x="282" y="-115" on="1"/>
        <pt x="282" y="-82" on="0"/>
        <pt x="320" y="-25" on="0"/>
        <pt x="352" y="-5" on="1"/>
        <pt x="351" y="-5" on="1"/>
        <pt x="316" y="-5" on="0"/>
        <pt x="287" y="21" on="0"/>
        <pt x="287" y="46" on="1"/>
        <pt x="287" y="69" on="0"/>
        <pt x="306" y="103" on="1"/>
        <pt x="303" y="105" on="1"/>
        <pt x="273" y="57" on="0"/>
        <pt x="195" y="-10" on="0"/>
        <pt x="153" y="-10" on="1"/>
        <pt x="36" y="-10" on="0"/>
        <pt x="36" y="150" on="1"/>
        <pt x="36" y="212" on="0"/>
        <pt x="87" y="385" on="0"/>
        <pt x="188" y="513" on="0"/>
        <pt x="259" y="513" on="1"/>
        <pt x="291" y="513" on="0"/>
        <pt x="355" y="492" on="0"/>
        <pt x="376" y="481" on="1"/>
        <pt x="404" y="517" on="1"/>
        <pt x="454" y="517" on="1"/>
        <pt x="383" y="73" on="1"/>
        <pt x="456" y="73" on="1"/>
        <pt x="456" y="27" on="1"/>
        <pt x="456" y="26" on="0"/>
        <pt x="427" y="11" on="1"/>
        <pt x="405" y="0" on="0"/>
        <pt x="356" y="-51" on="0"/>
        <pt x="356" y="-85" on="1"/>
        <pt x="356" y="-104" on="0"/>
        <pt x="377" y="-124" on="0"/>
        <pt x="396" y="-124" on="1"/>
        <pt x="416" y="-124" on="0"/>
        <pt x="450" y="-105" on="0"/>
        <pt x="452" y="-104" on="1"/>
      </contour>
      <contour>
        <pt x="346" y="398" on="1"/>
        <pt x="285" y="447" on="0"/>
        <pt x="226" y="447" on="1"/>
        <pt x="203" y="447" on="0"/>
        <pt x="196" y="438" on="1"/>
        <pt x="168" y="394" on="0"/>
        <pt x="133" y="249" on="0"/>
        <pt x="133" y="171" on="1"/>
        <pt x="133" y="116" on="0"/>
        <pt x="154" y="61" on="0"/>
        <pt x="182" y="61" on="1"/>
        <pt x="212" y="61" on="0"/>
        <pt x="279" y="122" on="0"/>
        <pt x="306" y="161" on="1"/>
      </contour>
    </TTGlyph>
    <TTGlyph name="approxequal" xMin="68" yMin="143" xMax="465" yMax="393">
      <contour>
        <pt x="333" y="294" on="0"/>
        <pt x="270" y="307" on="1"/>
        <pt x="157" y="327" on="1"/>
        <pt x="90" y="297" on="1"/>
        <pt x="68" y="323" on="1"/>
        <pt x="103" y="364" on="1"/>
        <pt x="126" y="391" on="0"/>
        <pt x="161" y="393" on="1"/>
        <pt x="183" y="393" on="0"/>
        <pt x="257" y="382" on="1"/>
        <pt x="377" y="360" on="1"/>
        <pt x="444" y="391" on="1"/>
        <pt x="465" y="363" on="1"/>
        <pt x="430" y="322" on="1"/>
        <pt x="403" y="294" on="0"/>
        <pt x="373" y="294" on="1"/>
      </contour>
      <contour>
        <pt x="333" y="143" on="0"/>
        <pt x="270" y="156" on="1"/>
        <pt x="157" y="176" on="1"/>
        <pt x="90" y="146" on="1"/>
        <pt x="68" y="172" on="1"/>
        <pt x="103" y="213" on="1"/>
        <pt x="126" y="240" on="0"/>
        <pt x="161" y="242" on="1"/>
        <pt x="183" y="242" on="0"/>
        <pt x="257" y="231" on="1"/>
        <pt x="377" y="209" on="1"/>
        <pt x="444" y="240" on="1"/>
        <pt x="465" y="212" on="1"/>
        <pt x="430" y="172" on="1"/>
        <pt x="404" y="143" on="0"/>
        <pt x="373" y="143" on="1"/>
      </contour>
    </TTGlyph>
</ttFont>
